<svg width="117" height="98" viewBox="0 0 117 98" fill="none" xmlns="http://www.w3.org/2000/svg">
<g clip-path="url(#clip0_82_26)">
<path d="M70.5 83.5L56.5 51.0001C44.5 22 -0.426077 4.50006 -0.426077 4.50006" stroke="white" stroke-linecap="round"/>
<path d="M47.5 83.5L61.5739 51C73.5739 22 118.5 4.50003 118.5 4.50003" stroke="white" stroke-linecap="round"/>
<path d="M12.22 80V77.2H12.652V80H12.22ZM10.392 80V77.2H10.824V80H10.392ZM10.58 78.812V78.396H12.412V78.812H10.58ZM14.575 80V78.632C14.575 78.5147 14.5323 78.42 14.447 78.348C14.3643 78.2733 14.259 78.236 14.131 78.236C14.0136 78.236 13.907 78.26 13.811 78.308C13.7176 78.356 13.6323 78.4293 13.555 78.528L13.287 78.26C13.4123 78.124 13.547 78.0227 13.691 77.956C13.8376 77.8893 13.995 77.856 14.163 77.856C14.323 77.856 14.4616 77.8827 14.579 77.936C14.6963 77.9893 14.787 78.068 14.851 78.172C14.915 78.2733 14.947 78.3973 14.947 78.544V80H14.575ZM13.947 80.04C13.811 80.04 13.6896 80.0133 13.583 79.96C13.4763 79.9067 13.391 79.8333 13.327 79.74C13.2656 79.644 13.235 79.532 13.235 79.404C13.235 79.292 13.255 79.1933 13.295 79.108C13.335 79.0227 13.3936 78.952 13.471 78.896C13.551 78.84 13.6496 78.7973 13.767 78.768C13.887 78.7387 14.0243 78.724 14.179 78.724H14.763L14.727 79.052H14.127C14.047 79.052 13.975 79.06 13.911 79.076C13.8496 79.0893 13.7963 79.112 13.751 79.144C13.7083 79.1733 13.6763 79.2093 13.655 79.252C13.6336 79.292 13.623 79.34 13.623 79.396C13.623 79.4547 13.6376 79.5067 13.667 79.552C13.6963 79.5947 13.7363 79.628 13.787 79.652C13.8376 79.676 13.8963 79.688 13.963 79.688C14.059 79.688 14.1496 79.672 14.235 79.64C14.323 79.6053 14.4003 79.5587 14.467 79.5C14.5363 79.4413 14.5896 79.376 14.627 79.304L14.723 79.572C14.667 79.6653 14.5976 79.7467 14.515 79.816C14.4323 79.8853 14.343 79.94 14.247 79.98C14.151 80.02 14.051 80.04 13.947 80.04ZM15.4677 80V77.9H15.8837V78.56L15.8437 78.4C15.873 78.2987 15.9224 78.2067 15.9917 78.124C16.0637 78.0413 16.145 77.976 16.2357 77.928C16.329 77.88 16.425 77.856 16.5237 77.856C16.569 77.856 16.6117 77.86 16.6517 77.868C16.6944 77.876 16.7277 77.8853 16.7517 77.896L16.6437 78.344C16.6117 78.3307 16.5757 78.32 16.5357 78.312C16.4984 78.3013 16.461 78.296 16.4237 78.296C16.3517 78.296 16.2824 78.3107 16.2157 78.34C16.1517 78.3667 16.0944 78.4053 16.0437 78.456C15.9957 78.504 15.957 78.5613 15.9277 78.628C15.8984 78.692 15.8837 78.7627 15.8837 78.84V80H15.4677ZM17.8671 80.04C17.6751 80.04 17.5031 79.9933 17.3511 79.9C17.2018 79.804 17.0831 79.6747 16.9951 79.512C16.9071 79.3467 16.8631 79.1587 16.8631 78.948C16.8631 78.7373 16.9058 78.5507 16.9911 78.388C17.0791 78.2227 17.1978 78.0933 17.3471 78C17.4965 77.904 17.6658 77.856 17.8551 77.856C17.9591 77.856 18.0591 77.8733 18.1551 77.908C18.2538 77.94 18.3418 77.9853 18.4191 78.044C18.4965 78.1 18.5565 78.1627 18.5991 78.232C18.6445 78.2987 18.6671 78.3667 18.6671 78.436L18.5471 78.444V77.04H18.9591V80H18.5471V79.5H18.6271C18.6271 79.564 18.6058 79.628 18.5631 79.692C18.5205 79.7533 18.4631 79.8107 18.3911 79.864C18.3218 79.9173 18.2405 79.96 18.1471 79.992C18.0565 80.024 17.9631 80.04 17.8671 80.04ZM17.9231 79.684C18.0485 79.684 18.1591 79.652 18.2551 79.588C18.3511 79.524 18.4258 79.4373 18.4791 79.328C18.5351 79.216 18.5631 79.0893 18.5631 78.948C18.5631 78.8067 18.5351 78.6813 18.4791 78.572C18.4258 78.46 18.3511 78.372 18.2551 78.308C18.1591 78.244 18.0485 78.212 17.9231 78.212C17.7978 78.212 17.6871 78.244 17.5911 78.308C17.4951 78.372 17.4191 78.46 17.3631 78.572C17.3098 78.6813 17.2831 78.8067 17.2831 78.948C17.2831 79.0893 17.3098 79.216 17.3631 79.328C17.4191 79.4373 17.4951 79.524 17.5911 79.588C17.6871 79.652 17.7978 79.684 17.9231 79.684ZM20.0423 80L19.3263 77.9L19.7423 77.896L20.2543 79.468L20.1623 79.46L20.7183 78.232H20.9663L21.5263 79.464L21.4183 79.472L21.9343 77.9H22.3503L21.6423 80H21.3583L20.7743 78.664L20.8663 78.676L20.3223 80H20.0423ZM23.9109 80V78.632C23.9109 78.5147 23.8682 78.42 23.7829 78.348C23.7002 78.2733 23.5949 78.236 23.4669 78.236C23.3496 78.236 23.2429 78.26 23.1469 78.308C23.0536 78.356 22.9682 78.4293 22.8909 78.528L22.6229 78.26C22.7482 78.124 22.8829 78.0227 23.0269 77.956C23.1736 77.8893 23.3309 77.856 23.4989 77.856C23.6589 77.856 23.7976 77.8827 23.9149 77.936C24.0322 77.9893 24.1229 78.068 24.1869 78.172C24.2509 78.2733 24.2829 78.3973 24.2829 78.544V80H23.9109ZM23.2829 80.04C23.1469 80.04 23.0256 80.0133 22.9189 79.96C22.8122 79.9067 22.7269 79.8333 22.6629 79.74C22.6016 79.644 22.5709 79.532 22.5709 79.404C22.5709 79.292 22.5909 79.1933 22.6309 79.108C22.6709 79.0227 22.7296 78.952 22.8069 78.896C22.8869 78.84 22.9856 78.7973 23.1029 78.768C23.2229 78.7387 23.3602 78.724 23.5149 78.724H24.0989L24.0629 79.052H23.4629C23.3829 79.052 23.3109 79.06 23.2469 79.076C23.1856 79.0893 23.1322 79.112 23.0869 79.144C23.0442 79.1733 23.0122 79.2093 22.9909 79.252C22.9696 79.292 22.9589 79.34 22.9589 79.396C22.9589 79.4547 22.9736 79.5067 23.0029 79.552C23.0322 79.5947 23.0722 79.628 23.1229 79.652C23.1736 79.676 23.2322 79.688 23.2989 79.688C23.3949 79.688 23.4856 79.672 23.5709 79.64C23.6589 79.6053 23.7362 79.5587 23.8029 79.5C23.8722 79.4413 23.9256 79.376 23.9629 79.304L24.0589 79.572C24.0029 79.6653 23.9336 79.7467 23.8509 79.816C23.7682 79.8853 23.6789 79.94 23.5829 79.98C23.4869 80.02 23.3869 80.04 23.2829 80.04ZM24.8036 80V77.9H25.2196V78.56L25.1796 78.4C25.209 78.2987 25.2583 78.2067 25.3276 78.124C25.3996 78.0413 25.481 77.976 25.5716 77.928C25.665 77.88 25.761 77.856 25.8596 77.856C25.905 77.856 25.9476 77.86 25.9876 77.868C26.0303 77.876 26.0636 77.8853 26.0876 77.896L25.9796 78.344C25.9476 78.3307 25.9116 78.32 25.8716 78.312C25.8343 78.3013 25.797 78.296 25.7596 78.296C25.6876 78.296 25.6183 78.3107 25.5516 78.34C25.4876 78.3667 25.4303 78.4053 25.3796 78.456C25.3316 78.504 25.293 78.5613 25.2636 78.628C25.2343 78.692 25.2196 78.7627 25.2196 78.84V80H24.8036ZM27.3071 80.04C27.0911 80.04 26.8991 79.9947 26.7311 79.904C26.5657 79.8107 26.4351 79.684 26.3391 79.524C26.2457 79.364 26.1991 79.18 26.1991 78.972C26.1991 78.8067 26.2257 78.656 26.2791 78.52C26.3324 78.384 26.4057 78.2667 26.4991 78.168C26.5951 78.0667 26.7084 77.9893 26.8391 77.936C26.9724 77.88 27.1164 77.852 27.2711 77.852C27.4071 77.852 27.5337 77.8787 27.6511 77.932C27.7684 77.9827 27.8697 78.0533 27.9551 78.144C28.0431 78.2347 28.1097 78.3427 28.1551 78.468C28.2031 78.5907 28.2257 78.7253 28.2231 78.872L28.2191 79.048H26.5031L26.4111 78.72H27.8631L27.8031 78.788V78.692C27.7951 78.604 27.7657 78.5253 27.7151 78.456C27.6644 78.3867 27.6004 78.332 27.5231 78.292C27.4457 78.252 27.3617 78.232 27.2711 78.232C27.1271 78.232 27.0057 78.26 26.9071 78.316C26.8084 78.3693 26.7337 78.4493 26.6831 78.556C26.6324 78.66 26.6071 78.7893 26.6071 78.944C26.6071 79.0907 26.6377 79.2187 26.6991 79.328C26.7604 79.4347 26.8471 79.5173 26.9591 79.576C27.0711 79.6347 27.2004 79.664 27.3471 79.664C27.4511 79.664 27.5471 79.6467 27.6351 79.612C27.7257 79.5773 27.8231 79.5147 27.9271 79.424L28.1351 79.716C28.0711 79.78 27.9924 79.836 27.8991 79.884C27.8084 79.932 27.7111 79.9707 27.6071 80C27.5057 80.0267 27.4057 80.04 27.3071 80.04ZM28.4548 80.528L30.1028 77.2H30.4988L28.8548 80.528H28.4548ZM10.392 85V82.2H11.532C11.684 82.2 11.8213 82.2387 11.944 82.316C12.0693 82.3907 12.1693 82.4933 12.244 82.624C12.3187 82.7547 12.356 82.9 12.356 83.06C12.356 83.22 12.3187 83.3653 12.244 83.496C12.1693 83.6267 12.0693 83.732 11.944 83.812C11.8213 83.8893 11.684 83.928 11.532 83.928H10.824V85H10.392ZM10.824 83.512H11.524C11.596 83.512 11.6613 83.492 11.72 83.452C11.7787 83.4093 11.8253 83.3547 11.86 83.288C11.8973 83.2187 11.916 83.1427 11.916 83.06C11.916 82.9773 11.8973 82.9027 11.86 82.836C11.8253 82.7693 11.7787 82.716 11.72 82.676C11.6613 82.636 11.596 82.616 11.524 82.616H10.824V83.512ZM12.8312 85V82.04H13.2432V85H12.8312ZM15.032 85V83.632C15.032 83.5147 14.9893 83.42 14.904 83.348C14.8213 83.2733 14.716 83.236 14.588 83.236C14.4707 83.236 14.364 83.26 14.268 83.308C14.1747 83.356 14.0893 83.4293 14.012 83.528L13.744 83.26C13.8693 83.124 14.004 83.0227 14.148 82.956C14.2947 82.8893 14.452 82.856 14.62 82.856C14.78 82.856 14.9187 82.8827 15.036 82.936C15.1533 82.9893 15.244 83.068 15.308 83.172C15.372 83.2733 15.404 83.3973 15.404 83.544V85H15.032ZM14.404 85.04C14.268 85.04 14.1467 85.0133 14.04 84.96C13.9333 84.9067 13.848 84.8333 13.784 84.74C13.7227 84.644 13.692 84.532 13.692 84.404C13.692 84.292 13.712 84.1933 13.752 84.108C13.792 84.0227 13.8507 83.952 13.928 83.896C14.008 83.84 14.1067 83.7973 14.224 83.768C14.344 83.7387 14.4813 83.724 14.636 83.724H15.22L15.184 84.052H14.584C14.504 84.052 14.432 84.06 14.368 84.076C14.3067 84.0893 14.2533 84.112 14.208 84.144C14.1653 84.1733 14.1333 84.2093 14.112 84.252C14.0907 84.292 14.08 84.34 14.08 84.396C14.08 84.4547 14.0947 84.5067 14.124 84.552C14.1533 84.5947 14.1933 84.628 14.244 84.652C14.2947 84.676 14.3533 84.688 14.42 84.688C14.516 84.688 14.6067 84.672 14.692 84.64C14.78 84.6053 14.8573 84.5587 14.924 84.5C14.9933 84.4413 15.0467 84.376 15.084 84.304L15.18 84.572C15.124 84.6653 15.0547 84.7467 14.972 84.816C14.8893 84.8853 14.8 84.94 14.704 84.98C14.608 85.02 14.508 85.04 14.404 85.04ZM16.1847 85V82.364H16.5967V85H16.1847ZM15.7487 83.3V82.9H17.0847V83.3H15.7487ZM17.5863 85V82.664C17.5863 82.544 17.613 82.4373 17.6663 82.344C17.7196 82.2507 17.793 82.1773 17.8863 82.124C17.9796 82.0707 18.0876 82.044 18.2103 82.044C18.2956 82.044 18.3756 82.06 18.4503 82.092C18.525 82.124 18.585 82.1667 18.6303 82.22L18.4903 82.536C18.4556 82.504 18.417 82.4787 18.3743 82.46C18.3343 82.4387 18.2956 82.428 18.2583 82.428C18.2023 82.428 18.1543 82.4373 18.1143 82.456C18.077 82.472 18.049 82.4987 18.0303 82.536C18.0116 82.5707 18.0023 82.6133 18.0023 82.664V85H17.7943C17.7596 85 17.725 85 17.6903 85C17.6556 85 17.621 85 17.5863 85ZM17.2503 83.316V82.936H18.4983V83.316H17.2503ZM19.7945 85.04C19.5892 85.04 19.4052 84.9933 19.2425 84.9C19.0825 84.804 18.9558 84.6747 18.8625 84.512C18.7692 84.3467 18.7225 84.1587 18.7225 83.948C18.7225 83.7373 18.7692 83.5507 18.8625 83.388C18.9558 83.2227 19.0825 83.0933 19.2425 83C19.4052 82.904 19.5892 82.856 19.7945 82.856C19.9972 82.856 20.1785 82.904 20.3385 83C20.5012 83.0933 20.6292 83.2227 20.7225 83.388C20.8158 83.5507 20.8625 83.7373 20.8625 83.948C20.8625 84.1587 20.8158 84.3467 20.7225 84.512C20.6292 84.6747 20.5012 84.804 20.3385 84.9C20.1785 84.9933 19.9972 85.04 19.7945 85.04ZM19.7945 84.664C19.9198 84.664 20.0318 84.6333 20.1305 84.572C20.2292 84.508 20.3065 84.4227 20.3625 84.316C20.4185 84.2067 20.4452 84.084 20.4425 83.948C20.4452 83.8093 20.4185 83.6867 20.3625 83.58C20.3065 83.4707 20.2292 83.3853 20.1305 83.324C20.0318 83.2627 19.9198 83.232 19.7945 83.232C19.6692 83.232 19.5558 83.264 19.4545 83.328C19.3558 83.3893 19.2785 83.4747 19.2225 83.584C19.1665 83.6907 19.1398 83.812 19.1425 83.948C19.1398 84.084 19.1665 84.2067 19.2225 84.316C19.2785 84.4227 19.3558 84.508 19.4545 84.572C19.5558 84.6333 19.6692 84.664 19.7945 84.664ZM21.3114 85V82.9H21.7274V83.56L21.6874 83.4C21.7168 83.2987 21.7661 83.2067 21.8354 83.124C21.9074 83.0413 21.9888 82.976 22.0794 82.928C22.1728 82.88 22.2688 82.856 22.3674 82.856C22.4128 82.856 22.4554 82.86 22.4954 82.868C22.5381 82.876 22.5714 82.8853 22.5954 82.896L22.4874 83.344C22.4554 83.3307 22.4194 83.32 22.3794 83.312C22.3421 83.3013 22.3048 83.296 22.2674 83.296C22.1954 83.296 22.1261 83.3107 22.0594 83.34C21.9954 83.3667 21.9381 83.4053 21.8874 83.456C21.8394 83.504 21.8008 83.5613 21.7714 83.628C21.7421 83.692 21.7274 83.7627 21.7274 83.84V85H21.3114ZM22.9167 85V82.9H23.3327V83.348L23.2567 83.396C23.2781 83.3267 23.3114 83.26 23.3567 83.196C23.4047 83.132 23.4621 83.076 23.5287 83.028C23.5981 82.9773 23.6714 82.9373 23.7487 82.908C23.8287 82.8787 23.9101 82.864 23.9927 82.864C24.1127 82.864 24.2181 82.884 24.3087 82.924C24.3994 82.964 24.4741 83.024 24.5327 83.104C24.5914 83.184 24.6341 83.284 24.6607 83.404L24.5967 83.388L24.6247 83.32C24.6541 83.2587 24.6941 83.2013 24.7447 83.148C24.7981 83.092 24.8581 83.0427 24.9247 83C24.9914 82.9573 25.0621 82.924 25.1367 82.9C25.2114 82.876 25.2847 82.864 25.3567 82.864C25.5141 82.864 25.6434 82.896 25.7447 82.96C25.8487 83.024 25.9261 83.1213 25.9767 83.252C26.0301 83.3827 26.0567 83.5453 26.0567 83.74V85H25.6407V83.764C25.6407 83.5853 25.6061 83.4547 25.5367 83.372C25.4701 83.2867 25.3647 83.244 25.2207 83.244C25.1461 83.244 25.0754 83.2573 25.0087 83.284C24.9447 83.308 24.8887 83.3427 24.8407 83.388C24.7927 83.4333 24.7554 83.4867 24.7287 83.548C24.7021 83.6067 24.6887 83.672 24.6887 83.744V85H24.2727V83.756C24.2727 83.5907 24.2367 83.464 24.1647 83.376C24.0954 83.288 23.9941 83.244 23.8607 83.244C23.7861 83.244 23.7167 83.2573 23.6527 83.284C23.5887 83.308 23.5327 83.3427 23.4847 83.388C23.4367 83.4307 23.3994 83.4827 23.3727 83.544C23.3461 83.6027 23.3327 83.6667 23.3327 83.736V85H22.9167Z" fill="white"/>
<path d="M72.216 71L71.096 68.2H71.588L72.256 69.9C72.288 69.9827 72.316 70.0573 72.34 70.124C72.3667 70.1907 72.3893 70.252 72.408 70.308C72.4267 70.3613 72.444 70.412 72.46 70.46C72.476 70.508 72.492 70.556 72.508 70.604L72.404 70.608C72.4227 70.544 72.4427 70.4773 72.464 70.408C72.4853 70.3387 72.5093 70.2627 72.536 70.18C72.5653 70.0973 72.6 70.004 72.64 69.9L73.26 68.2H73.764L72.636 71H72.216ZM74.2514 71V68.2H74.6754L75.6954 69.86L75.4914 69.856L76.5234 68.2H76.9234V71H76.4914V69.852C76.4914 69.612 76.4967 69.396 76.5074 69.204C76.5207 69.012 76.542 68.8213 76.5714 68.632L76.6274 68.78L75.7114 70.196H75.4474L74.5594 68.796L74.6034 68.632C74.6327 68.8107 74.6527 68.9947 74.6634 69.184C74.6767 69.3707 74.6834 69.5933 74.6834 69.852V71H74.2514ZM71.356 76V73.9H71.768V76H71.356ZM71.556 73.436C71.468 73.436 71.4 73.4133 71.352 73.368C71.304 73.3227 71.28 73.2587 71.28 73.176C71.28 73.0987 71.304 73.036 71.352 72.988C71.4027 72.94 71.4707 72.916 71.556 72.916C71.644 72.916 71.712 72.9387 71.76 72.984C71.808 73.0293 71.832 73.0933 71.832 73.176C71.832 73.2533 71.8067 73.316 71.756 73.364C71.708 73.412 71.6413 73.436 71.556 73.436ZM72.3933 76V73.9H72.8093V74.348L72.7333 74.396C72.7546 74.3267 72.7879 74.26 72.8333 74.196C72.8813 74.132 72.9386 74.076 73.0053 74.028C73.0746 73.9773 73.1479 73.9373 73.2253 73.908C73.3053 73.8787 73.3866 73.864 73.4693 73.864C73.5893 73.864 73.6946 73.884 73.7853 73.924C73.8759 73.964 73.9506 74.024 74.0093 74.104C74.0679 74.184 74.1106 74.284 74.1373 74.404L74.0733 74.388L74.1013 74.32C74.1306 74.2587 74.1706 74.2013 74.2213 74.148C74.2746 74.092 74.3346 74.0427 74.4013 74C74.4679 73.9573 74.5386 73.924 74.6133 73.9C74.6879 73.876 74.7613 73.864 74.8333 73.864C74.9906 73.864 75.1199 73.896 75.2213 73.96C75.3253 74.024 75.4026 74.1213 75.4533 74.252C75.5066 74.3827 75.5333 74.5453 75.5333 74.74V76H75.1173V74.764C75.1173 74.5853 75.0826 74.4547 75.0133 74.372C74.9466 74.2867 74.8413 74.244 74.6973 74.244C74.6226 74.244 74.5519 74.2573 74.4853 74.284C74.4213 74.308 74.3653 74.3427 74.3173 74.388C74.2693 74.4333 74.2319 74.4867 74.2053 74.548C74.1786 74.6067 74.1653 74.672 74.1653 74.744V76H73.7493V74.756C73.7493 74.5907 73.7133 74.464 73.6413 74.376C73.5719 74.288 73.4706 74.244 73.3373 74.244C73.2626 74.244 73.1933 74.2573 73.1293 74.284C73.0653 74.308 73.0093 74.3427 72.9613 74.388C72.9133 74.4307 72.8759 74.4827 72.8493 74.544C72.8226 74.6027 72.8093 74.6667 72.8093 74.736V76H72.3933ZM76.0849 76.88V73.9H76.5009V74.38L76.4369 74.344C76.4529 74.264 76.4982 74.188 76.5729 74.116C76.6475 74.0413 76.7382 73.9813 76.8449 73.936C76.9542 73.888 77.0662 73.864 77.1809 73.864C77.3702 73.864 77.5382 73.9107 77.6849 74.004C77.8315 74.0973 77.9475 74.2253 78.0329 74.388C78.1182 74.5507 78.1609 74.7373 78.1609 74.948C78.1609 75.156 78.1182 75.3427 78.0329 75.508C77.9502 75.6707 77.8355 75.8 77.6889 75.896C77.5422 75.9893 77.3769 76.036 77.1929 76.036C77.0702 76.036 76.9515 76.012 76.8369 75.964C76.7222 75.9133 76.6249 75.8493 76.5449 75.772C76.4649 75.6947 76.4155 75.6147 76.3969 75.532L76.5009 75.476V76.88H76.0849ZM77.1249 75.656C77.2475 75.656 77.3569 75.6253 77.4529 75.564C77.5489 75.5027 77.6249 75.4187 77.6809 75.312C77.7369 75.2053 77.7649 75.084 77.7649 74.948C77.7649 74.812 77.7369 74.692 77.6809 74.588C77.6275 74.4813 77.5529 74.3973 77.4569 74.336C77.3609 74.2747 77.2502 74.244 77.1249 74.244C76.9995 74.244 76.8889 74.2747 76.7929 74.336C76.6969 74.3947 76.6209 74.4773 76.5649 74.584C76.5089 74.6907 76.4809 74.812 76.4809 74.948C76.4809 75.084 76.5089 75.2053 76.5649 75.312C76.6209 75.4187 76.6969 75.5027 76.7929 75.564C76.8889 75.6253 76.9995 75.656 77.1249 75.656ZM78.6163 76V73.04H79.0283V76H78.6163ZM80.5532 76.04C80.3372 76.04 80.1452 75.9947 79.9772 75.904C79.8118 75.8107 79.6812 75.684 79.5852 75.524C79.4918 75.364 79.4452 75.18 79.4452 74.972C79.4452 74.8067 79.4718 74.656 79.5252 74.52C79.5785 74.384 79.6518 74.2667 79.7452 74.168C79.8412 74.0667 79.9545 73.9893 80.0852 73.936C80.2185 73.88 80.3625 73.852 80.5172 73.852C80.6532 73.852 80.7798 73.8787 80.8972 73.932C81.0145 73.9827 81.1158 74.0533 81.2012 74.144C81.2892 74.2347 81.3558 74.3427 81.4012 74.468C81.4492 74.5907 81.4718 74.7253 81.4692 74.872L81.4652 75.048H79.7492L79.6572 74.72H81.1092L81.0492 74.788V74.692C81.0412 74.604 81.0118 74.5253 80.9612 74.456C80.9105 74.3867 80.8465 74.332 80.7692 74.292C80.6918 74.252 80.6078 74.232 80.5172 74.232C80.3732 74.232 80.2518 74.26 80.1532 74.316C80.0545 74.3693 79.9798 74.4493 79.9292 74.556C79.8785 74.66 79.8532 74.7893 79.8532 74.944C79.8532 75.0907 79.8838 75.2187 79.9452 75.328C80.0065 75.4347 80.0932 75.5173 80.2052 75.576C80.3172 75.6347 80.4465 75.664 80.5932 75.664C80.6972 75.664 80.7932 75.6467 80.8812 75.612C80.9718 75.5773 81.0692 75.5147 81.1732 75.424L81.3812 75.716C81.3172 75.78 81.2385 75.836 81.1452 75.884C81.0545 75.932 80.9572 75.9707 80.8532 76C80.7518 76.0267 80.6518 76.04 80.5532 76.04ZM81.9089 76V73.9H82.3249V74.348L82.2489 74.396C82.2702 74.3267 82.3036 74.26 82.3489 74.196C82.3969 74.132 82.4542 74.076 82.5209 74.028C82.5902 73.9773 82.6636 73.9373 82.7409 73.908C82.8209 73.8787 82.9022 73.864 82.9849 73.864C83.1049 73.864 83.2102 73.884 83.3009 73.924C83.3916 73.964 83.4662 74.024 83.5249 74.104C83.5836 74.184 83.6262 74.284 83.6529 74.404L83.5889 74.388L83.6169 74.32C83.6462 74.2587 83.6862 74.2013 83.7369 74.148C83.7902 74.092 83.8502 74.0427 83.9169 74C83.9836 73.9573 84.0542 73.924 84.1289 73.9C84.2036 73.876 84.2769 73.864 84.3489 73.864C84.5062 73.864 84.6356 73.896 84.7369 73.96C84.8409 74.024 84.9182 74.1213 84.9689 74.252C85.0222 74.3827 85.0489 74.5453 85.0489 74.74V76H84.6329V74.764C84.6329 74.5853 84.5982 74.4547 84.5289 74.372C84.4622 74.2867 84.3569 74.244 84.2129 74.244C84.1382 74.244 84.0676 74.2573 84.0009 74.284C83.9369 74.308 83.8809 74.3427 83.8329 74.388C83.7849 74.4333 83.7476 74.4867 83.7209 74.548C83.6942 74.6067 83.6809 74.672 83.6809 74.744V76H83.2649V74.756C83.2649 74.5907 83.2289 74.464 83.1569 74.376C83.0876 74.288 82.9862 74.244 82.8529 74.244C82.7782 74.244 82.7089 74.2573 82.6449 74.284C82.5809 74.308 82.5249 74.3427 82.4769 74.388C82.4289 74.4307 82.3916 74.4827 82.3649 74.544C82.3382 74.6027 82.3249 74.6667 82.3249 74.736V76H81.9089ZM86.5805 76.04C86.3645 76.04 86.1725 75.9947 86.0045 75.904C85.8392 75.8107 85.7085 75.684 85.6125 75.524C85.5192 75.364 85.4725 75.18 85.4725 74.972C85.4725 74.8067 85.4992 74.656 85.5525 74.52C85.6058 74.384 85.6792 74.2667 85.7725 74.168C85.8685 74.0667 85.9818 73.9893 86.1125 73.936C86.2458 73.88 86.3898 73.852 86.5445 73.852C86.6805 73.852 86.8072 73.8787 86.9245 73.932C87.0418 73.9827 87.1432 74.0533 87.2285 74.144C87.3165 74.2347 87.3832 74.3427 87.4285 74.468C87.4765 74.5907 87.4992 74.7253 87.4965 74.872L87.4925 75.048H85.7765L85.6845 74.72H87.1365L87.0765 74.788V74.692C87.0685 74.604 87.0392 74.5253 86.9885 74.456C86.9378 74.3867 86.8738 74.332 86.7965 74.292C86.7192 74.252 86.6352 74.232 86.5445 74.232C86.4005 74.232 86.2792 74.26 86.1805 74.316C86.0818 74.3693 86.0072 74.4493 85.9565 74.556C85.9058 74.66 85.8805 74.7893 85.8805 74.944C85.8805 75.0907 85.9112 75.2187 85.9725 75.328C86.0338 75.4347 86.1205 75.5173 86.2325 75.576C86.3445 75.6347 86.4738 75.664 86.6205 75.664C86.7245 75.664 86.8205 75.6467 86.9085 75.612C86.9992 75.5773 87.0965 75.5147 87.2005 75.424L87.4085 75.716C87.3445 75.78 87.2658 75.836 87.1725 75.884C87.0818 75.932 86.9845 75.9707 86.8805 76C86.7792 76.0267 86.6792 76.04 86.5805 76.04ZM87.9443 76V73.9H88.3563V74.332L88.2843 74.38C88.3109 74.2867 88.3629 74.2013 88.4403 74.124C88.5176 74.044 88.6096 73.98 88.7163 73.932C88.8229 73.8813 88.9323 73.856 89.0443 73.856C89.2043 73.856 89.3376 73.888 89.4443 73.952C89.5509 74.0133 89.6309 74.108 89.6843 74.236C89.7376 74.364 89.7643 74.5253 89.7643 74.72V76H89.3523V74.748C89.3523 74.628 89.3363 74.5293 89.3043 74.452C89.2723 74.372 89.2229 74.3147 89.1563 74.28C89.0896 74.2427 89.0069 74.2267 88.9083 74.232C88.8283 74.232 88.7549 74.2453 88.6883 74.272C88.6216 74.296 88.5629 74.3307 88.5123 74.376C88.4643 74.4213 88.4256 74.4747 88.3963 74.536C88.3696 74.5947 88.3563 74.6587 88.3563 74.728V76H88.1523C88.1176 76 88.0829 76 88.0483 76C88.0136 76 87.9789 76 87.9443 76ZM90.5832 76V73.364H90.9952V76H90.5832ZM90.1472 74.3V73.9H91.4832V74.3H90.1472ZM93.0828 76V74.632C93.0828 74.5147 93.0401 74.42 92.9548 74.348C92.8721 74.2733 92.7668 74.236 92.6388 74.236C92.5214 74.236 92.4148 74.26 92.3188 74.308C92.2254 74.356 92.1401 74.4293 92.0628 74.528L91.7948 74.26C91.9201 74.124 92.0548 74.0227 92.1988 73.956C92.3454 73.8893 92.5028 73.856 92.6708 73.856C92.8308 73.856 92.9694 73.8827 93.0868 73.936C93.2041 73.9893 93.2948 74.068 93.3588 74.172C93.4228 74.2733 93.4548 74.3973 93.4548 74.544V76H93.0828ZM92.4548 76.04C92.3188 76.04 92.1974 76.0133 92.0908 75.96C91.9841 75.9067 91.8988 75.8333 91.8348 75.74C91.7734 75.644 91.7428 75.532 91.7428 75.404C91.7428 75.292 91.7628 75.1933 91.8028 75.108C91.8428 75.0227 91.9014 74.952 91.9788 74.896C92.0588 74.84 92.1574 74.7973 92.2748 74.768C92.3948 74.7387 92.5321 74.724 92.6868 74.724H93.2708L93.2348 75.052H92.6348C92.5548 75.052 92.4828 75.06 92.4188 75.076C92.3574 75.0893 92.3041 75.112 92.2588 75.144C92.2161 75.1733 92.1841 75.2093 92.1628 75.252C92.1414 75.292 92.1308 75.34 92.1308 75.396C92.1308 75.4547 92.1454 75.5067 92.1748 75.552C92.2041 75.5947 92.2441 75.628 92.2948 75.652C92.3454 75.676 92.4041 75.688 92.4708 75.688C92.5668 75.688 92.6574 75.672 92.7428 75.64C92.8308 75.6053 92.9081 75.5587 92.9748 75.5C93.0441 75.4413 93.0974 75.376 93.1348 75.304L93.2308 75.572C93.1748 75.6653 93.1054 75.7467 93.0228 75.816C92.9401 75.8853 92.8508 75.94 92.7548 75.98C92.6588 76.02 92.5588 76.04 92.4548 76.04ZM94.2355 76V73.364H94.6475V76H94.2355ZM93.7995 74.3V73.9H95.1355V74.3H93.7995ZM95.5787 76V73.9H95.9907V76H95.5787ZM95.7787 73.436C95.6907 73.436 95.6227 73.4133 95.5747 73.368C95.5267 73.3227 95.5027 73.2587 95.5027 73.176C95.5027 73.0987 95.5267 73.036 95.5747 72.988C95.6253 72.94 95.6933 72.916 95.7787 72.916C95.8667 72.916 95.9347 72.9387 95.9827 72.984C96.0307 73.0293 96.0547 73.0933 96.0547 73.176C96.0547 73.2533 96.0293 73.316 95.9787 73.364C95.9307 73.412 95.864 73.436 95.7787 73.436ZM97.5679 76.04C97.3626 76.04 97.1786 75.9933 97.0159 75.9C96.8559 75.804 96.7293 75.6747 96.6359 75.512C96.5426 75.3467 96.4959 75.1587 96.4959 74.948C96.4959 74.7373 96.5426 74.5507 96.6359 74.388C96.7293 74.2227 96.8559 74.0933 97.0159 74C97.1786 73.904 97.3626 73.856 97.5679 73.856C97.7706 73.856 97.9519 73.904 98.1119 74C98.2746 74.0933 98.4026 74.2227 98.4959 74.388C98.5893 74.5507 98.6359 74.7373 98.6359 74.948C98.6359 75.1587 98.5893 75.3467 98.4959 75.512C98.4026 75.6747 98.2746 75.804 98.1119 75.9C97.9519 75.9933 97.7706 76.04 97.5679 76.04ZM97.5679 75.664C97.6933 75.664 97.8053 75.6333 97.9039 75.572C98.0026 75.508 98.0799 75.4227 98.1359 75.316C98.1919 75.2067 98.2186 75.084 98.2159 74.948C98.2186 74.8093 98.1919 74.6867 98.1359 74.58C98.0799 74.4707 98.0026 74.3853 97.9039 74.324C97.8053 74.2627 97.6933 74.232 97.5679 74.232C97.4426 74.232 97.3293 74.264 97.2279 74.328C97.1293 74.3893 97.0519 74.4747 96.9959 74.584C96.9399 74.6907 96.9133 74.812 96.9159 74.948C96.9133 75.084 96.9399 75.2067 96.9959 75.316C97.0519 75.4227 97.1293 75.508 97.2279 75.572C97.3293 75.6333 97.4426 75.664 97.5679 75.664ZM99.0849 76V73.9H99.4969V74.332L99.4249 74.38C99.4515 74.2867 99.5035 74.2013 99.5809 74.124C99.6582 74.044 99.7502 73.98 99.8569 73.932C99.9635 73.8813 100.073 73.856 100.185 73.856C100.345 73.856 100.478 73.888 100.585 73.952C100.692 74.0133 100.772 74.108 100.825 74.236C100.878 74.364 100.905 74.5253 100.905 74.72V76H100.493V74.748C100.493 74.628 100.477 74.5293 100.445 74.452C100.413 74.372 100.364 74.3147 100.297 74.28C100.23 74.2427 100.148 74.2267 100.049 74.232C99.9689 74.232 99.8955 74.2453 99.8289 74.272C99.7622 74.296 99.7035 74.3307 99.6529 74.376C99.6049 74.4213 99.5662 74.4747 99.5369 74.536C99.5102 74.5947 99.4969 74.6587 99.4969 74.728V76H99.2929C99.2582 76 99.2235 76 99.1889 76C99.1542 76 99.1195 76 99.0849 76ZM102.164 76.04C101.988 76.04 101.829 76.0093 101.688 75.948C101.546 75.8867 101.429 75.796 101.336 75.676L101.616 75.436C101.696 75.5293 101.782 75.5973 101.876 75.64C101.972 75.68 102.08 75.7 102.2 75.7C102.248 75.7 102.292 75.6947 102.332 75.684C102.374 75.6707 102.41 75.652 102.44 75.628C102.472 75.604 102.496 75.576 102.512 75.544C102.528 75.5093 102.536 75.472 102.536 75.432C102.536 75.3627 102.51 75.3067 102.46 75.264C102.433 75.2453 102.39 75.2253 102.332 75.204C102.276 75.18 102.202 75.156 102.112 75.132C101.957 75.092 101.83 75.0467 101.732 74.996C101.633 74.9453 101.557 74.888 101.504 74.824C101.464 74.7733 101.434 74.7187 101.416 74.66C101.397 74.5987 101.388 74.532 101.388 74.46C101.388 74.3427 101.421 74.2387 101.488 74.148C101.554 74.0573 101.644 73.9867 101.756 73.936C101.87 73.8827 101.998 73.856 102.14 73.856C102.238 73.856 102.336 73.8693 102.432 73.896C102.53 73.9227 102.621 73.9613 102.704 74.012C102.786 74.0627 102.856 74.1227 102.912 74.192L102.676 74.452C102.625 74.4013 102.569 74.3573 102.508 74.32C102.449 74.28 102.389 74.2493 102.328 74.228C102.266 74.2067 102.21 74.196 102.16 74.196C102.104 74.196 102.053 74.2013 102.008 74.212C101.962 74.2227 101.924 74.2387 101.892 74.26C101.862 74.2813 101.84 74.308 101.824 74.34C101.808 74.372 101.8 74.408 101.8 74.448C101.802 74.4827 101.81 74.516 101.824 74.548C101.84 74.5773 101.861 74.6027 101.888 74.624C101.917 74.6453 101.961 74.668 102.02 74.692C102.078 74.716 102.153 74.7387 102.244 74.76C102.377 74.7947 102.486 74.8333 102.572 74.876C102.66 74.916 102.729 74.9627 102.78 75.016C102.833 75.0667 102.87 75.1253 102.892 75.192C102.913 75.2587 102.924 75.3333 102.924 75.416C102.924 75.536 102.889 75.644 102.82 75.74C102.753 75.8333 102.662 75.9067 102.548 75.96C102.433 76.0133 102.305 76.04 102.164 76.04Z" fill="white"/>
<path d="M52.5557 92V89.9H52.8797V92H52.5557ZM52.6997 91.106V90.794H53.7827V91.106H52.6997ZM52.6997 90.212V89.9H53.9177V90.212H52.6997ZM54.9465 92.03C54.7925 92.03 54.6545 91.995 54.5325 91.925C54.4125 91.853 54.3175 91.756 54.2475 91.634C54.1775 91.51 54.1425 91.369 54.1425 91.211C54.1425 91.053 54.1775 90.913 54.2475 90.791C54.3175 90.667 54.4125 90.57 54.5325 90.5C54.6545 90.428 54.7925 90.392 54.9465 90.392C55.0985 90.392 55.2345 90.428 55.3545 90.5C55.4765 90.57 55.5725 90.667 55.6425 90.791C55.7125 90.913 55.7475 91.053 55.7475 91.211C55.7475 91.369 55.7125 91.51 55.6425 91.634C55.5725 91.756 55.4765 91.853 55.3545 91.925C55.2345 91.995 55.0985 92.03 54.9465 92.03ZM54.9465 91.748C55.0405 91.748 55.1245 91.725 55.1985 91.679C55.2725 91.631 55.3305 91.567 55.3725 91.487C55.4145 91.405 55.4345 91.313 55.4325 91.211C55.4345 91.107 55.4145 91.015 55.3725 90.935C55.3305 90.853 55.2725 90.789 55.1985 90.743C55.1245 90.697 55.0405 90.674 54.9465 90.674C54.8525 90.674 54.7675 90.698 54.6915 90.746C54.6175 90.792 54.5595 90.856 54.5175 90.938C54.4755 91.018 54.4555 91.109 54.4575 91.211C54.4555 91.313 54.4755 91.405 54.5175 91.487C54.5595 91.567 54.6175 91.631 54.6915 91.679C54.7675 91.725 54.8525 91.748 54.9465 91.748ZM56.7922 92.03C56.6382 92.03 56.5002 91.995 56.3782 91.925C56.2582 91.853 56.1632 91.756 56.0932 91.634C56.0232 91.51 55.9882 91.369 55.9882 91.211C55.9882 91.053 56.0232 90.913 56.0932 90.791C56.1632 90.667 56.2582 90.57 56.3782 90.5C56.5002 90.428 56.6382 90.392 56.7922 90.392C56.9442 90.392 57.0802 90.428 57.2002 90.5C57.3222 90.57 57.4182 90.667 57.4882 90.791C57.5582 90.913 57.5932 91.053 57.5932 91.211C57.5932 91.369 57.5582 91.51 57.4882 91.634C57.4182 91.756 57.3222 91.853 57.2002 91.925C57.0802 91.995 56.9442 92.03 56.7922 92.03ZM56.7922 91.748C56.8862 91.748 56.9702 91.725 57.0442 91.679C57.1182 91.631 57.1762 91.567 57.2182 91.487C57.2602 91.405 57.2802 91.313 57.2782 91.211C57.2802 91.107 57.2602 91.015 57.2182 90.935C57.1762 90.853 57.1182 90.789 57.0442 90.743C56.9702 90.697 56.8862 90.674 56.7922 90.674C56.6982 90.674 56.6132 90.698 56.5372 90.746C56.4632 90.792 56.4052 90.856 56.3632 90.938C56.3212 91.018 56.3012 91.109 56.3032 91.211C56.3012 91.313 56.3212 91.405 56.3632 91.487C56.4052 91.567 56.4632 91.631 56.5372 91.679C56.6132 91.725 56.6982 91.748 56.7922 91.748ZM58.1249 92V90.023H58.4339V92H58.1249ZM57.7979 90.725V90.425H58.7999V90.725H57.7979ZM59.0812 92.66V90.425H59.3932V90.785L59.3452 90.758C59.3572 90.698 59.3912 90.641 59.4472 90.587C59.5032 90.531 59.5712 90.486 59.6512 90.452C59.7332 90.416 59.8172 90.398 59.9032 90.398C60.0452 90.398 60.1712 90.433 60.2812 90.503C60.3912 90.573 60.4782 90.669 60.5422 90.791C60.6062 90.913 60.6382 91.053 60.6382 91.211C60.6382 91.367 60.6062 91.507 60.5422 91.631C60.4802 91.753 60.3942 91.85 60.2842 91.922C60.1742 91.992 60.0502 92.027 59.9122 92.027C59.8202 92.027 59.7312 92.009 59.6452 91.973C59.5592 91.935 59.4862 91.887 59.4262 91.829C59.3662 91.771 59.3292 91.711 59.3152 91.649L59.3932 91.607V92.66H59.0812ZM59.8612 91.742C59.9532 91.742 60.0352 91.719 60.1072 91.673C60.1792 91.627 60.2362 91.564 60.2782 91.484C60.3202 91.404 60.3412 91.313 60.3412 91.211C60.3412 91.109 60.3202 91.019 60.2782 90.941C60.2382 90.861 60.1822 90.798 60.1102 90.752C60.0382 90.706 59.9552 90.683 59.8612 90.683C59.7672 90.683 59.6842 90.706 59.6122 90.752C59.5402 90.796 59.4832 90.858 59.4412 90.938C59.3992 91.018 59.3782 91.109 59.3782 91.211C59.3782 91.313 59.3992 91.404 59.4412 91.484C59.4832 91.564 59.5402 91.627 59.6122 91.673C59.6842 91.719 59.7672 91.742 59.8612 91.742ZM60.9738 92V90.425H61.2858V90.92L61.2558 90.8C61.2778 90.724 61.3148 90.655 61.3668 90.593C61.4208 90.531 61.4818 90.482 61.5498 90.446C61.6198 90.41 61.6918 90.392 61.7658 90.392C61.7998 90.392 61.8318 90.395 61.8618 90.401C61.8938 90.407 61.9188 90.414 61.9368 90.422L61.8558 90.758C61.8318 90.748 61.8048 90.74 61.7748 90.734C61.7468 90.726 61.7188 90.722 61.6908 90.722C61.6368 90.722 61.5848 90.733 61.5348 90.755C61.4868 90.775 61.4438 90.804 61.4058 90.842C61.3698 90.878 61.3408 90.921 61.3188 90.971C61.2968 91.019 61.2858 91.072 61.2858 91.13V92H60.9738ZM62.2348 92V90.425H62.5438V92H62.2348ZM62.3848 90.077C62.3188 90.077 62.2678 90.06 62.2318 90.026C62.1958 89.992 62.1778 89.944 62.1778 89.882C62.1778 89.824 62.1958 89.777 62.2318 89.741C62.2698 89.705 62.3208 89.687 62.3848 89.687C62.4508 89.687 62.5018 89.704 62.5378 89.738C62.5738 89.772 62.5918 89.82 62.5918 89.882C62.5918 89.94 62.5728 89.987 62.5348 90.023C62.4988 90.059 62.4488 90.077 62.3848 90.077ZM63.0187 92V90.425H63.3277V90.749L63.2737 90.785C63.2937 90.715 63.3327 90.651 63.3907 90.593C63.4487 90.533 63.5177 90.485 63.5977 90.449C63.6777 90.411 63.7597 90.392 63.8437 90.392C63.9637 90.392 64.0637 90.416 64.1437 90.464C64.2237 90.51 64.2837 90.581 64.3237 90.677C64.3637 90.773 64.3837 90.894 64.3837 91.04V92H64.0747V91.061C64.0747 90.971 64.0627 90.897 64.0387 90.839C64.0147 90.779 63.9777 90.736 63.9277 90.71C63.8777 90.682 63.8157 90.67 63.7417 90.674C63.6817 90.674 63.6267 90.684 63.5767 90.704C63.5267 90.722 63.4827 90.748 63.4447 90.782C63.4087 90.816 63.3797 90.856 63.3577 90.902C63.3377 90.946 63.3277 90.994 63.3277 91.046V92H63.1747C63.1487 92 63.1227 92 63.0967 92C63.0707 92 63.0447 92 63.0187 92ZM64.9979 92V90.023H65.3069V92H64.9979ZM64.6709 90.725V90.425H65.6729V90.725H64.6709ZM39.0385 96.558C38.7945 96.406 38.6085 96.216 38.4805 95.988C38.3525 95.76 38.2885 95.506 38.2885 95.226C38.2885 94.948 38.3525 94.695 38.4805 94.467C38.6105 94.237 38.7975 94.046 39.0415 93.894L39.2065 94.08C39.0025 94.222 38.8465 94.392 38.7385 94.59C38.6325 94.786 38.5795 94.998 38.5795 95.226C38.5795 95.454 38.6325 95.667 38.7385 95.865C38.8465 96.061 39.0025 96.23 39.2065 96.372L39.0385 96.558ZM39.5341 96V94.425H39.8431V96H39.5341ZM39.6841 94.077C39.6181 94.077 39.5671 94.06 39.5311 94.026C39.4951 93.992 39.4771 93.944 39.4771 93.882C39.4771 93.824 39.4951 93.777 39.5311 93.741C39.5691 93.705 39.6201 93.687 39.6841 93.687C39.7501 93.687 39.8011 93.704 39.8371 93.738C39.8731 93.772 39.8911 93.82 39.8911 93.882C39.8911 93.94 39.8721 93.987 39.8341 94.023C39.7981 94.059 39.7481 94.077 39.6841 94.077ZM40.3121 96V94.425H40.6241V94.761L40.5671 94.797C40.5831 94.745 40.6081 94.695 40.6421 94.647C40.6781 94.599 40.7211 94.557 40.7711 94.521C40.8231 94.483 40.8781 94.453 40.9361 94.431C40.9961 94.409 41.0571 94.398 41.1191 94.398C41.2091 94.398 41.2881 94.413 41.3561 94.443C41.4241 94.473 41.4801 94.518 41.5241 94.578C41.5681 94.638 41.6001 94.713 41.6201 94.803L41.5721 94.791L41.5931 94.74C41.6151 94.694 41.6451 94.651 41.6831 94.611C41.7231 94.569 41.7681 94.532 41.8181 94.5C41.8681 94.468 41.9211 94.443 41.9771 94.425C42.0331 94.407 42.0881 94.398 42.1421 94.398C42.2601 94.398 42.3571 94.422 42.4331 94.47C42.5111 94.518 42.5691 94.591 42.6071 94.689C42.6471 94.787 42.6671 94.909 42.6671 95.055V96H42.3551V95.073C42.3551 94.939 42.3291 94.841 42.2771 94.779C42.2271 94.715 42.1481 94.683 42.0401 94.683C41.9841 94.683 41.9311 94.693 41.8811 94.713C41.8331 94.731 41.7911 94.757 41.7551 94.791C41.7191 94.825 41.6911 94.865 41.6711 94.911C41.6511 94.955 41.6411 95.004 41.6411 95.058V96H41.3291V95.067C41.3291 94.943 41.3021 94.848 41.2481 94.782C41.1961 94.716 41.1201 94.683 41.0201 94.683C40.9641 94.683 40.9121 94.693 40.8641 94.713C40.8161 94.731 40.7741 94.757 40.7381 94.791C40.7021 94.823 40.6741 94.862 40.6541 94.908C40.6341 94.952 40.6241 95 40.6241 95.052V96H40.3121ZM43.0807 96.66V94.425H43.3927V94.785L43.3447 94.758C43.3567 94.698 43.3907 94.641 43.4467 94.587C43.5027 94.531 43.5707 94.486 43.6507 94.452C43.7327 94.416 43.8167 94.398 43.9027 94.398C44.0447 94.398 44.1707 94.433 44.2807 94.503C44.3907 94.573 44.4777 94.669 44.5417 94.791C44.6057 94.913 44.6377 95.053 44.6377 95.211C44.6377 95.367 44.6057 95.507 44.5417 95.631C44.4797 95.753 44.3937 95.85 44.2837 95.922C44.1737 95.992 44.0497 96.027 43.9117 96.027C43.8197 96.027 43.7307 96.009 43.6447 95.973C43.5587 95.935 43.4857 95.887 43.4257 95.829C43.3657 95.771 43.3287 95.711 43.3147 95.649L43.3927 95.607V96.66H43.0807ZM43.8607 95.742C43.9527 95.742 44.0347 95.719 44.1067 95.673C44.1787 95.627 44.2357 95.564 44.2777 95.484C44.3197 95.404 44.3407 95.313 44.3407 95.211C44.3407 95.109 44.3197 95.019 44.2777 94.941C44.2377 94.861 44.1817 94.798 44.1097 94.752C44.0377 94.706 43.9547 94.683 43.8607 94.683C43.7667 94.683 43.6837 94.706 43.6117 94.752C43.5397 94.796 43.4827 94.858 43.4407 94.938C43.3987 95.018 43.3777 95.109 43.3777 95.211C43.3777 95.313 43.3987 95.404 43.4407 95.484C43.4827 95.564 43.5397 95.627 43.6117 95.673C43.6837 95.719 43.7667 95.742 43.8607 95.742ZM44.9793 96V93.78H45.2883V96H44.9793ZM46.432 96.03C46.27 96.03 46.126 95.996 46 95.928C45.876 95.858 45.778 95.763 45.706 95.643C45.636 95.523 45.601 95.385 45.601 95.229C45.601 95.105 45.621 94.992 45.661 94.89C45.701 94.788 45.756 94.7 45.826 94.626C45.898 94.55 45.983 94.492 46.081 94.452C46.181 94.41 46.289 94.389 46.405 94.389C46.507 94.389 46.602 94.409 46.69 94.449C46.778 94.487 46.854 94.54 46.918 94.608C46.984 94.676 47.034 94.757 47.068 94.851C47.104 94.943 47.121 95.044 47.119 95.154L47.116 95.286H45.829L45.76 95.04H46.849L46.804 95.091V95.019C46.798 94.953 46.776 94.894 46.738 94.842C46.7 94.79 46.652 94.749 46.594 94.719C46.536 94.689 46.473 94.674 46.405 94.674C46.297 94.674 46.206 94.695 46.132 94.737C46.058 94.777 46.002 94.837 45.964 94.917C45.926 94.995 45.907 95.092 45.907 95.208C45.907 95.318 45.93 95.414 45.976 95.496C46.022 95.576 46.087 95.638 46.171 95.682C46.255 95.726 46.352 95.748 46.462 95.748C46.54 95.748 46.612 95.735 46.678 95.709C46.746 95.683 46.819 95.636 46.897 95.568L47.053 95.787C47.005 95.835 46.946 95.877 46.876 95.913C46.808 95.949 46.735 95.978 46.657 96C46.581 96.02 46.506 96.03 46.432 96.03ZM47.4488 96V94.425H47.7608V94.761L47.7038 94.797C47.7198 94.745 47.7448 94.695 47.7788 94.647C47.8148 94.599 47.8578 94.557 47.9078 94.521C47.9598 94.483 48.0148 94.453 48.0728 94.431C48.1328 94.409 48.1938 94.398 48.2558 94.398C48.3458 94.398 48.4248 94.413 48.4928 94.443C48.5608 94.473 48.6168 94.518 48.6608 94.578C48.7048 94.638 48.7368 94.713 48.7568 94.803L48.7088 94.791L48.7298 94.74C48.7518 94.694 48.7818 94.651 48.8198 94.611C48.8598 94.569 48.9048 94.532 48.9548 94.5C49.0048 94.468 49.0578 94.443 49.1138 94.425C49.1698 94.407 49.2248 94.398 49.2788 94.398C49.3968 94.398 49.4938 94.422 49.5698 94.47C49.6478 94.518 49.7058 94.591 49.7438 94.689C49.7838 94.787 49.8038 94.909 49.8038 95.055V96H49.4918V95.073C49.4918 94.939 49.4658 94.841 49.4138 94.779C49.3638 94.715 49.2848 94.683 49.1768 94.683C49.1208 94.683 49.0678 94.693 49.0178 94.713C48.9698 94.731 48.9278 94.757 48.8918 94.791C48.8558 94.825 48.8278 94.865 48.8078 94.911C48.7878 94.955 48.7778 95.004 48.7778 95.058V96H48.4658V95.067C48.4658 94.943 48.4388 94.848 48.3848 94.782C48.3328 94.716 48.2568 94.683 48.1568 94.683C48.1008 94.683 48.0488 94.693 48.0008 94.713C47.9528 94.731 47.9108 94.757 47.8748 94.791C47.8388 94.823 47.8108 94.862 47.7908 94.908C47.7708 94.952 47.7608 95 47.7608 95.052V96H47.4488ZM50.9525 96.03C50.7905 96.03 50.6465 95.996 50.5205 95.928C50.3965 95.858 50.2985 95.763 50.2265 95.643C50.1565 95.523 50.1215 95.385 50.1215 95.229C50.1215 95.105 50.1415 94.992 50.1815 94.89C50.2215 94.788 50.2765 94.7 50.3465 94.626C50.4185 94.55 50.5035 94.492 50.6015 94.452C50.7015 94.41 50.8095 94.389 50.9255 94.389C51.0275 94.389 51.1225 94.409 51.2105 94.449C51.2985 94.487 51.3745 94.54 51.4385 94.608C51.5045 94.676 51.5545 94.757 51.5885 94.851C51.6245 94.943 51.6415 95.044 51.6395 95.154L51.6365 95.286H50.3495L50.2805 95.04H51.3695L51.3245 95.091V95.019C51.3185 94.953 51.2965 94.894 51.2585 94.842C51.2205 94.79 51.1725 94.749 51.1145 94.719C51.0565 94.689 50.9935 94.674 50.9255 94.674C50.8175 94.674 50.7265 94.695 50.6525 94.737C50.5785 94.777 50.5225 94.837 50.4845 94.917C50.4465 94.995 50.4275 95.092 50.4275 95.208C50.4275 95.318 50.4505 95.414 50.4965 95.496C50.5425 95.576 50.6075 95.638 50.6915 95.682C50.7755 95.726 50.8725 95.748 50.9825 95.748C51.0605 95.748 51.1325 95.735 51.1985 95.709C51.2665 95.683 51.3395 95.636 51.4175 95.568L51.5735 95.787C51.5255 95.835 51.4665 95.877 51.3965 95.913C51.3285 95.949 51.2555 95.978 51.1775 96C51.1015 96.02 51.0265 96.03 50.9525 96.03ZM51.9753 96V94.425H52.2843V94.749L52.2303 94.785C52.2503 94.715 52.2893 94.651 52.3473 94.593C52.4053 94.533 52.4743 94.485 52.5543 94.449C52.6343 94.411 52.7163 94.392 52.8003 94.392C52.9203 94.392 53.0203 94.416 53.1003 94.464C53.1803 94.51 53.2403 94.581 53.2803 94.677C53.3203 94.773 53.3403 94.894 53.3403 95.04V96H53.0313V95.061C53.0313 94.971 53.0193 94.897 52.9953 94.839C52.9713 94.779 52.9343 94.736 52.8843 94.71C52.8343 94.682 52.7723 94.67 52.6983 94.674C52.6383 94.674 52.5833 94.684 52.5333 94.704C52.4833 94.722 52.4393 94.748 52.4013 94.782C52.3653 94.816 52.3363 94.856 52.3143 94.902C52.2943 94.946 52.2843 94.994 52.2843 95.046V96H52.1313C52.1053 96 52.0793 96 52.0533 96C52.0273 96 52.0013 96 51.9753 96ZM53.9545 96V94.023H54.2635V96H53.9545ZM53.6275 94.725V94.425H54.6295V94.725H53.6275ZM55.8292 96V94.974C55.8292 94.886 55.7972 94.815 55.7332 94.761C55.6712 94.705 55.5922 94.677 55.4962 94.677C55.4082 94.677 55.3282 94.695 55.2562 94.731C55.1862 94.767 55.1222 94.822 55.0642 94.896L54.8632 94.695C54.9572 94.593 55.0582 94.517 55.1662 94.467C55.2762 94.417 55.3942 94.392 55.5202 94.392C55.6402 94.392 55.7442 94.412 55.8322 94.452C55.9202 94.492 55.9882 94.551 56.0362 94.629C56.0842 94.705 56.1082 94.798 56.1082 94.908V96H55.8292ZM55.3582 96.03C55.2562 96.03 55.1652 96.01 55.0852 95.97C55.0052 95.93 54.9412 95.875 54.8932 95.805C54.8472 95.733 54.8242 95.649 54.8242 95.553C54.8242 95.469 54.8392 95.395 54.8692 95.331C54.8992 95.267 54.9432 95.214 55.0012 95.172C55.0612 95.13 55.1352 95.098 55.2232 95.076C55.3132 95.054 55.4162 95.043 55.5322 95.043H55.9702L55.9432 95.289H55.4932C55.4332 95.289 55.3792 95.295 55.3312 95.307C55.2852 95.317 55.2452 95.334 55.2112 95.358C55.1792 95.38 55.1552 95.407 55.1392 95.439C55.1232 95.469 55.1152 95.505 55.1152 95.547C55.1152 95.591 55.1262 95.63 55.1482 95.664C55.1702 95.696 55.2002 95.721 55.2382 95.739C55.2762 95.757 55.3202 95.766 55.3702 95.766C55.4422 95.766 55.5102 95.754 55.5742 95.73C55.6402 95.704 55.6982 95.669 55.7482 95.625C55.8002 95.581 55.8402 95.532 55.8682 95.478L55.9402 95.679C55.8982 95.749 55.8462 95.81 55.7842 95.862C55.7222 95.914 55.6552 95.955 55.5832 95.985C55.5112 96.015 55.4362 96.03 55.3582 96.03ZM56.6937 96V94.023H57.0027V96H56.6937ZM56.3667 94.725V94.425H57.3687V94.725H56.3667ZM57.7011 96V94.425H58.0101V96H57.7011ZM57.8511 94.077C57.7851 94.077 57.7341 94.06 57.6981 94.026C57.6621 93.992 57.6441 93.944 57.6441 93.882C57.6441 93.824 57.6621 93.777 57.6981 93.741C57.7361 93.705 57.7871 93.687 57.8511 93.687C57.9171 93.687 57.9681 93.704 58.0041 93.738C58.0401 93.772 58.0581 93.82 58.0581 93.882C58.0581 93.94 58.0391 93.987 58.0011 94.023C57.9651 94.059 57.9151 94.077 57.8511 94.077ZM59.193 96.03C59.039 96.03 58.901 95.995 58.779 95.925C58.659 95.853 58.564 95.756 58.494 95.634C58.424 95.51 58.389 95.369 58.389 95.211C58.389 95.053 58.424 94.913 58.494 94.791C58.564 94.667 58.659 94.57 58.779 94.5C58.901 94.428 59.039 94.392 59.193 94.392C59.345 94.392 59.481 94.428 59.601 94.5C59.723 94.57 59.819 94.667 59.889 94.791C59.959 94.913 59.994 95.053 59.994 95.211C59.994 95.369 59.959 95.51 59.889 95.634C59.819 95.756 59.723 95.853 59.601 95.925C59.481 95.995 59.345 96.03 59.193 96.03ZM59.193 95.748C59.287 95.748 59.371 95.725 59.445 95.679C59.519 95.631 59.577 95.567 59.619 95.487C59.661 95.405 59.681 95.313 59.679 95.211C59.681 95.107 59.661 95.015 59.619 94.935C59.577 94.853 59.519 94.789 59.445 94.743C59.371 94.697 59.287 94.674 59.193 94.674C59.099 94.674 59.014 94.698 58.938 94.746C58.864 94.792 58.806 94.856 58.764 94.938C58.722 95.018 58.702 95.109 58.704 95.211C58.702 95.313 58.722 95.405 58.764 95.487C58.806 95.567 58.864 95.631 58.938 95.679C59.014 95.725 59.099 95.748 59.193 95.748ZM60.3307 96V94.425H60.6397V94.749L60.5857 94.785C60.6057 94.715 60.6447 94.651 60.7027 94.593C60.7607 94.533 60.8297 94.485 60.9097 94.449C60.9897 94.411 61.0717 94.392 61.1557 94.392C61.2757 94.392 61.3757 94.416 61.4557 94.464C61.5357 94.51 61.5957 94.581 61.6357 94.677C61.6757 94.773 61.6957 94.894 61.6957 95.04V96H61.3867V95.061C61.3867 94.971 61.3747 94.897 61.3507 94.839C61.3267 94.779 61.2897 94.736 61.2397 94.71C61.1897 94.682 61.1277 94.67 61.0537 94.674C60.9937 94.674 60.9387 94.684 60.8887 94.704C60.8387 94.722 60.7947 94.748 60.7567 94.782C60.7207 94.816 60.6917 94.856 60.6697 94.902C60.6497 94.946 60.6397 94.994 60.6397 95.046V96H60.4867C60.4607 96 60.4347 96 60.4087 96C60.3827 96 60.3567 96 60.3307 96ZM63.6247 96.03C63.4787 96.03 63.3477 95.994 63.2317 95.922C63.1177 95.85 63.0267 95.752 62.9587 95.628C62.8927 95.504 62.8597 95.365 62.8597 95.211C62.8597 95.057 62.8927 94.918 62.9587 94.794C63.0267 94.67 63.1177 94.572 63.2317 94.5C63.3477 94.428 63.4787 94.392 63.6247 94.392C63.7647 94.392 63.8917 94.421 64.0057 94.479C64.1217 94.535 64.2097 94.612 64.2697 94.71L64.0987 94.92C64.0667 94.874 64.0257 94.832 63.9757 94.794C63.9257 94.756 63.8727 94.726 63.8167 94.704C63.7607 94.682 63.7067 94.671 63.6547 94.671C63.5587 94.671 63.4727 94.695 63.3967 94.743C63.3227 94.789 63.2637 94.853 63.2197 94.935C63.1757 95.017 63.1537 95.109 63.1537 95.211C63.1537 95.313 63.1767 95.405 63.2227 95.487C63.2687 95.567 63.3297 95.631 63.4057 95.679C63.4817 95.727 63.5657 95.751 63.6577 95.751C63.7117 95.751 63.7637 95.742 63.8137 95.724C63.8657 95.706 63.9157 95.679 63.9637 95.643C64.0117 95.607 64.0567 95.563 64.0987 95.511L64.2697 95.721C64.2057 95.811 64.1137 95.885 63.9937 95.943C63.8757 96.001 63.7527 96.03 63.6247 96.03ZM65.2692 96.03C65.1152 96.03 64.9772 95.995 64.8552 95.925C64.7352 95.853 64.6402 95.756 64.5702 95.634C64.5002 95.51 64.4652 95.369 64.4652 95.211C64.4652 95.053 64.5002 94.913 64.5702 94.791C64.6402 94.667 64.7352 94.57 64.8552 94.5C64.9772 94.428 65.1152 94.392 65.2692 94.392C65.4212 94.392 65.5572 94.428 65.6772 94.5C65.7992 94.57 65.8952 94.667 65.9652 94.791C66.0352 94.913 66.0702 95.053 66.0702 95.211C66.0702 95.369 66.0352 95.51 65.9652 95.634C65.8952 95.756 65.7992 95.853 65.6772 95.925C65.5572 95.995 65.4212 96.03 65.2692 96.03ZM65.2692 95.748C65.3632 95.748 65.4472 95.725 65.5212 95.679C65.5952 95.631 65.6532 95.567 65.6952 95.487C65.7372 95.405 65.7572 95.313 65.7552 95.211C65.7572 95.107 65.7372 95.015 65.6952 94.935C65.6532 94.853 65.5952 94.789 65.5212 94.743C65.4472 94.697 65.3632 94.674 65.2692 94.674C65.1752 94.674 65.0902 94.698 65.0142 94.746C64.9402 94.792 64.8822 94.856 64.8402 94.938C64.7982 95.018 64.7782 95.109 64.7802 95.211C64.7782 95.313 64.7982 95.405 64.8402 95.487C64.8822 95.567 64.9402 95.631 65.0142 95.679C65.0902 95.725 65.1752 95.748 65.2692 95.748ZM66.4009 96V94.425H66.7129V94.761L66.6559 94.797C66.6719 94.745 66.6969 94.695 66.7309 94.647C66.7669 94.599 66.8099 94.557 66.8599 94.521C66.9119 94.483 66.9669 94.453 67.0249 94.431C67.0849 94.409 67.1459 94.398 67.2079 94.398C67.2979 94.398 67.3769 94.413 67.4449 94.443C67.5129 94.473 67.5689 94.518 67.6129 94.578C67.6569 94.638 67.6889 94.713 67.7089 94.803L67.6609 94.791L67.6819 94.74C67.7039 94.694 67.7339 94.651 67.7719 94.611C67.8119 94.569 67.8569 94.532 67.9069 94.5C67.9569 94.468 68.0099 94.443 68.0659 94.425C68.1219 94.407 68.1769 94.398 68.2309 94.398C68.3489 94.398 68.4459 94.422 68.5219 94.47C68.5999 94.518 68.6579 94.591 68.6959 94.689C68.7359 94.787 68.7559 94.909 68.7559 95.055V96H68.4439V95.073C68.4439 94.939 68.4179 94.841 68.3659 94.779C68.3159 94.715 68.2369 94.683 68.1289 94.683C68.0729 94.683 68.0199 94.693 67.9699 94.713C67.9219 94.731 67.8799 94.757 67.8439 94.791C67.8079 94.825 67.7799 94.865 67.7599 94.911C67.7399 94.955 67.7299 95.004 67.7299 95.058V96H67.4179V95.067C67.4179 94.943 67.3909 94.848 67.3369 94.782C67.2849 94.716 67.2089 94.683 67.1089 94.683C67.0529 94.683 67.0009 94.693 66.9529 94.713C66.9049 94.731 66.8629 94.757 66.8269 94.791C66.7909 94.823 66.7629 94.862 66.7429 94.908C66.7229 94.952 66.7129 95 66.7129 95.052V96H66.4009ZM69.1696 96.66V94.425H69.4816V94.785L69.4336 94.758C69.4456 94.698 69.4796 94.641 69.5356 94.587C69.5916 94.531 69.6596 94.486 69.7396 94.452C69.8216 94.416 69.9056 94.398 69.9916 94.398C70.1336 94.398 70.2596 94.433 70.3696 94.503C70.4796 94.573 70.5666 94.669 70.6306 94.791C70.6946 94.913 70.7266 95.053 70.7266 95.211C70.7266 95.367 70.6946 95.507 70.6306 95.631C70.5686 95.753 70.4826 95.85 70.3726 95.922C70.2626 95.992 70.1386 96.027 70.0006 96.027C69.9086 96.027 69.8196 96.009 69.7336 95.973C69.6476 95.935 69.5746 95.887 69.5146 95.829C69.4546 95.771 69.4176 95.711 69.4036 95.649L69.4816 95.607V96.66H69.1696ZM69.9496 95.742C70.0416 95.742 70.1236 95.719 70.1956 95.673C70.2676 95.627 70.3246 95.564 70.3666 95.484C70.4086 95.404 70.4296 95.313 70.4296 95.211C70.4296 95.109 70.4086 95.019 70.3666 94.941C70.3266 94.861 70.2706 94.798 70.1986 94.752C70.1266 94.706 70.0436 94.683 69.9496 94.683C69.8556 94.683 69.7726 94.706 69.7006 94.752C69.6286 94.796 69.5716 94.858 69.5296 94.938C69.4876 95.018 69.4666 95.109 69.4666 95.211C69.4666 95.313 69.4876 95.404 69.5296 95.484C69.5716 95.564 69.6286 95.627 69.7006 95.673C69.7726 95.719 69.8556 95.742 69.9496 95.742ZM71.0682 96V93.78H71.3772V96H71.0682ZM72.5208 96.03C72.3588 96.03 72.2148 95.996 72.0888 95.928C71.9648 95.858 71.8668 95.763 71.7948 95.643C71.7248 95.523 71.6898 95.385 71.6898 95.229C71.6898 95.105 71.7098 94.992 71.7498 94.89C71.7898 94.788 71.8448 94.7 71.9148 94.626C71.9868 94.55 72.0718 94.492 72.1698 94.452C72.2698 94.41 72.3778 94.389 72.4938 94.389C72.5958 94.389 72.6908 94.409 72.7788 94.449C72.8668 94.487 72.9428 94.54 73.0068 94.608C73.0728 94.676 73.1228 94.757 73.1568 94.851C73.1928 94.943 73.2098 95.044 73.2078 95.154L73.2048 95.286H71.9178L71.8488 95.04H72.9378L72.8928 95.091V95.019C72.8868 94.953 72.8648 94.894 72.8268 94.842C72.7888 94.79 72.7408 94.749 72.6828 94.719C72.6248 94.689 72.5618 94.674 72.4938 94.674C72.3858 94.674 72.2948 94.695 72.2208 94.737C72.1468 94.777 72.0908 94.837 72.0528 94.917C72.0148 94.995 71.9958 95.092 71.9958 95.208C71.9958 95.318 72.0188 95.414 72.0648 95.496C72.1108 95.576 72.1758 95.638 72.2598 95.682C72.3438 95.726 72.4408 95.748 72.5508 95.748C72.6288 95.748 72.7008 95.735 72.7668 95.709C72.8348 95.683 72.9078 95.636 72.9858 95.568L73.1418 95.787C73.0938 95.835 73.0348 95.877 72.9648 95.913C72.8968 95.949 72.8238 95.978 72.7458 96C72.6698 96.02 72.5948 96.03 72.5208 96.03ZM74.5818 96L74.0718 95.337L74.0268 95.28L73.3638 94.425H73.7538L74.2548 95.079L74.3058 95.145L74.9598 96H74.5818ZM73.3668 96L73.9878 95.19L74.1708 95.409L73.7328 96H73.3668ZM74.3238 95.238L74.1528 95.022L74.5398 94.425H74.9058L74.3238 95.238ZM75.2704 96V94.425H75.5794V96H75.2704ZM75.4204 94.077C75.3544 94.077 75.3034 94.06 75.2674 94.026C75.2314 93.992 75.2134 93.944 75.2134 93.882C75.2134 93.824 75.2314 93.777 75.2674 93.741C75.3054 93.705 75.3564 93.687 75.4204 93.687C75.4864 93.687 75.5374 93.704 75.5734 93.738C75.6094 93.772 75.6274 93.82 75.6274 93.882C75.6274 93.94 75.6084 93.987 75.5704 94.023C75.5344 94.059 75.4844 94.077 75.4204 94.077ZM76.2494 96V94.023H76.5584V96H76.2494ZM75.9224 94.725V94.425H76.9244V94.725H75.9224ZM77.4697 96.69L77.7877 95.955L77.7907 96.201L77.0047 94.425H77.3647L77.8567 95.583C77.8667 95.603 77.8787 95.634 77.8927 95.676C77.9067 95.716 77.9187 95.756 77.9287 95.796L77.8507 95.814C77.8667 95.772 77.8817 95.73 77.8957 95.688C77.9117 95.646 77.9267 95.604 77.9407 95.562L78.3517 94.425H78.7177L78.0697 96L77.8027 96.69H77.4697ZM78.9579 96.558L78.7929 96.372C78.9969 96.23 79.1519 96.061 79.2579 95.865C79.3659 95.667 79.4199 95.454 79.4199 95.226C79.4199 94.998 79.3659 94.786 79.2579 94.59C79.1519 94.392 78.9969 94.222 78.7929 94.08L78.9609 93.894C79.2049 94.046 79.3909 94.236 79.5189 94.464C79.6469 94.692 79.7109 94.946 79.7109 95.226C79.7109 95.504 79.6459 95.758 79.5159 95.988C79.3879 96.216 79.2019 96.406 78.9579 96.558Z" fill="white"/>
<path d="M72.216 59L71.096 56.2H71.588L72.256 57.9C72.288 57.9827 72.316 58.0573 72.34 58.124C72.3667 58.1907 72.3893 58.252 72.408 58.308C72.4267 58.3613 72.444 58.412 72.46 58.46C72.476 58.508 72.492 58.556 72.508 58.604L72.404 58.608C72.4227 58.544 72.4427 58.4773 72.464 58.408C72.4853 58.3387 72.5093 58.2627 72.536 58.18C72.5653 58.0973 72.6 58.004 72.64 57.9L73.26 56.2H73.764L72.636 59H72.216ZM74.2514 59V56.2H74.6754L75.6954 57.86L75.4914 57.856L76.5234 56.2H76.9234V59H76.4914V57.852C76.4914 57.612 76.4967 57.396 76.5074 57.204C76.5207 57.012 76.542 56.8213 76.5714 56.632L76.6274 56.78L75.7114 58.196H75.4474L74.5594 56.796L74.6034 56.632C74.6327 56.8107 74.6527 56.9947 74.6634 57.184C74.6767 57.3707 74.6834 57.5933 74.6834 57.852V59H74.2514Z" fill="white"/>
<path d="M51.1857 22.04C50.9564 22.04 50.7537 21.9947 50.5777 21.904C50.4044 21.8133 50.255 21.6773 50.1297 21.496L50.4257 21.156C50.5564 21.3427 50.6817 21.472 50.8017 21.544C50.9217 21.616 51.0644 21.652 51.2297 21.652C51.331 21.652 51.423 21.636 51.5057 21.604C51.5884 21.572 51.6537 21.528 51.7017 21.472C51.7497 21.416 51.7737 21.352 51.7737 21.28C51.7737 21.232 51.7657 21.1867 51.7497 21.144C51.7337 21.1013 51.7084 21.0627 51.6737 21.028C51.6417 20.9933 51.599 20.9613 51.5457 20.932C51.495 20.9027 51.435 20.8773 51.3657 20.856C51.2964 20.832 51.2164 20.812 51.1257 20.796C50.9817 20.7667 50.8564 20.728 50.7497 20.68C50.643 20.632 50.5537 20.572 50.4817 20.5C50.4097 20.428 50.3564 20.3467 50.3217 20.256C50.287 20.1627 50.2697 20.0587 50.2697 19.944C50.2697 19.792 50.3124 19.6573 50.3977 19.54C50.483 19.4227 50.5977 19.3307 50.7417 19.264C50.8884 19.1947 51.0524 19.16 51.2337 19.16C51.4497 19.16 51.6377 19.2027 51.7977 19.288C51.9604 19.3707 52.0884 19.492 52.1817 19.652L51.8777 19.952C51.7977 19.8213 51.7017 19.7213 51.5897 19.652C51.4804 19.5827 51.3577 19.548 51.2217 19.548C51.1177 19.548 51.027 19.564 50.9497 19.596C50.8724 19.628 50.811 19.6733 50.7657 19.732C50.723 19.788 50.7017 19.8547 50.7017 19.932C50.7017 19.988 50.7124 20.04 50.7337 20.088C50.755 20.1333 50.787 20.1747 50.8297 20.212C50.875 20.2467 50.935 20.2787 51.0097 20.308C51.0844 20.3347 51.1737 20.3587 51.2777 20.38C51.4244 20.412 51.555 20.4533 51.6697 20.504C51.7844 20.552 51.8817 20.6093 51.9617 20.676C52.0417 20.7427 52.1017 20.8173 52.1417 20.9C52.1844 20.9827 52.2057 21.072 52.2057 21.168C52.2057 21.3467 52.1644 21.5013 52.0817 21.632C51.999 21.7627 51.8817 21.864 51.7297 21.936C51.5777 22.0053 51.3964 22.04 51.1857 22.04ZM53.6578 22.04C53.4524 22.04 53.2684 21.9933 53.1058 21.9C52.9458 21.804 52.8191 21.6747 52.7258 21.512C52.6324 21.3467 52.5858 21.1587 52.5858 20.948C52.5858 20.7373 52.6324 20.5507 52.7258 20.388C52.8191 20.2227 52.9458 20.0933 53.1058 20C53.2684 19.904 53.4524 19.856 53.6578 19.856C53.8604 19.856 54.0418 19.904 54.2018 20C54.3644 20.0933 54.4924 20.2227 54.5858 20.388C54.6791 20.5507 54.7258 20.7373 54.7258 20.948C54.7258 21.1587 54.6791 21.3467 54.5858 21.512C54.4924 21.6747 54.3644 21.804 54.2018 21.9C54.0418 21.9933 53.8604 22.04 53.6578 22.04ZM53.6578 21.664C53.7831 21.664 53.8951 21.6333 53.9938 21.572C54.0924 21.508 54.1698 21.4227 54.2258 21.316C54.2818 21.2067 54.3084 21.084 54.3058 20.948C54.3084 20.8093 54.2818 20.6867 54.2258 20.58C54.1698 20.4707 54.0924 20.3853 53.9938 20.324C53.8951 20.2627 53.7831 20.232 53.6578 20.232C53.5324 20.232 53.4191 20.264 53.3178 20.328C53.2191 20.3893 53.1418 20.4747 53.0858 20.584C53.0298 20.6907 53.0031 20.812 53.0058 20.948C53.0031 21.084 53.0298 21.2067 53.0858 21.316C53.1418 21.4227 53.2191 21.508 53.3178 21.572C53.4191 21.6333 53.5324 21.664 53.6578 21.664ZM55.3246 22V19.664C55.3246 19.544 55.3513 19.4373 55.4046 19.344C55.4579 19.2507 55.5313 19.1773 55.6246 19.124C55.7179 19.0707 55.8259 19.044 55.9486 19.044C56.0339 19.044 56.1139 19.06 56.1886 19.092C56.2633 19.124 56.3233 19.1667 56.3686 19.22L56.2286 19.536C56.1939 19.504 56.1553 19.4787 56.1126 19.46C56.0726 19.4387 56.0339 19.428 55.9966 19.428C55.9406 19.428 55.8926 19.4373 55.8526 19.456C55.8153 19.472 55.7873 19.4987 55.7686 19.536C55.7499 19.5707 55.7406 19.6133 55.7406 19.664V22H55.5326C55.4979 22 55.4633 22 55.4286 22C55.3939 22 55.3593 22 55.3246 22ZM54.9886 20.316V19.936H56.2366V20.316H54.9886ZM56.9386 22V19.364H57.3506V22H56.9386ZM56.5026 20.3V19.9H57.8386V20.3H56.5026ZM58.7298 22L58.0138 19.9L58.4298 19.896L58.9418 21.468L58.8498 21.46L59.4058 20.232H59.6538L60.2138 21.464L60.1058 21.472L60.6218 19.9H61.0378L60.3298 22H60.0458L59.4618 20.664L59.5538 20.676L59.0098 22H58.7298ZM62.5984 22V20.632C62.5984 20.5147 62.5557 20.42 62.4704 20.348C62.3877 20.2733 62.2824 20.236 62.1544 20.236C62.0371 20.236 61.9304 20.26 61.8344 20.308C61.7411 20.356 61.6557 20.4293 61.5784 20.528L61.3104 20.26C61.4357 20.124 61.5704 20.0227 61.7144 19.956C61.8611 19.8893 62.0184 19.856 62.1864 19.856C62.3464 19.856 62.4851 19.8827 62.6024 19.936C62.7197 19.9893 62.8104 20.068 62.8744 20.172C62.9384 20.2733 62.9704 20.3973 62.9704 20.544V22H62.5984ZM61.9704 22.04C61.8344 22.04 61.7131 22.0133 61.6064 21.96C61.4997 21.9067 61.4144 21.8333 61.3504 21.74C61.2891 21.644 61.2584 21.532 61.2584 21.404C61.2584 21.292 61.2784 21.1933 61.3184 21.108C61.3584 21.0227 61.4171 20.952 61.4944 20.896C61.5744 20.84 61.6731 20.7973 61.7904 20.768C61.9104 20.7387 62.0477 20.724 62.2024 20.724H62.7864L62.7504 21.052H62.1504C62.0704 21.052 61.9984 21.06 61.9344 21.076C61.8731 21.0893 61.8197 21.112 61.7744 21.144C61.7317 21.1733 61.6997 21.2093 61.6784 21.252C61.6571 21.292 61.6464 21.34 61.6464 21.396C61.6464 21.4547 61.6611 21.5067 61.6904 21.552C61.7197 21.5947 61.7597 21.628 61.8104 21.652C61.8611 21.676 61.9197 21.688 61.9864 21.688C62.0824 21.688 62.1731 21.672 62.2584 21.64C62.3464 21.6053 62.4237 21.5587 62.4904 21.5C62.5597 21.4413 62.6131 21.376 62.6504 21.304L62.7464 21.572C62.6904 21.6653 62.6211 21.7467 62.5384 21.816C62.4557 21.8853 62.3664 21.94 62.2704 21.98C62.1744 22.02 62.0744 22.04 61.9704 22.04ZM63.4911 22V19.9H63.9071V20.56L63.8671 20.4C63.8965 20.2987 63.9458 20.2067 64.0151 20.124C64.0871 20.0413 64.1685 19.976 64.2591 19.928C64.3525 19.88 64.4485 19.856 64.5471 19.856C64.5925 19.856 64.6351 19.86 64.6751 19.868C64.7178 19.876 64.7511 19.8853 64.7751 19.896L64.6671 20.344C64.6351 20.3307 64.5991 20.32 64.5591 20.312C64.5218 20.3013 64.4845 20.296 64.4471 20.296C64.3751 20.296 64.3058 20.3107 64.2391 20.34C64.1751 20.3667 64.1178 20.4053 64.0671 20.456C64.0191 20.504 63.9805 20.5613 63.9511 20.628C63.9218 20.692 63.9071 20.7627 63.9071 20.84V22H63.4911ZM65.9946 22.04C65.7786 22.04 65.5866 21.9947 65.4186 21.904C65.2532 21.8107 65.1226 21.684 65.0266 21.524C64.9332 21.364 64.8866 21.18 64.8866 20.972C64.8866 20.8067 64.9132 20.656 64.9666 20.52C65.0199 20.384 65.0932 20.2667 65.1866 20.168C65.2826 20.0667 65.3959 19.9893 65.5266 19.936C65.6599 19.88 65.8039 19.852 65.9586 19.852C66.0946 19.852 66.2212 19.8787 66.3386 19.932C66.4559 19.9827 66.5572 20.0533 66.6426 20.144C66.7306 20.2347 66.7972 20.3427 66.8426 20.468C66.8906 20.5907 66.9132 20.7253 66.9106 20.872L66.9066 21.048H65.1906L65.0986 20.72H66.5506L66.4906 20.788V20.692C66.4826 20.604 66.4532 20.5253 66.4026 20.456C66.3519 20.3867 66.2879 20.332 66.2106 20.292C66.1332 20.252 66.0492 20.232 65.9586 20.232C65.8146 20.232 65.6932 20.26 65.5946 20.316C65.4959 20.3693 65.4212 20.4493 65.3706 20.556C65.3199 20.66 65.2946 20.7893 65.2946 20.944C65.2946 21.0907 65.3252 21.2187 65.3866 21.328C65.4479 21.4347 65.5346 21.5173 65.6466 21.576C65.7586 21.6347 65.8879 21.664 66.0346 21.664C66.1386 21.664 66.2346 21.6467 66.3226 21.612C66.4132 21.5773 66.5106 21.5147 66.6146 21.424L66.8226 21.716C66.7586 21.78 66.6799 21.836 66.5866 21.884C66.4959 21.932 66.3986 21.9707 66.2946 22C66.1932 22.0267 66.0932 22.04 65.9946 22.04ZM49.4672 27.04C49.2512 27.04 49.0592 26.9947 48.8912 26.904C48.7259 26.8107 48.5952 26.684 48.4992 26.524C48.4059 26.364 48.3592 26.18 48.3592 25.972C48.3592 25.8067 48.3859 25.656 48.4392 25.52C48.4926 25.384 48.5659 25.2667 48.6592 25.168C48.7552 25.0667 48.8686 24.9893 48.9992 24.936C49.1326 24.88 49.2766 24.852 49.4312 24.852C49.5672 24.852 49.6939 24.8787 49.8112 24.932C49.9286 24.9827 50.0299 25.0533 50.1152 25.144C50.2032 25.2347 50.2699 25.3427 50.3152 25.468C50.3632 25.5907 50.3859 25.7253 50.3832 25.872L50.3792 26.048H48.6632L48.5712 25.72H50.0232L49.9632 25.788V25.692C49.9552 25.604 49.9259 25.5253 49.8752 25.456C49.8246 25.3867 49.7606 25.332 49.6832 25.292C49.6059 25.252 49.5219 25.232 49.4312 25.232C49.2872 25.232 49.1659 25.26 49.0672 25.316C48.9686 25.3693 48.8939 25.4493 48.8432 25.556C48.7926 25.66 48.7672 25.7893 48.7672 25.944C48.7672 26.0907 48.7979 26.2187 48.8592 26.328C48.9206 26.4347 49.0072 26.5173 49.1192 26.576C49.2312 26.6347 49.3606 26.664 49.5072 26.664C49.6112 26.664 49.7072 26.6467 49.7952 26.612C49.8859 26.5773 49.9832 26.5147 50.0872 26.424L50.2952 26.716C50.2312 26.78 50.1526 26.836 50.0592 26.884C49.9686 26.932 49.8712 26.9707 49.7672 27C49.6659 27.0267 49.5659 27.04 49.4672 27.04ZM51.723 27.04C51.5283 27.04 51.3536 26.992 51.199 26.896C51.047 26.8 50.9256 26.6693 50.835 26.504C50.747 26.3387 50.703 26.1533 50.703 25.948C50.703 25.7427 50.747 25.5573 50.835 25.392C50.9256 25.2267 51.047 25.096 51.199 25C51.3536 24.904 51.5283 24.856 51.723 24.856C51.9096 24.856 52.079 24.8947 52.231 24.972C52.3856 25.0467 52.503 25.1493 52.583 25.28L52.355 25.56C52.3123 25.4987 52.2576 25.4427 52.191 25.392C52.1243 25.3413 52.0536 25.3013 51.979 25.272C51.9043 25.2427 51.8323 25.228 51.763 25.228C51.635 25.228 51.5203 25.26 51.419 25.324C51.3203 25.3853 51.2416 25.4707 51.183 25.58C51.1243 25.6893 51.095 25.812 51.095 25.948C51.095 26.084 51.1256 26.2067 51.187 26.316C51.2483 26.4227 51.3296 26.508 51.431 26.572C51.5323 26.636 51.6443 26.668 51.767 26.668C51.839 26.668 51.9083 26.656 51.975 26.632C52.0443 26.608 52.111 26.572 52.175 26.524C52.239 26.476 52.299 26.4173 52.355 26.348L52.583 26.628C52.4976 26.748 52.375 26.8467 52.215 26.924C52.0576 27.0013 51.8936 27.04 51.723 27.04ZM53.9156 27.04C53.7103 27.04 53.5263 26.9933 53.3636 26.9C53.2036 26.804 53.0769 26.6747 52.9836 26.512C52.8903 26.3467 52.8436 26.1587 52.8436 25.948C52.8436 25.7373 52.8903 25.5507 52.9836 25.388C53.0769 25.2227 53.2036 25.0933 53.3636 25C53.5263 24.904 53.7103 24.856 53.9156 24.856C54.1183 24.856 54.2996 24.904 54.4596 25C54.6223 25.0933 54.7503 25.2227 54.8436 25.388C54.9369 25.5507 54.9836 25.7373 54.9836 25.948C54.9836 26.1587 54.9369 26.3467 54.8436 26.512C54.7503 26.6747 54.6223 26.804 54.4596 26.9C54.2996 26.9933 54.1183 27.04 53.9156 27.04ZM53.9156 26.664C54.0409 26.664 54.1529 26.6333 54.2516 26.572C54.3503 26.508 54.4276 26.4227 54.4836 26.316C54.5396 26.2067 54.5663 26.084 54.5636 25.948C54.5663 25.8093 54.5396 25.6867 54.4836 25.58C54.4276 25.4707 54.3503 25.3853 54.2516 25.324C54.1529 25.2627 54.0409 25.232 53.9156 25.232C53.7903 25.232 53.6769 25.264 53.5756 25.328C53.4769 25.3893 53.3996 25.4747 53.3436 25.584C53.2876 25.6907 53.2609 25.812 53.2636 25.948C53.2609 26.084 53.2876 26.2067 53.3436 26.316C53.3996 26.4227 53.4769 26.508 53.5756 26.572C53.6769 26.6333 53.7903 26.664 53.9156 26.664ZM56.1325 27.04C55.9565 27.04 55.7979 27.0093 55.6565 26.948C55.5152 26.8867 55.3979 26.796 55.3045 26.676L55.5845 26.436C55.6645 26.5293 55.7512 26.5973 55.8445 26.64C55.9405 26.68 56.0485 26.7 56.1685 26.7C56.2165 26.7 56.2605 26.6947 56.3005 26.684C56.3432 26.6707 56.3792 26.652 56.4085 26.628C56.4405 26.604 56.4645 26.576 56.4805 26.544C56.4965 26.5093 56.5045 26.472 56.5045 26.432C56.5045 26.3627 56.4792 26.3067 56.4285 26.264C56.4019 26.2453 56.3592 26.2253 56.3005 26.204C56.2445 26.18 56.1712 26.156 56.0805 26.132C55.9259 26.092 55.7992 26.0467 55.7005 25.996C55.6019 25.9453 55.5259 25.888 55.4725 25.824C55.4325 25.7733 55.4032 25.7187 55.3845 25.66C55.3659 25.5987 55.3565 25.532 55.3565 25.46C55.3565 25.3427 55.3899 25.2387 55.4565 25.148C55.5232 25.0573 55.6125 24.9867 55.7245 24.936C55.8392 24.8827 55.9672 24.856 56.1085 24.856C56.2072 24.856 56.3045 24.8693 56.4005 24.896C56.4992 24.9227 56.5899 24.9613 56.6725 25.012C56.7552 25.0627 56.8245 25.1227 56.8805 25.192L56.6445 25.452C56.5939 25.4013 56.5379 25.3573 56.4765 25.32C56.4179 25.28 56.3579 25.2493 56.2965 25.228C56.2352 25.2067 56.1792 25.196 56.1285 25.196C56.0725 25.196 56.0219 25.2013 55.9765 25.212C55.9312 25.2227 55.8925 25.2387 55.8605 25.26C55.8312 25.2813 55.8085 25.308 55.7925 25.34C55.7765 25.372 55.7685 25.408 55.7685 25.448C55.7712 25.4827 55.7792 25.516 55.7925 25.548C55.8085 25.5773 55.8299 25.6027 55.8565 25.624C55.8859 25.6453 55.9299 25.668 55.9885 25.692C56.0472 25.716 56.1219 25.7387 56.2125 25.76C56.3459 25.7947 56.4552 25.8333 56.5405 25.876C56.6285 25.916 56.6979 25.9627 56.7485 26.016C56.8019 26.0667 56.8392 26.1253 56.8605 26.192C56.8819 26.2587 56.8925 26.3333 56.8925 26.416C56.8925 26.536 56.8579 26.644 56.7885 26.74C56.7219 26.8333 56.6312 26.9067 56.5165 26.96C56.4019 27.0133 56.2739 27.04 56.1325 27.04ZM57.6986 27.92L58.1226 26.94L58.1266 27.268L57.0786 24.9H57.5586L58.2146 26.444C58.2279 26.4707 58.2439 26.512 58.2626 26.568C58.2813 26.6213 58.2973 26.6747 58.3106 26.728L58.2066 26.752C58.2279 26.696 58.2479 26.64 58.2666 26.584C58.2879 26.528 58.3079 26.472 58.3266 26.416L58.8746 24.9H59.3626L58.4986 27L58.1426 27.92H57.6986ZM60.3318 27.04C60.1558 27.04 59.9971 27.0093 59.8558 26.948C59.7144 26.8867 59.5971 26.796 59.5038 26.676L59.7838 26.436C59.8638 26.5293 59.9504 26.5973 60.0438 26.64C60.1398 26.68 60.2478 26.7 60.3678 26.7C60.4158 26.7 60.4598 26.6947 60.4998 26.684C60.5424 26.6707 60.5784 26.652 60.6078 26.628C60.6398 26.604 60.6638 26.576 60.6798 26.544C60.6958 26.5093 60.7038 26.472 60.7038 26.432C60.7038 26.3627 60.6784 26.3067 60.6278 26.264C60.6011 26.2453 60.5584 26.2253 60.4998 26.204C60.4438 26.18 60.3704 26.156 60.2798 26.132C60.1251 26.092 59.9984 26.0467 59.8998 25.996C59.8011 25.9453 59.7251 25.888 59.6718 25.824C59.6318 25.7733 59.6024 25.7187 59.5838 25.66C59.5651 25.5987 59.5558 25.532 59.5558 25.46C59.5558 25.3427 59.5891 25.2387 59.6558 25.148C59.7224 25.0573 59.8118 24.9867 59.9238 24.936C60.0384 24.8827 60.1664 24.856 60.3078 24.856C60.4064 24.856 60.5038 24.8693 60.5998 24.896C60.6984 24.9227 60.7891 24.9613 60.8718 25.012C60.9544 25.0627 61.0238 25.1227 61.0798 25.192L60.8438 25.452C60.7931 25.4013 60.7371 25.3573 60.6758 25.32C60.6171 25.28 60.5571 25.2493 60.4958 25.228C60.4344 25.2067 60.3784 25.196 60.3278 25.196C60.2718 25.196 60.2211 25.2013 60.1758 25.212C60.1304 25.2227 60.0918 25.2387 60.0598 25.26C60.0304 25.2813 60.0078 25.308 59.9918 25.34C59.9758 25.372 59.9678 25.408 59.9678 25.448C59.9704 25.4827 59.9784 25.516 59.9918 25.548C60.0078 25.5773 60.0291 25.6027 60.0558 25.624C60.0851 25.6453 60.1291 25.668 60.1878 25.692C60.2464 25.716 60.3211 25.7387 60.4118 25.76C60.5451 25.7947 60.6544 25.8333 60.7398 25.876C60.8278 25.916 60.8971 25.9627 60.9478 26.016C61.0011 26.0667 61.0384 26.1253 61.0598 26.192C61.0811 26.2587 61.0918 26.3333 61.0918 26.416C61.0918 26.536 61.0571 26.644 60.9878 26.74C60.9211 26.8333 60.8304 26.9067 60.7158 26.96C60.6011 27.0133 60.4731 27.04 60.3318 27.04ZM61.8058 27V24.364H62.2178V27H61.8058ZM61.3698 25.3V24.9H62.7058V25.3H61.3698ZM64.0414 27.04C63.8254 27.04 63.6334 26.9947 63.4654 26.904C63.3001 26.8107 63.1694 26.684 63.0734 26.524C62.9801 26.364 62.9334 26.18 62.9334 25.972C62.9334 25.8067 62.9601 25.656 63.0134 25.52C63.0668 25.384 63.1401 25.2667 63.2334 25.168C63.3294 25.0667 63.4428 24.9893 63.5734 24.936C63.7068 24.88 63.8508 24.852 64.0054 24.852C64.1414 24.852 64.2681 24.8787 64.3854 24.932C64.5028 24.9827 64.6041 25.0533 64.6894 25.144C64.7774 25.2347 64.8441 25.3427 64.8894 25.468C64.9374 25.5907 64.9601 25.7253 64.9574 25.872L64.9534 26.048H63.2374L63.1454 25.72H64.5974L64.5374 25.788V25.692C64.5294 25.604 64.5001 25.5253 64.4494 25.456C64.3988 25.3867 64.3348 25.332 64.2574 25.292C64.1801 25.252 64.0961 25.232 64.0054 25.232C63.8614 25.232 63.7401 25.26 63.6414 25.316C63.5428 25.3693 63.4681 25.4493 63.4174 25.556C63.3668 25.66 63.3414 25.7893 63.3414 25.944C63.3414 26.0907 63.3721 26.2187 63.4334 26.328C63.4948 26.4347 63.5814 26.5173 63.6934 26.576C63.8054 26.6347 63.9348 26.664 64.0814 26.664C64.1854 26.664 64.2814 26.6467 64.3694 26.612C64.4601 26.5773 64.5574 26.5147 64.6614 26.424L64.8694 26.716C64.8054 26.78 64.7268 26.836 64.6334 26.884C64.5428 26.932 64.4454 26.9707 64.3414 27C64.2401 27.0267 64.1401 27.04 64.0414 27.04ZM65.3972 27V24.9H65.8132V25.348L65.7372 25.396C65.7585 25.3267 65.7919 25.26 65.8372 25.196C65.8852 25.132 65.9425 25.076 66.0092 25.028C66.0785 24.9773 66.1519 24.9373 66.2292 24.908C66.3092 24.8787 66.3905 24.864 66.4732 24.864C66.5932 24.864 66.6985 24.884 66.7892 24.924C66.8799 24.964 66.9545 25.024 67.0132 25.104C67.0719 25.184 67.1145 25.284 67.1412 25.404L67.0772 25.388L67.1052 25.32C67.1345 25.2587 67.1745 25.2013 67.2252 25.148C67.2785 25.092 67.3385 25.0427 67.4052 25C67.4719 24.9573 67.5425 24.924 67.6172 24.9C67.6919 24.876 67.7652 24.864 67.8372 24.864C67.9945 24.864 68.1239 24.896 68.2252 24.96C68.3292 25.024 68.4065 25.1213 68.4572 25.252C68.5105 25.3827 68.5372 25.5453 68.5372 25.74V27H68.1212V25.764C68.1212 25.5853 68.0865 25.4547 68.0172 25.372C67.9505 25.2867 67.8452 25.244 67.7012 25.244C67.6265 25.244 67.5559 25.2573 67.4892 25.284C67.4252 25.308 67.3692 25.3427 67.3212 25.388C67.2732 25.4333 67.2359 25.4867 67.2092 25.548C67.1825 25.6067 67.1692 25.672 67.1692 25.744V27H66.7532V25.756C66.7532 25.5907 66.7172 25.464 66.6452 25.376C66.5759 25.288 66.4745 25.244 66.3412 25.244C66.2665 25.244 66.1972 25.2573 66.1332 25.284C66.0692 25.308 66.0132 25.3427 65.9652 25.388C65.9172 25.4307 65.8799 25.4827 65.8532 25.544C65.8265 25.6027 65.8132 25.6667 65.8132 25.736V27H65.3972Z" fill="white"/>
<line x1="68.75" y1="72.25" x2="61.25" y2="72.25" stroke="white" stroke-width="0.5" stroke-linecap="round"/>
<line x1="71" y1="87.5" x2="47" y2="87.5" stroke="white" stroke-width="0.5"/>
<line x1="0.25" y1="-0.25" x2="2.75" y2="-0.25" transform="matrix(1.18439e-07 -1 -1 -1.18439e-07 47 89)" stroke="white" stroke-width="0.5" stroke-linecap="round"/>
<line x1="70.75" y1="88.75" x2="70.75" y2="86.25" stroke="white" stroke-width="0.5" stroke-linecap="round"/>
<line x1="68.75" y1="57.25" x2="61.25" y2="57.25" stroke="white" stroke-width="0.5" stroke-linecap="round"/>
<rect x="30" y="83" width="57" height="2" rx="0.5" fill="white"/>
</g>
<defs>
<clipPath id="clip0_82_26">
<rect width="117" height="98" fill="white"/>
</clipPath>
</defs>
</svg>
