<svg width="47" height="84" viewBox="0 0 47 84" fill="none" xmlns="http://www.w3.org/2000/svg">
<g clip-path="url(#clip0_53_14)">
<path d="M3.98 0.959999C4.01333 0.953333 4.08 0.95 4.18 0.95C4.33333 0.956666 4.47333 0.993333 4.6 1.06C4.86 1.19333 4.99 1.40667 4.99 1.7C4.99 1.82 4.96333 1.93333 4.91 2.04C4.88333 2.10667 4.84333 2.16333 4.79 2.21C4.72333 2.27667 4.66667 2.32 4.62 2.34C4.43333 2.42667 4.25667 2.43 4.09 2.35C3.92333 2.26333 3.86333 2.11 3.91 1.89C3.91667 1.86333 3.92333 1.83667 3.93 1.81C3.97667 1.65667 4.06 1.54333 4.18 1.47C4.21333 1.45 4.19 1.43333 4.11 1.42C4.06333 1.42 4.03 1.42667 4.01 1.44C3.95667 1.48 3.92 1.52667 3.9 1.58C3.87333 1.63333 3.80333 1.94 3.69 2.5C3.53667 3.23333 3.46 3.62667 3.46 3.68C3.46 3.68667 3.64 3.69 4 3.69H4.54L4.58 3.72C4.60667 3.75333 4.60333 3.84333 4.57 3.99C4.53667 4.13667 4.50667 4.21667 4.48 4.23C4.46 4.24333 4.26667 4.25 3.9 4.25C3.53333 4.25 3.35 4.25667 3.35 4.27L3.09 5.59L2.79 7.14C2.61 8.00667 2.43667 8.62667 2.27 9C2.05667 9.49333 1.78333 9.81667 1.45 9.97C1.35667 10.0167 1.25667 10.0433 1.15 10.05C0.856667 10.0633 0.623333 9.97333 0.45 9.78C0.436667 9.77333 0.426667 9.76333 0.42 9.75C0.326667 9.61667 0.28 9.47 0.28 9.31C0.28 9.18333 0.306667 9.06667 0.36 8.96C0.386667 8.89333 0.426667 8.83667 0.48 8.79C0.546667 8.72333 0.603333 8.68 0.65 8.66C0.836667 8.57333 1.01333 8.57 1.18 8.65C1.34667 8.73667 1.40667 8.89 1.36 9.11C1.35333 9.13667 1.34667 9.16333 1.34 9.19C1.29333 9.34333 1.21 9.45667 1.09 9.53C1.05 9.55667 1.07333 9.57 1.16 9.57C1.21333 9.57 1.25333 9.56 1.28 9.54C1.36667 9.47333 1.43333 9.3 1.48 9.02C1.54667 8.6 1.64667 8.12667 1.78 7.6L1.98 6.7C2.29333 5.02667 2.45 4.21333 2.45 4.26C2.45 4.25333 2.29667 4.25 1.99 4.25C1.66333 4.25 1.48667 4.22667 1.46 4.18C1.44667 4.16 1.45667 4.08333 1.49 3.95C1.52333 3.81667 1.55 3.74 1.57 3.72L1.6 3.69H2.08H2.56V3.67L2.66 3.18C2.79333 2.48667 2.92333 2.00333 3.05 1.73C3.25667 1.31 3.56667 1.05333 3.98 0.959999ZM8.27641 0.539999L8.33641 0.499999H8.50641H8.67641L8.70641 0.53C8.72641 0.55 8.73641 0.573333 8.73641 0.6C8.73641 0.62 8.70307 0.66 8.63641 0.72C8.45641 0.893333 8.29974 1.05 8.16641 1.19C7.27307 2.18333 6.59974 3.50333 6.14641 5.15C5.91974 5.95667 5.77307 6.71333 5.70641 7.42C5.67307 7.81333 5.66974 8.15333 5.69641 8.44C5.74307 9.15333 5.91974 9.77 6.22641 10.29C6.27307 10.37 6.28974 10.4233 6.27641 10.45C6.24974 10.4833 6.16974 10.5 6.03641 10.5H5.87641L5.82641 10.46C5.71974 10.3467 5.58974 10.1533 5.43641 9.88C5.20974 9.46 5.06307 8.98333 4.99641 8.45C4.87641 7.57667 4.96307 6.56333 5.25641 5.41C5.68307 3.79667 6.35641 2.48 7.27641 1.46C7.58307 1.11333 7.90307 0.816666 8.23641 0.57C8.24974 0.556666 8.26307 0.546666 8.27641 0.539999ZM9.8582 3.59C10.0849 3.55667 10.3149 3.59 10.5482 3.69C10.7282 3.77 10.8649 3.88333 10.9582 4.03L10.9982 4.08L11.0382 4.02C11.2049 3.82 11.4082 3.68333 11.6482 3.61C11.9415 3.53 12.2082 3.58333 12.4482 3.77C12.4949 3.80333 12.5349 3.84 12.5682 3.88C12.6482 3.97333 12.7015 4.08333 12.7282 4.21C12.7949 4.43 12.7782 4.64667 12.6782 4.86C12.5715 5.08667 12.3915 5.21333 12.1382 5.24C11.9249 5.26 11.7782 5.18333 11.6982 5.01C11.6782 4.97667 11.6649 4.92333 11.6582 4.85C11.6582 4.73667 11.6815 4.63333 11.7282 4.54C11.7815 4.42 11.8782 4.32333 12.0182 4.25C12.0782 4.22333 12.1082 4.20333 12.1082 4.19C12.0815 4.15 12.0349 4.11333 11.9682 4.08C11.9349 4.06667 11.8849 4.06 11.8182 4.06C11.7515 4.06 11.7015 4.06667 11.6682 4.08C11.5015 4.17333 11.3715 4.35 11.2782 4.61L10.6982 6.92C10.6515 7.12667 10.6415 7.28 10.6682 7.38C10.7215 7.56 10.8649 7.64667 11.0982 7.64C11.1782 7.63333 11.2549 7.61667 11.3282 7.59C11.5949 7.49 11.8149 7.26 11.9882 6.9C12.0349 6.80667 12.0715 6.71333 12.0982 6.62C12.1249 6.53333 12.1549 6.48667 12.1882 6.48C12.2082 6.47333 12.2782 6.47 12.3982 6.47C12.5449 6.47 12.6249 6.47667 12.6382 6.49C12.6715 6.51667 12.6749 6.57333 12.6482 6.66C12.5949 6.88 12.5015 7.08333 12.3682 7.27C12.0215 7.77667 11.5982 8.05667 11.0982 8.11C11.0849 8.11 11.0715 8.11 11.0582 8.11C10.6715 8.13 10.3615 8.00333 10.1282 7.73C10.1149 7.72333 10.1049 7.71333 10.0982 7.7C10.0582 7.65333 10.0349 7.62667 10.0282 7.62L9.9682 7.69C9.87487 7.79667 9.78154 7.87667 9.6882 7.93C9.4882 8.05667 9.29154 8.11667 9.0982 8.11C8.97154 8.10333 8.84487 8.07 8.7182 8.01C8.50487 7.91 8.36487 7.73 8.2982 7.47C8.22487 7.13667 8.28487 6.86 8.4782 6.64C8.66487 6.46 8.8682 6.40333 9.0882 6.47C9.1682 6.49667 9.23154 6.53667 9.2782 6.59C9.40487 6.73 9.41154 6.91667 9.2982 7.15C9.2382 7.27667 9.14487 7.37333 9.0182 7.44C8.9582 7.47333 8.92487 7.49 8.9182 7.49C8.9182 7.51667 8.9682 7.55667 9.0682 7.61C9.09487 7.62333 9.14154 7.63 9.2082 7.63C9.27487 7.63 9.32487 7.62333 9.3582 7.61C9.52487 7.52333 9.65154 7.35 9.7382 7.09L10.3382 4.73C10.3515 4.66333 10.3582 4.57 10.3582 4.45C10.3582 4.35667 10.3515 4.29333 10.3382 4.26C10.2582 4.08667 10.0882 4.02333 9.8282 4.07C9.58154 4.11667 9.36154 4.28333 9.1682 4.57C9.05487 4.75 8.97154 4.93667 8.9182 5.13C8.8982 5.17 8.88487 5.19333 8.8782 5.2C8.86487 5.21333 8.78487 5.22 8.6382 5.22H8.4182L8.3882 5.19C8.3682 5.17 8.3582 5.14333 8.3582 5.11C8.38487 4.93667 8.4782 4.72667 8.6382 4.48C8.64487 4.46667 8.65154 4.45333 8.6582 4.44C8.95154 3.98 9.3282 3.7 9.7882 3.6C9.81487 3.6 9.8382 3.59667 9.8582 3.59ZM14.9669 0.51C14.9802 0.503333 15.0435 0.499999 15.1569 0.499999H15.3269L15.3769 0.539999C15.4835 0.653333 15.6135 0.846666 15.7669 1.12C15.9869 1.53333 16.1335 2.00667 16.2069 2.54C16.3269 3.42667 16.2402 4.44 15.9469 5.58C15.5202 7.2 14.8469 8.52 13.9269 9.54C13.6202 9.88667 13.3002 10.1833 12.9669 10.43C12.9535 10.4433 12.9402 10.4533 12.9269 10.46L12.8669 10.5H12.6969H12.5269L12.4969 10.47C12.4769 10.45 12.4669 10.4267 12.4669 10.4C12.4669 10.38 12.5002 10.34 12.5669 10.28C12.7669 10.0933 12.9235 9.93333 13.0369 9.8C13.9302 8.81333 14.6035 7.49333 15.0569 5.84C15.2769 5.04667 15.4235 4.29333 15.4969 3.58C15.5302 3.19333 15.5335 2.85 15.5069 2.55C15.4602 1.84333 15.2835 1.23 14.9769 0.71C14.9369 0.643333 14.9169 0.606666 14.9169 0.6C14.9169 0.56 14.9335 0.53 14.9669 0.51Z" fill="white"/>
<path d="M8.26517 14.7348C8.11872 14.5884 7.88128 14.5884 7.73484 14.7348L5.34835 17.1213C5.2019 17.2678 5.2019 17.5052 5.34835 17.6517C5.4948 17.7981 5.73223 17.7981 5.87868 17.6517L8 15.5303L10.1213 17.6517C10.2678 17.7981 10.5052 17.7981 10.6517 17.6517C10.7981 17.5052 10.7981 17.2678 10.6517 17.1213L8.26517 14.7348ZM7.73483 65.2652C7.88128 65.4116 8.11872 65.4116 8.26516 65.2652L10.6517 62.8787C10.7981 62.7322 10.7981 62.4948 10.6517 62.3484C10.5052 62.2019 10.2678 62.2019 10.1213 62.3484L8 64.4697L5.87868 62.3484C5.73223 62.2019 5.4948 62.2019 5.34835 62.3484C5.2019 62.4948 5.2019 62.7322 5.34835 62.8787L7.73483 65.2652ZM8 15L7.625 15L7.625 65L8 65L8.375 65L8.375 15L8 15Z" fill="white" fill-opacity="0.5"/>
<circle cx="8.5" cy="76.5" r="6.2" stroke="white" stroke-width="0.6"/>
<path d="M6 75.25L10.5 72.5V69M6 77.75L10.5 80.5V84M6 74V76.5M6 79V76.5M6 76.5H0" stroke="white" stroke-width="0.6"/>
<path d="M7.94404 79.8445L8.90775 78.3837L9.88664 80.0778L7.94404 79.8445Z" fill="white"/>
<path d="M21.1 7L22.184 4.2H22.624L23.7 7H23.24L22.6 5.312C22.592 5.29333 22.576 5.248 22.552 5.176C22.5307 5.104 22.5053 5.024 22.476 4.936C22.4467 4.848 22.42 4.768 22.396 4.696C22.372 4.62133 22.356 4.57333 22.348 4.552L22.44 4.548C22.424 4.59333 22.404 4.65067 22.38 4.72C22.3587 4.78933 22.3347 4.86267 22.308 4.94C22.284 5.01733 22.26 5.09067 22.236 5.16C22.212 5.22667 22.192 5.28267 22.176 5.328L21.54 7H21.1ZM21.58 6.304L21.74 5.888H23.012L23.196 6.304H21.58ZM25.4848 7L24.8048 6.116L24.7448 6.04L23.8608 4.9H24.3808L25.0488 5.772L25.1168 5.86L25.9888 7H25.4848ZM23.8648 7L24.6928 5.92L24.9368 6.212L24.3528 7H23.8648ZM25.1408 5.984L24.9128 5.696L25.4288 4.9H25.9168L25.1408 5.984ZM26.4029 7V4.9H26.8149V7H26.4029ZM26.6029 4.436C26.5149 4.436 26.4469 4.41333 26.3989 4.368C26.3509 4.32267 26.3269 4.25867 26.3269 4.176C26.3269 4.09867 26.3509 4.036 26.3989 3.988C26.4495 3.94 26.5175 3.916 26.6029 3.916C26.6909 3.916 26.7589 3.93867 26.8069 3.984C26.8549 4.02933 26.8789 4.09333 26.8789 4.176C26.8789 4.25333 26.8535 4.316 26.8029 4.364C26.7549 4.412 26.6882 4.436 26.6029 4.436ZM28.3922 7.04C28.1868 7.04 28.0028 6.99333 27.8402 6.9C27.6802 6.804 27.5535 6.67467 27.4602 6.512C27.3668 6.34667 27.3202 6.15867 27.3202 5.948C27.3202 5.73733 27.3668 5.55067 27.4602 5.388C27.5535 5.22267 27.6802 5.09333 27.8402 5C28.0028 4.904 28.1868 4.856 28.3922 4.856C28.5948 4.856 28.7762 4.904 28.9362 5C29.0988 5.09333 29.2268 5.22267 29.3202 5.388C29.4135 5.55067 29.4602 5.73733 29.4602 5.948C29.4602 6.15867 29.4135 6.34667 29.3202 6.512C29.2268 6.67467 29.0988 6.804 28.9362 6.9C28.7762 6.99333 28.5948 7.04 28.3922 7.04ZM28.3922 6.664C28.5175 6.664 28.6295 6.63333 28.7282 6.572C28.8268 6.508 28.9042 6.42267 28.9602 6.316C29.0162 6.20667 29.0428 6.084 29.0402 5.948C29.0428 5.80933 29.0162 5.68667 28.9602 5.58C28.9042 5.47067 28.8268 5.38533 28.7282 5.324C28.6295 5.26267 28.5175 5.232 28.3922 5.232C28.2668 5.232 28.1535 5.264 28.0522 5.328C27.9535 5.38933 27.8762 5.47467 27.8202 5.584C27.7642 5.69067 27.7375 5.812 27.7402 5.948C27.7375 6.084 27.7642 6.20667 27.8202 6.316C27.8762 6.42267 27.9535 6.508 28.0522 6.572C28.1535 6.63333 28.2668 6.664 28.3922 6.664ZM29.9011 7V4.9H30.3171V5.348L30.2411 5.396C30.2624 5.32667 30.2958 5.26 30.3411 5.196C30.3891 5.132 30.4464 5.076 30.5131 5.028C30.5824 4.97733 30.6558 4.93733 30.7331 4.908C30.8131 4.87867 30.8944 4.864 30.9771 4.864C31.0971 4.864 31.2024 4.884 31.2931 4.924C31.3838 4.964 31.4584 5.024 31.5171 5.104C31.5758 5.184 31.6184 5.284 31.6451 5.404L31.5811 5.388L31.6091 5.32C31.6384 5.25867 31.6784 5.20133 31.7291 5.148C31.7824 5.092 31.8424 5.04267 31.9091 5C31.9758 4.95733 32.0464 4.924 32.1211 4.9C32.1958 4.876 32.2691 4.864 32.3411 4.864C32.4984 4.864 32.6278 4.896 32.7291 4.96C32.8331 5.024 32.9104 5.12133 32.9611 5.252C33.0144 5.38267 33.0411 5.54533 33.0411 5.74V7H32.6251V5.764C32.6251 5.644 32.6091 5.54667 32.5771 5.472C32.5478 5.39467 32.5024 5.33733 32.4411 5.3C32.3798 5.26267 32.3011 5.244 32.2051 5.244C32.1304 5.244 32.0598 5.25733 31.9931 5.284C31.9291 5.308 31.8731 5.34267 31.8251 5.388C31.7771 5.43333 31.7398 5.48667 31.7131 5.548C31.6864 5.60667 31.6731 5.672 31.6731 5.744V7H31.2571V5.756C31.2571 5.64667 31.2411 5.55467 31.2091 5.48C31.1771 5.40267 31.1304 5.344 31.0691 5.304C31.0078 5.264 30.9331 5.244 30.8451 5.244C30.7704 5.244 30.7011 5.25733 30.6371 5.284C30.5731 5.308 30.5171 5.34267 30.4691 5.388C30.4211 5.43067 30.3838 5.48267 30.3571 5.544C30.3304 5.60267 30.3171 5.66667 30.3171 5.736V7H29.9011ZM34.2927 7.04C34.1167 7.04 33.958 7.00933 33.8167 6.948C33.6754 6.88667 33.558 6.796 33.4647 6.676L33.7447 6.436C33.8247 6.52933 33.9114 6.59733 34.0047 6.64C34.1007 6.68 34.2087 6.7 34.3287 6.7C34.3767 6.7 34.4207 6.69467 34.4607 6.684C34.5034 6.67067 34.5394 6.652 34.5687 6.628C34.6007 6.604 34.6247 6.576 34.6407 6.544C34.6567 6.50933 34.6647 6.472 34.6647 6.432C34.6647 6.36267 34.6394 6.30667 34.5887 6.264C34.562 6.24533 34.5194 6.22533 34.4607 6.204C34.4047 6.18 34.3314 6.156 34.2407 6.132C34.086 6.092 33.9594 6.04667 33.8607 5.996C33.762 5.94533 33.686 5.888 33.6327 5.824C33.5927 5.77333 33.5634 5.71867 33.5447 5.66C33.526 5.59867 33.5167 5.532 33.5167 5.46C33.5167 5.372 33.5354 5.292 33.5727 5.22C33.6127 5.14533 33.666 5.08133 33.7327 5.028C33.802 4.972 33.882 4.92933 33.9727 4.9C34.066 4.87067 34.1647 4.856 34.2687 4.856C34.3674 4.856 34.4647 4.86933 34.5607 4.896C34.6594 4.92267 34.75 4.96133 34.8327 5.012C34.9154 5.06267 34.9847 5.12267 35.0407 5.192L34.8047 5.452C34.754 5.40133 34.698 5.35733 34.6367 5.32C34.578 5.28 34.518 5.24933 34.4567 5.228C34.3954 5.20667 34.3394 5.196 34.2887 5.196C34.2327 5.196 34.182 5.20133 34.1367 5.212C34.0914 5.22267 34.0527 5.23867 34.0207 5.26C33.9914 5.28133 33.9687 5.308 33.9527 5.34C33.9367 5.372 33.9287 5.408 33.9287 5.448C33.9314 5.48267 33.9394 5.516 33.9527 5.548C33.9687 5.57733 33.99 5.60267 34.0167 5.624C34.046 5.64533 34.09 5.668 34.1487 5.692C34.2074 5.716 34.282 5.73867 34.3727 5.76C34.506 5.79467 34.6154 5.83333 34.7007 5.876C34.7887 5.916 34.858 5.96267 34.9087 6.016C34.962 6.06667 34.9994 6.12533 35.0207 6.192C35.042 6.25867 35.0527 6.33333 35.0527 6.416C35.0527 6.536 35.018 6.644 34.9487 6.74C34.882 6.83333 34.7914 6.90667 34.6767 6.96C34.562 7.01333 34.434 7.04 34.2927 7.04Z" fill="white"/>
<path d="M21.392 33V30.2H21.816L22.836 31.86L22.632 31.856L23.664 30.2H24.064V33H23.632V31.852C23.632 31.612 23.6373 31.396 23.648 31.204C23.6613 31.012 23.6827 30.8213 23.712 30.632L23.768 30.78L22.852 32.196H22.588L21.7 30.796L21.744 30.632C21.7733 30.8107 21.7933 30.9947 21.804 31.184C21.8173 31.3707 21.824 31.5933 21.824 31.852V33H21.392ZM25.553 33.04C25.3797 33.04 25.221 32.992 25.077 32.896C24.9357 32.8 24.8224 32.6693 24.737 32.504C24.6517 32.3387 24.609 32.152 24.609 31.944C24.609 31.7333 24.6517 31.5467 24.737 31.384C24.825 31.2187 24.9424 31.0893 25.089 30.996C25.2384 30.9027 25.405 30.856 25.589 30.856C25.6984 30.856 25.7984 30.872 25.889 30.904C25.9797 30.936 26.0584 30.9813 26.125 31.04C26.1944 31.096 26.2504 31.1613 26.293 31.236C26.3384 31.3107 26.3664 31.3907 26.377 31.476L26.285 31.444V30.9H26.701V33H26.285V32.5L26.381 32.472C26.365 32.544 26.3317 32.6147 26.281 32.684C26.233 32.7507 26.1704 32.8107 26.093 32.864C26.0184 32.9173 25.9344 32.96 25.841 32.992C25.7504 33.024 25.6544 33.04 25.553 33.04ZM25.661 32.66C25.7864 32.66 25.897 32.6293 25.993 32.568C26.089 32.5067 26.1637 32.4227 26.217 32.316C26.273 32.2067 26.301 32.0827 26.301 31.944C26.301 31.808 26.273 31.6867 26.217 31.58C26.1637 31.4733 26.089 31.3893 25.993 31.328C25.897 31.2667 25.7864 31.236 25.661 31.236C25.5384 31.236 25.429 31.2667 25.333 31.328C25.2397 31.3893 25.165 31.4733 25.109 31.58C25.0557 31.6867 25.029 31.808 25.029 31.944C25.029 32.0827 25.0557 32.2067 25.109 32.316C25.165 32.4227 25.2397 32.5067 25.333 32.568C25.429 32.6293 25.5384 32.66 25.661 32.66ZM27.5363 33V30.364H27.9483V33H27.5363ZM27.1003 31.3V30.9H28.4363V31.3H27.1003ZM28.8114 33V30.04H29.2234V31.332L29.1514 31.38C29.1781 31.2867 29.2301 31.2013 29.3074 31.124C29.3848 31.044 29.4768 30.98 29.5834 30.932C29.6901 30.8813 29.7994 30.856 29.9114 30.856C30.0714 30.856 30.2048 30.888 30.3114 30.952C30.4181 31.0133 30.4981 31.108 30.5514 31.236C30.6048 31.364 30.6314 31.5253 30.6314 31.72V33H30.2194V31.748C30.2194 31.628 30.2034 31.5293 30.1714 31.452C30.1394 31.372 30.0901 31.3147 30.0234 31.28C29.9568 31.2427 29.8741 31.2267 29.7754 31.232C29.6954 31.232 29.6221 31.2453 29.5554 31.272C29.4888 31.296 29.4301 31.3307 29.3794 31.376C29.3314 31.4213 29.2928 31.4747 29.2634 31.536C29.2368 31.5947 29.2234 31.6587 29.2234 31.728V33H29.0194C28.9848 33 28.9501 33 28.9154 33C28.8808 33 28.8461 33 28.8114 33ZM32.1703 33.04C31.9543 33.04 31.7623 32.9947 31.5943 32.904C31.429 32.8107 31.2983 32.684 31.2023 32.524C31.109 32.364 31.0623 32.18 31.0623 31.972C31.0623 31.8067 31.089 31.656 31.1423 31.52C31.1957 31.384 31.269 31.2667 31.3623 31.168C31.4583 31.0667 31.5717 30.9893 31.7023 30.936C31.8357 30.88 31.9797 30.852 32.1343 30.852C32.2703 30.852 32.397 30.8787 32.5143 30.932C32.6317 30.9827 32.733 31.0533 32.8183 31.144C32.9063 31.2347 32.973 31.3427 33.0183 31.468C33.0663 31.5907 33.089 31.7253 33.0863 31.872L33.0823 32.048H31.3663L31.2743 31.72H32.7263L32.6663 31.788V31.692C32.6583 31.604 32.629 31.5253 32.5783 31.456C32.5277 31.3867 32.4637 31.332 32.3863 31.292C32.309 31.252 32.225 31.232 32.1343 31.232C31.9903 31.232 31.869 31.26 31.7703 31.316C31.6717 31.3693 31.597 31.4493 31.5463 31.556C31.4957 31.66 31.4703 31.7893 31.4703 31.944C31.4703 32.0907 31.501 32.2187 31.5623 32.328C31.6237 32.4347 31.7103 32.5173 31.8223 32.576C31.9343 32.6347 32.0637 32.664 32.2103 32.664C32.3143 32.664 32.4103 32.6467 32.4983 32.612C32.589 32.5773 32.6863 32.5147 32.7903 32.424L32.9983 32.716C32.9343 32.78 32.8557 32.836 32.7623 32.884C32.6717 32.932 32.5743 32.9707 32.4703 33C32.369 33.0267 32.269 33.04 32.1703 33.04ZM33.5261 33V30.9H33.9421V31.348L33.8661 31.396C33.8874 31.3267 33.9208 31.26 33.9661 31.196C34.0141 31.132 34.0714 31.076 34.1381 31.028C34.2074 30.9773 34.2808 30.9373 34.3581 30.908C34.4381 30.8787 34.5194 30.864 34.6021 30.864C34.7221 30.864 34.8274 30.884 34.9181 30.924C35.0088 30.964 35.0834 31.024 35.1421 31.104C35.2008 31.184 35.2434 31.284 35.2701 31.404L35.2061 31.388L35.2341 31.32C35.2634 31.2587 35.3034 31.2013 35.3541 31.148C35.4074 31.092 35.4674 31.0427 35.5341 31C35.6008 30.9573 35.6714 30.924 35.7461 30.9C35.8208 30.876 35.8941 30.864 35.9661 30.864C36.1234 30.864 36.2528 30.896 36.3541 30.96C36.4581 31.024 36.5354 31.1213 36.5861 31.252C36.6394 31.3827 36.6661 31.5453 36.6661 31.74V33H36.2501V31.764C36.2501 31.644 36.2341 31.5467 36.2021 31.472C36.1728 31.3947 36.1274 31.3373 36.0661 31.3C36.0048 31.2627 35.9261 31.244 35.8301 31.244C35.7554 31.244 35.6848 31.2573 35.6181 31.284C35.5541 31.308 35.4981 31.3427 35.4501 31.388C35.4021 31.4333 35.3648 31.4867 35.3381 31.548C35.3114 31.6067 35.2981 31.672 35.2981 31.744V33H34.8821V31.756C34.8821 31.6467 34.8661 31.5547 34.8341 31.48C34.8021 31.4027 34.7554 31.344 34.6941 31.304C34.6328 31.264 34.5581 31.244 34.4701 31.244C34.3954 31.244 34.3261 31.2573 34.2621 31.284C34.1981 31.308 34.1421 31.3427 34.0941 31.388C34.0461 31.4307 34.0088 31.4827 33.9821 31.544C33.9554 31.6027 33.9421 31.6667 33.9421 31.736V33H33.5261ZM38.0257 33.04C37.8524 33.04 37.6937 32.992 37.5497 32.896C37.4084 32.8 37.295 32.6693 37.2097 32.504C37.1244 32.3387 37.0817 32.152 37.0817 31.944C37.0817 31.7333 37.1244 31.5467 37.2097 31.384C37.2977 31.2187 37.415 31.0893 37.5617 30.996C37.711 30.9027 37.8777 30.856 38.0617 30.856C38.171 30.856 38.271 30.872 38.3617 30.904C38.4524 30.936 38.531 30.9813 38.5977 31.04C38.667 31.096 38.723 31.1613 38.7657 31.236C38.811 31.3107 38.839 31.3907 38.8497 31.476L38.7577 31.444V30.9H39.1737V33H38.7577V32.5L38.8537 32.472C38.8377 32.544 38.8044 32.6147 38.7537 32.684C38.7057 32.7507 38.643 32.8107 38.5657 32.864C38.491 32.9173 38.407 32.96 38.3137 32.992C38.223 33.024 38.127 33.04 38.0257 33.04ZM38.1337 32.66C38.259 32.66 38.3697 32.6293 38.4657 32.568C38.5617 32.5067 38.6364 32.4227 38.6897 32.316C38.7457 32.2067 38.7737 32.0827 38.7737 31.944C38.7737 31.808 38.7457 31.6867 38.6897 31.58C38.6364 31.4733 38.5617 31.3893 38.4657 31.328C38.3697 31.2667 38.259 31.236 38.1337 31.236C38.011 31.236 37.9017 31.2667 37.8057 31.328C37.7124 31.3893 37.6377 31.4733 37.5817 31.58C37.5284 31.6867 37.5017 31.808 37.5017 31.944C37.5017 32.0827 37.5284 32.2067 37.5817 32.316C37.6377 32.4227 37.7124 32.5067 37.8057 32.568C37.9017 32.6293 38.011 32.66 38.1337 32.66ZM40.0089 33V30.364H40.4209V33H40.0089ZM39.5729 31.3V30.9H40.9089V31.3H39.5729ZM41.3521 33V30.9H41.7641V33H41.3521ZM41.5521 30.436C41.4641 30.436 41.3961 30.4133 41.3481 30.368C41.3001 30.3227 41.2761 30.2587 41.2761 30.176C41.2761 30.0987 41.3001 30.036 41.3481 29.988C41.3988 29.94 41.4668 29.916 41.5521 29.916C41.6401 29.916 41.7081 29.9387 41.7561 29.984C41.8041 30.0293 41.8281 30.0933 41.8281 30.176C41.8281 30.2533 41.8028 30.316 41.7521 30.364C41.7041 30.412 41.6374 30.436 41.5521 30.436ZM43.2894 33.04C43.0947 33.04 42.92 32.992 42.7654 32.896C42.6134 32.8 42.492 32.6693 42.4014 32.504C42.3134 32.3387 42.2694 32.1533 42.2694 31.948C42.2694 31.7427 42.3134 31.5573 42.4014 31.392C42.492 31.2267 42.6134 31.096 42.7654 31C42.92 30.904 43.0947 30.856 43.2894 30.856C43.476 30.856 43.6454 30.8947 43.7974 30.972C43.952 31.0467 44.0694 31.1493 44.1494 31.28L43.9214 31.56C43.8787 31.4987 43.824 31.4427 43.7574 31.392C43.6907 31.3413 43.62 31.3013 43.5454 31.272C43.4707 31.2427 43.3987 31.228 43.3294 31.228C43.2014 31.228 43.0867 31.26 42.9854 31.324C42.8867 31.3853 42.808 31.4707 42.7494 31.58C42.6907 31.6893 42.6614 31.812 42.6614 31.948C42.6614 32.084 42.692 32.2067 42.7534 32.316C42.8147 32.4227 42.896 32.508 42.9974 32.572C43.0987 32.636 43.2107 32.668 43.3334 32.668C43.4054 32.668 43.4747 32.656 43.5414 32.632C43.6107 32.608 43.6774 32.572 43.7414 32.524C43.8054 32.476 43.8654 32.4173 43.9214 32.348L44.1494 32.628C44.064 32.748 43.9414 32.8467 43.7814 32.924C43.624 33.0013 43.46 33.04 43.2894 33.04ZM45.238 33.04C45.062 33.04 44.9033 33.0093 44.762 32.948C44.6207 32.8867 44.5033 32.796 44.41 32.676L44.69 32.436C44.77 32.5293 44.8567 32.5973 44.95 32.64C45.046 32.68 45.154 32.7 45.274 32.7C45.322 32.7 45.366 32.6947 45.406 32.684C45.4487 32.6707 45.4847 32.652 45.514 32.628C45.546 32.604 45.57 32.576 45.586 32.544C45.602 32.5093 45.61 32.472 45.61 32.432C45.61 32.3627 45.5847 32.3067 45.534 32.264C45.5073 32.2453 45.4647 32.2253 45.406 32.204C45.35 32.18 45.2767 32.156 45.186 32.132C45.0313 32.092 44.9047 32.0467 44.806 31.996C44.7073 31.9453 44.6313 31.888 44.578 31.824C44.538 31.7733 44.5087 31.7187 44.49 31.66C44.4713 31.5987 44.462 31.532 44.462 31.46C44.462 31.372 44.4807 31.292 44.518 31.22C44.558 31.1453 44.6113 31.0813 44.678 31.028C44.7473 30.972 44.8273 30.9293 44.918 30.9C45.0113 30.8707 45.11 30.856 45.214 30.856C45.3127 30.856 45.41 30.8693 45.506 30.896C45.6047 30.9227 45.6953 30.9613 45.778 31.012C45.8607 31.0627 45.93 31.1227 45.986 31.192L45.75 31.452C45.6993 31.4013 45.6433 31.3573 45.582 31.32C45.5233 31.28 45.4633 31.2493 45.402 31.228C45.3407 31.2067 45.2847 31.196 45.234 31.196C45.178 31.196 45.1273 31.2013 45.082 31.212C45.0367 31.2227 44.998 31.2387 44.966 31.26C44.9367 31.2813 44.914 31.308 44.898 31.34C44.882 31.372 44.874 31.408 44.874 31.448C44.8767 31.4827 44.8847 31.516 44.898 31.548C44.914 31.5773 44.9353 31.6027 44.962 31.624C44.9913 31.6453 45.0353 31.668 45.094 31.692C45.1527 31.716 45.2273 31.7387 45.318 31.76C45.4513 31.7947 45.5607 31.8333 45.646 31.876C45.734 31.916 45.8033 31.9627 45.854 32.016C45.9073 32.0667 45.9447 32.1253 45.966 32.192C45.9873 32.2587 45.998 32.3333 45.998 32.416C45.998 32.536 45.9633 32.644 45.894 32.74C45.8273 32.8333 45.7367 32.9067 45.622 32.96C45.5073 33.0133 45.3793 33.04 45.238 33.04Z" fill="white"/>
<path d="M21.392 20V17.2H21.824V19.584H23.136V20H21.392ZM24.5484 20.04C24.3431 20.04 24.1591 19.9933 23.9964 19.9C23.8364 19.804 23.7097 19.6747 23.6164 19.512C23.5231 19.3467 23.4764 19.1587 23.4764 18.948C23.4764 18.7373 23.5231 18.5507 23.6164 18.388C23.7097 18.2227 23.8364 18.0933 23.9964 18C24.1591 17.904 24.3431 17.856 24.5484 17.856C24.7511 17.856 24.9324 17.904 25.0924 18C25.2551 18.0933 25.3831 18.2227 25.4764 18.388C25.5697 18.5507 25.6164 18.7373 25.6164 18.948C25.6164 19.1587 25.5697 19.3467 25.4764 19.512C25.3831 19.6747 25.2551 19.804 25.0924 19.9C24.9324 19.9933 24.7511 20.04 24.5484 20.04ZM24.5484 19.664C24.6737 19.664 24.7857 19.6333 24.8844 19.572C24.9831 19.508 25.0604 19.4227 25.1164 19.316C25.1724 19.2067 25.1991 19.084 25.1964 18.948C25.1991 18.8093 25.1724 18.6867 25.1164 18.58C25.0604 18.4707 24.9831 18.3853 24.8844 18.324C24.7857 18.2627 24.6737 18.232 24.5484 18.232C24.4231 18.232 24.3097 18.264 24.2084 18.328C24.1097 18.3893 24.0324 18.4747 23.9764 18.584C23.9204 18.6907 23.8937 18.812 23.8964 18.948C23.8937 19.084 23.9204 19.2067 23.9764 19.316C24.0324 19.4227 24.1097 19.508 24.2084 19.572C24.3097 19.6333 24.4231 19.664 24.5484 19.664ZM27.0053 20.92C26.856 20.92 26.7067 20.896 26.5573 20.848C26.4107 20.8027 26.292 20.7427 26.2013 20.668L26.3533 20.348C26.4067 20.388 26.4693 20.4227 26.5413 20.452C26.6133 20.484 26.6893 20.508 26.7693 20.524C26.8493 20.5427 26.928 20.552 27.0053 20.552C27.152 20.552 27.2747 20.528 27.3733 20.48C27.472 20.432 27.5467 20.3613 27.5973 20.268C27.648 20.1747 27.6733 20.0587 27.6733 19.92V19.516L27.7173 19.544C27.704 19.6267 27.66 19.7067 27.5853 19.784C27.5133 19.8587 27.4227 19.92 27.3133 19.968C27.204 20.016 27.092 20.04 26.9773 20.04C26.7773 20.04 26.5987 19.9933 26.4413 19.9C26.2867 19.804 26.164 19.6747 26.0733 19.512C25.9827 19.3467 25.9373 19.1587 25.9373 18.948C25.9373 18.7373 25.9813 18.5507 26.0693 18.388C26.16 18.2227 26.2827 18.0933 26.4373 18C26.5947 17.904 26.7707 17.856 26.9653 17.856C27.0453 17.856 27.1227 17.8667 27.1973 17.888C27.272 17.9067 27.3413 17.9347 27.4053 17.972C27.4693 18.0067 27.5267 18.0453 27.5773 18.088C27.628 18.1307 27.6693 18.176 27.7013 18.224C27.7333 18.272 27.7533 18.3173 27.7613 18.36L27.6733 18.392V17.9H28.0853V19.872C28.0853 20.04 28.06 20.188 28.0093 20.316C27.9613 20.4467 27.8907 20.556 27.7973 20.644C27.704 20.7347 27.5907 20.8027 27.4573 20.848C27.324 20.896 27.1733 20.92 27.0053 20.92ZM27.0213 19.66C27.152 19.66 27.268 19.6293 27.3693 19.568C27.4707 19.5067 27.5493 19.4227 27.6053 19.316C27.6613 19.2093 27.6893 19.0867 27.6893 18.948C27.6893 18.8093 27.66 18.6867 27.6013 18.58C27.5453 18.4707 27.4667 18.3853 27.3653 18.324C27.2667 18.2627 27.152 18.232 27.0213 18.232C26.8933 18.232 26.7787 18.264 26.6773 18.328C26.5787 18.3893 26.5 18.4747 26.4413 18.584C26.3853 18.6907 26.3573 18.812 26.3573 18.948C26.3573 19.084 26.3853 19.2067 26.4413 19.316C26.5 19.4227 26.5787 19.5067 26.6773 19.568C26.7787 19.6293 26.8933 19.66 27.0213 19.66ZM28.731 20V17.9H29.143V20H28.731ZM28.931 17.436C28.843 17.436 28.775 17.4133 28.727 17.368C28.679 17.3227 28.655 17.2587 28.655 17.176C28.655 17.0987 28.679 17.036 28.727 16.988C28.7777 16.94 28.8457 16.916 28.931 16.916C29.019 16.916 29.087 16.9387 29.135 16.984C29.183 17.0293 29.207 17.0933 29.207 17.176C29.207 17.2533 29.1817 17.316 29.131 17.364C29.083 17.412 29.0163 17.436 28.931 17.436ZM30.6683 20.04C30.4736 20.04 30.2989 19.992 30.1443 19.896C29.9923 19.8 29.8709 19.6693 29.7803 19.504C29.6923 19.3387 29.6483 19.1533 29.6483 18.948C29.6483 18.7427 29.6923 18.5573 29.7803 18.392C29.8709 18.2267 29.9923 18.096 30.1443 18C30.2989 17.904 30.4736 17.856 30.6683 17.856C30.8549 17.856 31.0243 17.8947 31.1763 17.972C31.3309 18.0467 31.4483 18.1493 31.5283 18.28L31.3003 18.56C31.2576 18.4987 31.2029 18.4427 31.1363 18.392C31.0696 18.3413 30.9989 18.3013 30.9243 18.272C30.8496 18.2427 30.7776 18.228 30.7083 18.228C30.5803 18.228 30.4656 18.26 30.3643 18.324C30.2656 18.3853 30.1869 18.4707 30.1283 18.58C30.0696 18.6893 30.0403 18.812 30.0403 18.948C30.0403 19.084 30.0709 19.2067 30.1323 19.316C30.1936 19.4227 30.2749 19.508 30.3763 19.572C30.4776 19.636 30.5896 19.668 30.7123 19.668C30.7843 19.668 30.8536 19.656 30.9203 19.632C30.9896 19.608 31.0563 19.572 31.1203 19.524C31.1843 19.476 31.2443 19.4173 31.3003 19.348L31.5283 19.628C31.4429 19.748 31.3203 19.8467 31.1603 19.924C31.0029 20.0013 30.8389 20.04 30.6683 20.04Z" fill="white"/>
<path d="M21.392 46V43.2H22.532C22.684 43.2 22.8213 43.2387 22.944 43.316C23.0693 43.3907 23.1693 43.4933 23.244 43.624C23.3187 43.7547 23.356 43.9 23.356 44.06C23.356 44.22 23.3187 44.3653 23.244 44.496C23.1693 44.6267 23.0693 44.732 22.944 44.812C22.8213 44.8893 22.684 44.928 22.532 44.928H21.824V46H21.392ZM21.824 44.512H22.524C22.596 44.512 22.6613 44.492 22.72 44.452C22.7787 44.4093 22.8253 44.3547 22.86 44.288C22.8973 44.2187 22.916 44.1427 22.916 44.06C22.916 43.9773 22.8973 43.9027 22.86 43.836C22.8253 43.7693 22.7787 43.716 22.72 43.676C22.6613 43.636 22.596 43.616 22.524 43.616H21.824V44.512ZM23.8232 46V43.9H24.2392V44.56L24.1992 44.4C24.2285 44.2987 24.2778 44.2067 24.3472 44.124C24.4192 44.0413 24.5005 43.976 24.5912 43.928C24.6845 43.88 24.7805 43.856 24.8792 43.856C24.9245 43.856 24.9672 43.86 25.0072 43.868C25.0498 43.876 25.0832 43.8853 25.1072 43.896L24.9992 44.344C24.9672 44.3307 24.9312 44.32 24.8912 44.312C24.8538 44.3013 24.8165 44.296 24.7792 44.296C24.7072 44.296 24.6378 44.3107 24.5712 44.34C24.5072 44.3667 24.4498 44.4053 24.3992 44.456C24.3512 44.504 24.3125 44.5613 24.2832 44.628C24.2538 44.692 24.2392 44.7627 24.2392 44.84V46H23.8232ZM26.2906 46.04C26.0853 46.04 25.9013 45.9933 25.7386 45.9C25.5786 45.804 25.4519 45.6747 25.3586 45.512C25.2653 45.3467 25.2186 45.1587 25.2186 44.948C25.2186 44.7373 25.2653 44.5507 25.3586 44.388C25.4519 44.2227 25.5786 44.0933 25.7386 44C25.9013 43.904 26.0853 43.856 26.2906 43.856C26.4933 43.856 26.6746 43.904 26.8346 44C26.9973 44.0933 27.1253 44.2227 27.2186 44.388C27.3119 44.5507 27.3586 44.7373 27.3586 44.948C27.3586 45.1587 27.3119 45.3467 27.2186 45.512C27.1253 45.6747 26.9973 45.804 26.8346 45.9C26.6746 45.9933 26.4933 46.04 26.2906 46.04ZM26.2906 45.664C26.4159 45.664 26.5279 45.6333 26.6266 45.572C26.7253 45.508 26.8026 45.4227 26.8586 45.316C26.9146 45.2067 26.9413 45.084 26.9386 44.948C26.9413 44.8093 26.9146 44.6867 26.8586 44.58C26.8026 44.4707 26.7253 44.3853 26.6266 44.324C26.5279 44.2627 26.4159 44.232 26.2906 44.232C26.1653 44.232 26.0519 44.264 25.9506 44.328C25.8519 44.3893 25.7746 44.4747 25.7186 44.584C25.6626 44.6907 25.6359 44.812 25.6386 44.948C25.6359 45.084 25.6626 45.2067 25.7186 45.316C25.7746 45.4227 25.8519 45.508 25.9506 45.572C26.0519 45.6333 26.1653 45.664 26.2906 45.664ZM28.7515 46.04C28.5462 46.04 28.3622 45.9933 28.1995 45.9C28.0395 45.804 27.9129 45.6747 27.8195 45.512C27.7262 45.3467 27.6795 45.1587 27.6795 44.948C27.6795 44.7373 27.7262 44.5507 27.8195 44.388C27.9129 44.2227 28.0395 44.0933 28.1995 44C28.3622 43.904 28.5462 43.856 28.7515 43.856C28.9542 43.856 29.1355 43.904 29.2955 44C29.4582 44.0933 29.5862 44.2227 29.6795 44.388C29.7729 44.5507 29.8195 44.7373 29.8195 44.948C29.8195 45.1587 29.7729 45.3467 29.6795 45.512C29.5862 45.6747 29.4582 45.804 29.2955 45.9C29.1355 45.9933 28.9542 46.04 28.7515 46.04ZM28.7515 45.664C28.8769 45.664 28.9889 45.6333 29.0875 45.572C29.1862 45.508 29.2635 45.4227 29.3195 45.316C29.3755 45.2067 29.4022 45.084 29.3995 44.948C29.4022 44.8093 29.3755 44.6867 29.3195 44.58C29.2635 44.4707 29.1862 44.3853 29.0875 44.324C28.9889 44.2627 28.8769 44.232 28.7515 44.232C28.6262 44.232 28.5129 44.264 28.4115 44.328C28.3129 44.3893 28.2355 44.4747 28.1795 44.584C28.1235 44.6907 28.0969 44.812 28.0995 44.948C28.0969 45.084 28.1235 45.2067 28.1795 45.316C28.2355 45.4227 28.3129 45.508 28.4115 45.572C28.5129 45.6333 28.6262 45.664 28.7515 45.664ZM30.4183 46V43.664C30.4183 43.544 30.445 43.4373 30.4983 43.344C30.5517 43.2507 30.625 43.1773 30.7183 43.124C30.8117 43.0707 30.9197 43.044 31.0423 43.044C31.1277 43.044 31.2077 43.06 31.2823 43.092C31.357 43.124 31.417 43.1667 31.4623 43.22L31.3223 43.536C31.2877 43.504 31.249 43.4787 31.2063 43.46C31.1663 43.4387 31.1277 43.428 31.0903 43.428C31.0343 43.428 30.9863 43.4373 30.9463 43.456C30.909 43.472 30.881 43.4987 30.8623 43.536C30.8437 43.5707 30.8343 43.6133 30.8343 43.664V46H30.6263C30.5917 46 30.557 46 30.5223 46C30.4877 46 30.453 46 30.4183 46ZM30.0823 44.316V43.936H31.3303V44.316H30.0823ZM32.4607 46.04C32.2847 46.04 32.126 46.0093 31.9847 45.948C31.8433 45.8867 31.726 45.796 31.6327 45.676L31.9127 45.436C31.9927 45.5293 32.0793 45.5973 32.1727 45.64C32.2687 45.68 32.3767 45.7 32.4967 45.7C32.5447 45.7 32.5887 45.6947 32.6287 45.684C32.6713 45.6707 32.7073 45.652 32.7367 45.628C32.7687 45.604 32.7927 45.576 32.8087 45.544C32.8247 45.5093 32.8327 45.472 32.8327 45.432C32.8327 45.3627 32.8073 45.3067 32.7567 45.264C32.73 45.2453 32.6873 45.2253 32.6287 45.204C32.5727 45.18 32.4993 45.156 32.4087 45.132C32.254 45.092 32.1273 45.0467 32.0287 44.996C31.93 44.9453 31.854 44.888 31.8007 44.824C31.7607 44.7733 31.7313 44.7187 31.7127 44.66C31.694 44.5987 31.6847 44.532 31.6847 44.46C31.6847 44.372 31.7033 44.292 31.7407 44.22C31.7807 44.1453 31.834 44.0813 31.9007 44.028C31.97 43.972 32.05 43.9293 32.1407 43.9C32.234 43.8707 32.3327 43.856 32.4367 43.856C32.5353 43.856 32.6327 43.8693 32.7287 43.896C32.8273 43.9227 32.918 43.9613 33.0007 44.012C33.0833 44.0627 33.1527 44.1227 33.2087 44.192L32.9727 44.452C32.922 44.4013 32.866 44.3573 32.8047 44.32C32.746 44.28 32.686 44.2493 32.6247 44.228C32.5633 44.2067 32.5073 44.196 32.4567 44.196C32.4007 44.196 32.35 44.2013 32.3047 44.212C32.2593 44.2227 32.2207 44.2387 32.1887 44.26C32.1593 44.2813 32.1367 44.308 32.1207 44.34C32.1047 44.372 32.0967 44.408 32.0967 44.448C32.0993 44.4827 32.1073 44.516 32.1207 44.548C32.1367 44.5773 32.158 44.6027 32.1847 44.624C32.214 44.6453 32.258 44.668 32.3167 44.692C32.3753 44.716 32.45 44.7387 32.5407 44.76C32.674 44.7947 32.7833 44.8333 32.8687 44.876C32.9567 44.916 33.026 44.9627 33.0767 45.016C33.13 45.0667 33.1673 45.1253 33.1887 45.192C33.21 45.2587 33.2207 45.3333 33.2207 45.416C33.2207 45.536 33.186 45.644 33.1167 45.74C33.05 45.8333 32.9593 45.9067 32.8447 45.96C32.73 46.0133 32.602 46.04 32.4607 46.04Z" fill="white"/>
<path d="M28.7 15C28.7 15.1657 28.8343 15.3 29 15.3C29.1657 15.3 29.3 15.1657 29.3 15L28.7 15ZM29.2121 8.78787C29.095 8.67071 28.905 8.67071 28.7879 8.78787L26.8787 10.6971C26.7615 10.8142 26.7615 11.0042 26.8787 11.1213C26.9958 11.2385 27.1858 11.2385 27.3029 11.1213L29 9.42426L30.6971 11.1213C30.8142 11.2385 31.0042 11.2385 31.1213 11.1213C31.2385 11.0042 31.2385 10.8142 31.1213 10.6971L29.2121 8.78787ZM29 15L29.3 15L29.3 9L29 9L28.7 9L28.7 15L29 15Z" fill="white"/>
<path d="M28.7 41C28.7 41.1657 28.8343 41.3 29 41.3C29.1657 41.3 29.3 41.1657 29.3 41L28.7 41ZM29.2121 34.7879C29.095 34.6707 28.905 34.6707 28.7879 34.7879L26.8787 36.6971C26.7615 36.8142 26.7615 37.0042 26.8787 37.1213C26.9958 37.2385 27.1858 37.2385 27.3029 37.1213L29 35.4243L30.6971 37.1213C30.8142 37.2385 31.0042 37.2385 31.1213 37.1213C31.2385 37.0042 31.2385 36.8142 31.1213 36.6971L29.2121 34.7879ZM29 41L29.3 41L29.3 35L29 35L28.7 35L28.7 41L29 41Z" fill="white"/>
<path d="M28.7 28C28.7 28.1657 28.8343 28.3 29 28.3C29.1657 28.3 29.3 28.1657 29.3 28L28.7 28ZM29.2121 21.7879C29.095 21.6707 28.905 21.6707 28.7879 21.7879L26.8787 23.6971C26.7615 23.8142 26.7615 24.0042 26.8787 24.1213C26.9958 24.2385 27.1858 24.2385 27.3029 24.1213L29 22.4243L30.6971 24.1213C30.8142 24.2385 31.0042 24.2385 31.1213 24.1213C31.2385 24.0042 31.2385 23.8142 31.1213 23.6971L29.2121 21.7879ZM29 28L29.3 28L29.3 22L29 22L28.7 22L28.7 28L29 28Z" fill="white"/>
<path d="M28.7 54C28.7 54.1657 28.8343 54.3 29 54.3C29.1657 54.3 29.3 54.1657 29.3 54L28.7 54ZM29.2121 47.7879C29.095 47.6707 28.905 47.6707 28.7879 47.7879L26.8787 49.6971C26.7615 49.8142 26.7615 50.0042 26.8787 50.1213C26.9958 50.2385 27.1858 50.2385 27.3029 50.1213L29 48.4243L30.6971 50.1213C30.8142 50.2385 31.0042 50.2385 31.1213 50.1213C31.2385 50.0042 31.2385 49.8142 31.1213 49.6971L29.2121 47.7879ZM29 54L29.3 54L29.3 48L29 48L28.7 48L28.7 54L29 54Z" fill="url(#paint0_linear_53_14)"/>
</g>
<defs>
<linearGradient id="paint0_linear_53_14" x1="29.5" y1="54" x2="29.5" y2="48" gradientUnits="userSpaceOnUse">
<stop stop-color="white" stop-opacity="0"/>
<stop offset="1" stop-color="white"/>
</linearGradient>
<clipPath id="clip0_53_14">
<rect width="47" height="84" fill="white"/>
</clipPath>
</defs>
</svg>
