<svg width="70" height="84" viewBox="0 0 70 84" fill="none" xmlns="http://www.w3.org/2000/svg">
<path d="M3.98 0.959999C4.01333 0.953333 4.08 0.95 4.18 0.95C4.33333 0.956666 4.47333 0.993333 4.6 1.06C4.86 1.19333 4.99 1.40667 4.99 1.7C4.99 1.82 4.96333 1.93333 4.91 2.04C4.88333 2.10667 4.84333 2.16333 4.79 2.21C4.72333 2.27667 4.66667 2.32 4.62 2.34C4.43333 2.42667 4.25667 2.43 4.09 2.35C3.92333 2.26333 3.86333 2.11 3.91 1.89C3.91667 1.86333 3.92333 1.83667 3.93 1.81C3.97667 1.65667 4.06 1.54333 4.18 1.47C4.21333 1.45 4.19 1.43333 4.11 1.42C4.06333 1.42 4.03 1.42667 4.01 1.44C3.95667 1.48 3.92 1.52667 3.9 1.58C3.87333 1.63333 3.80333 1.94 3.69 2.5C3.53667 3.23333 3.46 3.62667 3.46 3.68C3.46 3.68667 3.64 3.69 4 3.69H4.54L4.58 3.72C4.60667 3.75333 4.60333 3.84333 4.57 3.99C4.53667 4.13667 4.50667 4.21667 4.48 4.23C4.46 4.24333 4.26667 4.25 3.9 4.25C3.53333 4.25 3.35 4.25667 3.35 4.27L3.09 5.59L2.79 7.14C2.61 8.00667 2.43667 8.62667 2.27 9C2.05667 9.49333 1.78333 9.81667 1.45 9.97C1.35667 10.0167 1.25667 10.0433 1.15 10.05C0.856667 10.0633 0.623333 9.97333 0.45 9.78C0.436667 9.77333 0.426667 9.76333 0.42 9.75C0.326667 9.61667 0.28 9.47 0.28 9.31C0.28 9.18333 0.306667 9.06667 0.36 8.96C0.386667 8.89333 0.426667 8.83667 0.48 8.79C0.546667 8.72333 0.603333 8.68 0.65 8.66C0.836667 8.57333 1.01333 8.57 1.18 8.65C1.34667 8.73667 1.40667 8.89 1.36 9.11C1.35333 9.13667 1.34667 9.16333 1.34 9.19C1.29333 9.34333 1.21 9.45667 1.09 9.53C1.05 9.55667 1.07333 9.57 1.16 9.57C1.21333 9.57 1.25333 9.56 1.28 9.54C1.36667 9.47333 1.43333 9.3 1.48 9.02C1.54667 8.6 1.64667 8.12667 1.78 7.6L1.98 6.7C2.29333 5.02667 2.45 4.21333 2.45 4.26C2.45 4.25333 2.29667 4.25 1.99 4.25C1.66333 4.25 1.48667 4.22667 1.46 4.18C1.44667 4.16 1.45667 4.08333 1.49 3.95C1.52333 3.81667 1.55 3.74 1.57 3.72L1.6 3.69H2.08H2.56V3.67L2.66 3.18C2.79333 2.48667 2.92333 2.00333 3.05 1.73C3.25667 1.31 3.56667 1.05333 3.98 0.959999ZM8.27641 0.539999L8.33641 0.499999H8.50641H8.67641L8.70641 0.53C8.72641 0.55 8.73641 0.573333 8.73641 0.6C8.73641 0.62 8.70307 0.66 8.63641 0.72C8.45641 0.893333 8.29974 1.05 8.16641 1.19C7.27307 2.18333 6.59974 3.50333 6.14641 5.15C5.91974 5.95667 5.77307 6.71333 5.70641 7.42C5.67307 7.81333 5.66974 8.15333 5.69641 8.44C5.74307 9.15333 5.91974 9.77 6.22641 10.29C6.27307 10.37 6.28974 10.4233 6.27641 10.45C6.24974 10.4833 6.16974 10.5 6.03641 10.5H5.87641L5.82641 10.46C5.71974 10.3467 5.58974 10.1533 5.43641 9.88C5.20974 9.46 5.06307 8.98333 4.99641 8.45C4.87641 7.57667 4.96307 6.56333 5.25641 5.41C5.68307 3.79667 6.35641 2.48 7.27641 1.46C7.58307 1.11333 7.90307 0.816666 8.23641 0.57C8.24974 0.556666 8.26307 0.546666 8.27641 0.539999ZM9.8582 3.59C10.0849 3.55667 10.3149 3.59 10.5482 3.69C10.7282 3.77 10.8649 3.88333 10.9582 4.03L10.9982 4.08L11.0382 4.02C11.2049 3.82 11.4082 3.68333 11.6482 3.61C11.9415 3.53 12.2082 3.58333 12.4482 3.77C12.4949 3.80333 12.5349 3.84 12.5682 3.88C12.6482 3.97333 12.7015 4.08333 12.7282 4.21C12.7949 4.43 12.7782 4.64667 12.6782 4.86C12.5715 5.08667 12.3915 5.21333 12.1382 5.24C11.9249 5.26 11.7782 5.18333 11.6982 5.01C11.6782 4.97667 11.6649 4.92333 11.6582 4.85C11.6582 4.73667 11.6815 4.63333 11.7282 4.54C11.7815 4.42 11.8782 4.32333 12.0182 4.25C12.0782 4.22333 12.1082 4.20333 12.1082 4.19C12.0815 4.15 12.0349 4.11333 11.9682 4.08C11.9349 4.06667 11.8849 4.06 11.8182 4.06C11.7515 4.06 11.7015 4.06667 11.6682 4.08C11.5015 4.17333 11.3715 4.35 11.2782 4.61L10.6982 6.92C10.6515 7.12667 10.6415 7.28 10.6682 7.38C10.7215 7.56 10.8649 7.64667 11.0982 7.64C11.1782 7.63333 11.2549 7.61667 11.3282 7.59C11.5949 7.49 11.8149 7.26 11.9882 6.9C12.0349 6.80667 12.0715 6.71333 12.0982 6.62C12.1249 6.53333 12.1549 6.48667 12.1882 6.48C12.2082 6.47333 12.2782 6.47 12.3982 6.47C12.5449 6.47 12.6249 6.47667 12.6382 6.49C12.6715 6.51667 12.6749 6.57333 12.6482 6.66C12.5949 6.88 12.5015 7.08333 12.3682 7.27C12.0215 7.77667 11.5982 8.05667 11.0982 8.11C11.0849 8.11 11.0715 8.11 11.0582 8.11C10.6715 8.13 10.3615 8.00333 10.1282 7.73C10.1149 7.72333 10.1049 7.71333 10.0982 7.7C10.0582 7.65333 10.0349 7.62667 10.0282 7.62L9.9682 7.69C9.87487 7.79667 9.78154 7.87667 9.6882 7.93C9.4882 8.05667 9.29154 8.11667 9.0982 8.11C8.97154 8.10333 8.84487 8.07 8.7182 8.01C8.50487 7.91 8.36487 7.73 8.2982 7.47C8.22487 7.13667 8.28487 6.86 8.4782 6.64C8.66487 6.46 8.8682 6.40333 9.0882 6.47C9.1682 6.49667 9.23154 6.53667 9.2782 6.59C9.40487 6.73 9.41154 6.91667 9.2982 7.15C9.2382 7.27667 9.14487 7.37333 9.0182 7.44C8.9582 7.47333 8.92487 7.49 8.9182 7.49C8.9182 7.51667 8.9682 7.55667 9.0682 7.61C9.09487 7.62333 9.14154 7.63 9.2082 7.63C9.27487 7.63 9.32487 7.62333 9.3582 7.61C9.52487 7.52333 9.65154 7.35 9.7382 7.09L10.3382 4.73C10.3515 4.66333 10.3582 4.57 10.3582 4.45C10.3582 4.35667 10.3515 4.29333 10.3382 4.26C10.2582 4.08667 10.0882 4.02333 9.8282 4.07C9.58154 4.11667 9.36154 4.28333 9.1682 4.57C9.05487 4.75 8.97154 4.93667 8.9182 5.13C8.8982 5.17 8.88487 5.19333 8.8782 5.2C8.86487 5.21333 8.78487 5.22 8.6382 5.22H8.4182L8.3882 5.19C8.3682 5.17 8.3582 5.14333 8.3582 5.11C8.38487 4.93667 8.4782 4.72667 8.6382 4.48C8.64487 4.46667 8.65154 4.45333 8.6582 4.44C8.95154 3.98 9.3282 3.7 9.7882 3.6C9.81487 3.6 9.8382 3.59667 9.8582 3.59ZM14.9669 0.51C14.9802 0.503333 15.0435 0.499999 15.1569 0.499999H15.3269L15.3769 0.539999C15.4835 0.653333 15.6135 0.846666 15.7669 1.12C15.9869 1.53333 16.1335 2.00667 16.2069 2.54C16.3269 3.42667 16.2402 4.44 15.9469 5.58C15.5202 7.2 14.8469 8.52 13.9269 9.54C13.6202 9.88667 13.3002 10.1833 12.9669 10.43C12.9535 10.4433 12.9402 10.4533 12.9269 10.46L12.8669 10.5H12.6969H12.5269L12.4969 10.47C12.4769 10.45 12.4669 10.4267 12.4669 10.4C12.4669 10.38 12.5002 10.34 12.5669 10.28C12.7669 10.0933 12.9235 9.93333 13.0369 9.8C13.9302 8.81333 14.6035 7.49333 15.0569 5.84C15.2769 5.04667 15.4235 4.29333 15.4969 3.58C15.5302 3.19333 15.5335 2.85 15.5069 2.55C15.4602 1.84333 15.2835 1.23 14.9769 0.71C14.9369 0.643333 14.9169 0.606666 14.9169 0.6C14.9169 0.56 14.9335 0.53 14.9669 0.51Z" fill="white"/>
<path d="M8.26517 14.7348C8.11872 14.5884 7.88128 14.5884 7.73484 14.7348L5.34835 17.1213C5.2019 17.2678 5.2019 17.5052 5.34835 17.6517C5.4948 17.7981 5.73223 17.7981 5.87868 17.6517L8 15.5303L10.1213 17.6517C10.2678 17.7981 10.5052 17.7981 10.6517 17.6517C10.7981 17.5052 10.7981 17.2678 10.6517 17.1213L8.26517 14.7348ZM7.73483 65.2652C7.88128 65.4116 8.11872 65.4116 8.26516 65.2652L10.6517 62.8787C10.7981 62.7322 10.7981 62.4948 10.6517 62.3483C10.5052 62.2019 10.2678 62.2019 10.1213 62.3483L8 64.4697L5.87868 62.3483C5.73223 62.2019 5.4948 62.2019 5.34835 62.3483C5.2019 62.4948 5.2019 62.7322 5.34835 62.8787L7.73483 65.2652ZM8 15L7.625 15L7.625 65L8 65L8.375 65L8.375 15L8 15Z" fill="white" fill-opacity="0.5"/>
<circle cx="8.5" cy="76.5" r="6.2" stroke="white" stroke-width="0.6"/>
<path d="M6 75.25L10.5 72.5V69M6 77.75L10.5 80.5V84M6 74V76.5M6 79V76.5M6 76.5H0" stroke="white" stroke-width="0.6"/>
<path d="M7.94404 79.8445L8.90775 78.3837L9.88664 80.0778L7.94404 79.8445Z" fill="white"/>
<path d="M22.22 77V74.2H22.652V77H22.22ZM20.392 77V74.2H20.824V77H20.392ZM20.58 75.812V75.396H22.412V75.812H20.58ZM24.139 77.04C23.9656 77.04 23.807 76.992 23.663 76.896C23.5216 76.8 23.4083 76.6693 23.323 76.504C23.2376 76.3387 23.195 76.152 23.195 75.944C23.195 75.7333 23.2376 75.5467 23.323 75.384C23.411 75.2187 23.5283 75.0893 23.675 74.996C23.8243 74.9027 23.991 74.856 24.175 74.856C24.2843 74.856 24.3843 74.872 24.475 74.904C24.5656 74.936 24.6443 74.9813 24.711 75.04C24.7803 75.096 24.8363 75.1613 24.879 75.236C24.9243 75.3107 24.9523 75.3907 24.963 75.476L24.871 75.444V74.9H25.287V77H24.871V76.5L24.967 76.472C24.951 76.544 24.9176 76.6147 24.867 76.684C24.819 76.7507 24.7563 76.8107 24.679 76.864C24.6043 76.9173 24.5203 76.96 24.427 76.992C24.3363 77.024 24.2403 77.04 24.139 77.04ZM24.247 76.66C24.3723 76.66 24.483 76.6293 24.579 76.568C24.675 76.5067 24.7496 76.4227 24.803 76.316C24.859 76.2067 24.887 76.0827 24.887 75.944C24.887 75.808 24.859 75.6867 24.803 75.58C24.7496 75.4733 24.675 75.3893 24.579 75.328C24.483 75.2667 24.3723 75.236 24.247 75.236C24.1243 75.236 24.015 75.2667 23.919 75.328C23.8256 75.3893 23.751 75.4733 23.695 75.58C23.6416 75.6867 23.615 75.808 23.615 75.944C23.615 76.0827 23.6416 76.2067 23.695 76.316C23.751 76.4227 23.8256 76.5067 23.919 76.568C24.015 76.6293 24.1243 76.66 24.247 76.66ZM25.8622 77V74.9H26.2782V75.56L26.2382 75.4C26.2676 75.2987 26.3169 75.2067 26.3862 75.124C26.4582 75.0413 26.5396 74.976 26.6302 74.928C26.7236 74.88 26.8196 74.856 26.9182 74.856C26.9636 74.856 27.0062 74.86 27.0462 74.868C27.0889 74.876 27.1222 74.8853 27.1462 74.896L27.0382 75.344C27.0062 75.3307 26.9702 75.32 26.9302 75.312C26.8929 75.3013 26.8556 75.296 26.8182 75.296C26.7462 75.296 26.6769 75.3107 26.6102 75.34C26.5462 75.3667 26.4889 75.4053 26.4382 75.456C26.3902 75.504 26.3516 75.5613 26.3222 75.628C26.2929 75.692 26.2782 75.7627 26.2782 75.84V77H25.8622ZM28.2617 77.04C28.0697 77.04 27.8977 76.9933 27.7457 76.9C27.5963 76.804 27.4777 76.6747 27.3897 76.512C27.3017 76.3467 27.2577 76.1587 27.2577 75.948C27.2577 75.7373 27.3003 75.5507 27.3857 75.388C27.4737 75.2227 27.5923 75.0933 27.7417 75C27.891 74.904 28.0603 74.856 28.2497 74.856C28.3537 74.856 28.4537 74.8733 28.5497 74.908C28.6483 74.94 28.7363 74.9853 28.8137 75.044C28.891 75.1 28.951 75.1627 28.9937 75.232C29.039 75.2987 29.0617 75.3667 29.0617 75.436L28.9417 75.444V74.04H29.3537V77H28.9417V76.5H29.0217C29.0217 76.564 29.0003 76.628 28.9577 76.692C28.915 76.7533 28.8577 76.8107 28.7857 76.864C28.7163 76.9173 28.635 76.96 28.5417 76.992C28.451 77.024 28.3577 77.04 28.2617 77.04ZM28.3177 76.684C28.443 76.684 28.5537 76.652 28.6497 76.588C28.7457 76.524 28.8203 76.4373 28.8737 76.328C28.9297 76.216 28.9577 76.0893 28.9577 75.948C28.9577 75.8067 28.9297 75.6813 28.8737 75.572C28.8203 75.46 28.7457 75.372 28.6497 75.308C28.5537 75.244 28.443 75.212 28.3177 75.212C28.1923 75.212 28.0817 75.244 27.9857 75.308C27.8897 75.372 27.8137 75.46 27.7577 75.572C27.7043 75.6813 27.6777 75.8067 27.6777 75.948C27.6777 76.0893 27.7043 76.216 27.7577 76.328C27.8137 76.4373 27.8897 76.524 27.9857 76.588C28.0817 76.652 28.1923 76.684 28.3177 76.684ZM30.4368 77L29.7208 74.9L30.1368 74.896L30.6488 76.468L30.5568 76.46L31.1128 75.232H31.3608L31.9208 76.464L31.8128 76.472L32.3288 74.9H32.7448L32.0368 77H31.7528L31.1688 75.664L31.2608 75.676L30.7168 77H30.4368ZM33.8694 77.04C33.6961 77.04 33.5374 76.992 33.3934 76.896C33.2521 76.8 33.1388 76.6693 33.0534 76.504C32.9681 76.3387 32.9254 76.152 32.9254 75.944C32.9254 75.7333 32.9681 75.5467 33.0534 75.384C33.1414 75.2187 33.2588 75.0893 33.4054 74.996C33.5548 74.9027 33.7214 74.856 33.9054 74.856C34.0148 74.856 34.1148 74.872 34.2054 74.904C34.2961 74.936 34.3748 74.9813 34.4414 75.04C34.5108 75.096 34.5668 75.1613 34.6094 75.236C34.6548 75.3107 34.6828 75.3907 34.6934 75.476L34.6014 75.444V74.9H35.0174V77H34.6014V76.5L34.6974 76.472C34.6814 76.544 34.6481 76.6147 34.5974 76.684C34.5494 76.7507 34.4868 76.8107 34.4094 76.864C34.3348 76.9173 34.2508 76.96 34.1574 76.992C34.0668 77.024 33.9708 77.04 33.8694 77.04ZM33.9774 76.66C34.1028 76.66 34.2134 76.6293 34.3094 76.568C34.4054 76.5067 34.4801 76.4227 34.5334 76.316C34.5894 76.2067 34.6174 76.0827 34.6174 75.944C34.6174 75.808 34.5894 75.6867 34.5334 75.58C34.4801 75.4733 34.4054 75.3893 34.3094 75.328C34.2134 75.2667 34.1028 75.236 33.9774 75.236C33.8548 75.236 33.7454 75.2667 33.6494 75.328C33.5561 75.3893 33.4814 75.4733 33.4254 75.58C33.3721 75.6867 33.3454 75.808 33.3454 75.944C33.3454 76.0827 33.3721 76.2067 33.4254 76.316C33.4814 76.4227 33.5561 76.5067 33.6494 76.568C33.7454 76.6293 33.8548 76.66 33.9774 76.66ZM35.5927 77V74.9H36.0087V75.56L35.9687 75.4C35.998 75.2987 36.0474 75.2067 36.1167 75.124C36.1887 75.0413 36.27 74.976 36.3607 74.928C36.454 74.88 36.55 74.856 36.6487 74.856C36.694 74.856 36.7367 74.86 36.7767 74.868C36.8194 74.876 36.8527 74.8853 36.8767 74.896L36.7687 75.344C36.7367 75.3307 36.7007 75.32 36.6607 75.312C36.6234 75.3013 36.586 75.296 36.5487 75.296C36.4767 75.296 36.4074 75.3107 36.3407 75.34C36.2767 75.3667 36.2194 75.4053 36.1687 75.456C36.1207 75.504 36.082 75.5613 36.0527 75.628C36.0234 75.692 36.0087 75.7627 36.0087 75.84V77H35.5927ZM38.0961 77.04C37.8801 77.04 37.6881 76.9947 37.5201 76.904C37.3548 76.8107 37.2241 76.684 37.1281 76.524C37.0348 76.364 36.9881 76.18 36.9881 75.972C36.9881 75.8067 37.0148 75.656 37.0681 75.52C37.1215 75.384 37.1948 75.2667 37.2881 75.168C37.3841 75.0667 37.4975 74.9893 37.6281 74.936C37.7615 74.88 37.9055 74.852 38.0601 74.852C38.1961 74.852 38.3228 74.8787 38.4401 74.932C38.5575 74.9827 38.6588 75.0533 38.7441 75.144C38.8321 75.2347 38.8988 75.3427 38.9441 75.468C38.9921 75.5907 39.0148 75.7253 39.0121 75.872L39.0081 76.048H37.2921L37.2001 75.72H38.6521L38.5921 75.788V75.692C38.5841 75.604 38.5548 75.5253 38.5041 75.456C38.4535 75.3867 38.3895 75.332 38.3121 75.292C38.2348 75.252 38.1508 75.232 38.0601 75.232C37.9161 75.232 37.7948 75.26 37.6961 75.316C37.5975 75.3693 37.5228 75.4493 37.4721 75.556C37.4215 75.66 37.3961 75.7893 37.3961 75.944C37.3961 76.0907 37.4268 76.2187 37.4881 76.328C37.5495 76.4347 37.6361 76.5173 37.7481 76.576C37.8601 76.6347 37.9895 76.664 38.1361 76.664C38.2401 76.664 38.3361 76.6467 38.4241 76.612C38.5148 76.5773 38.6121 76.5147 38.7161 76.424L38.9241 76.716C38.8601 76.78 38.7815 76.836 38.6881 76.884C38.5975 76.932 38.5001 76.9707 38.3961 77C38.2948 77.0267 38.1948 77.04 38.0961 77.04Z" fill="white"/>
<path d="M22.22 77V74.2H22.652V77H22.22ZM20.392 77V74.2H20.824V77H20.392ZM20.58 75.812V75.396H22.412V75.812H20.58ZM24.139 77.04C23.9656 77.04 23.807 76.992 23.663 76.896C23.5216 76.8 23.4083 76.6693 23.323 76.504C23.2376 76.3387 23.195 76.152 23.195 75.944C23.195 75.7333 23.2376 75.5467 23.323 75.384C23.411 75.2187 23.5283 75.0893 23.675 74.996C23.8243 74.9027 23.991 74.856 24.175 74.856C24.2843 74.856 24.3843 74.872 24.475 74.904C24.5656 74.936 24.6443 74.9813 24.711 75.04C24.7803 75.096 24.8363 75.1613 24.879 75.236C24.9243 75.3107 24.9523 75.3907 24.963 75.476L24.871 75.444V74.9H25.287V77H24.871V76.5L24.967 76.472C24.951 76.544 24.9176 76.6147 24.867 76.684C24.819 76.7507 24.7563 76.8107 24.679 76.864C24.6043 76.9173 24.5203 76.96 24.427 76.992C24.3363 77.024 24.2403 77.04 24.139 77.04ZM24.247 76.66C24.3723 76.66 24.483 76.6293 24.579 76.568C24.675 76.5067 24.7496 76.4227 24.803 76.316C24.859 76.2067 24.887 76.0827 24.887 75.944C24.887 75.808 24.859 75.6867 24.803 75.58C24.7496 75.4733 24.675 75.3893 24.579 75.328C24.483 75.2667 24.3723 75.236 24.247 75.236C24.1243 75.236 24.015 75.2667 23.919 75.328C23.8256 75.3893 23.751 75.4733 23.695 75.58C23.6416 75.6867 23.615 75.808 23.615 75.944C23.615 76.0827 23.6416 76.2067 23.695 76.316C23.751 76.4227 23.8256 76.5067 23.919 76.568C24.015 76.6293 24.1243 76.66 24.247 76.66ZM25.8622 77V74.9H26.2782V75.56L26.2382 75.4C26.2676 75.2987 26.3169 75.2067 26.3862 75.124C26.4582 75.0413 26.5396 74.976 26.6302 74.928C26.7236 74.88 26.8196 74.856 26.9182 74.856C26.9636 74.856 27.0062 74.86 27.0462 74.868C27.0889 74.876 27.1222 74.8853 27.1462 74.896L27.0382 75.344C27.0062 75.3307 26.9702 75.32 26.9302 75.312C26.8929 75.3013 26.8556 75.296 26.8182 75.296C26.7462 75.296 26.6769 75.3107 26.6102 75.34C26.5462 75.3667 26.4889 75.4053 26.4382 75.456C26.3902 75.504 26.3516 75.5613 26.3222 75.628C26.2929 75.692 26.2782 75.7627 26.2782 75.84V77H25.8622ZM28.2617 77.04C28.0697 77.04 27.8977 76.9933 27.7457 76.9C27.5963 76.804 27.4777 76.6747 27.3897 76.512C27.3017 76.3467 27.2577 76.1587 27.2577 75.948C27.2577 75.7373 27.3003 75.5507 27.3857 75.388C27.4737 75.2227 27.5923 75.0933 27.7417 75C27.891 74.904 28.0603 74.856 28.2497 74.856C28.3537 74.856 28.4537 74.8733 28.5497 74.908C28.6483 74.94 28.7363 74.9853 28.8137 75.044C28.891 75.1 28.951 75.1627 28.9937 75.232C29.039 75.2987 29.0617 75.3667 29.0617 75.436L28.9417 75.444V74.04H29.3537V77H28.9417V76.5H29.0217C29.0217 76.564 29.0003 76.628 28.9577 76.692C28.915 76.7533 28.8577 76.8107 28.7857 76.864C28.7163 76.9173 28.635 76.96 28.5417 76.992C28.451 77.024 28.3577 77.04 28.2617 77.04ZM28.3177 76.684C28.443 76.684 28.5537 76.652 28.6497 76.588C28.7457 76.524 28.8203 76.4373 28.8737 76.328C28.9297 76.216 28.9577 76.0893 28.9577 75.948C28.9577 75.8067 28.9297 75.6813 28.8737 75.572C28.8203 75.46 28.7457 75.372 28.6497 75.308C28.5537 75.244 28.443 75.212 28.3177 75.212C28.1923 75.212 28.0817 75.244 27.9857 75.308C27.8897 75.372 27.8137 75.46 27.7577 75.572C27.7043 75.6813 27.6777 75.8067 27.6777 75.948C27.6777 76.0893 27.7043 76.216 27.7577 76.328C27.8137 76.4373 27.8897 76.524 27.9857 76.588C28.0817 76.652 28.1923 76.684 28.3177 76.684ZM30.4368 77L29.7208 74.9L30.1368 74.896L30.6488 76.468L30.5568 76.46L31.1128 75.232H31.3608L31.9208 76.464L31.8128 76.472L32.3288 74.9H32.7448L32.0368 77H31.7528L31.1688 75.664L31.2608 75.676L30.7168 77H30.4368ZM33.8694 77.04C33.6961 77.04 33.5374 76.992 33.3934 76.896C33.2521 76.8 33.1388 76.6693 33.0534 76.504C32.9681 76.3387 32.9254 76.152 32.9254 75.944C32.9254 75.7333 32.9681 75.5467 33.0534 75.384C33.1414 75.2187 33.2588 75.0893 33.4054 74.996C33.5548 74.9027 33.7214 74.856 33.9054 74.856C34.0148 74.856 34.1148 74.872 34.2054 74.904C34.2961 74.936 34.3748 74.9813 34.4414 75.04C34.5108 75.096 34.5668 75.1613 34.6094 75.236C34.6548 75.3107 34.6828 75.3907 34.6934 75.476L34.6014 75.444V74.9H35.0174V77H34.6014V76.5L34.6974 76.472C34.6814 76.544 34.6481 76.6147 34.5974 76.684C34.5494 76.7507 34.4868 76.8107 34.4094 76.864C34.3348 76.9173 34.2508 76.96 34.1574 76.992C34.0668 77.024 33.9708 77.04 33.8694 77.04ZM33.9774 76.66C34.1028 76.66 34.2134 76.6293 34.3094 76.568C34.4054 76.5067 34.4801 76.4227 34.5334 76.316C34.5894 76.2067 34.6174 76.0827 34.6174 75.944C34.6174 75.808 34.5894 75.6867 34.5334 75.58C34.4801 75.4733 34.4054 75.3893 34.3094 75.328C34.2134 75.2667 34.1028 75.236 33.9774 75.236C33.8548 75.236 33.7454 75.2667 33.6494 75.328C33.5561 75.3893 33.4814 75.4733 33.4254 75.58C33.3721 75.6867 33.3454 75.808 33.3454 75.944C33.3454 76.0827 33.3721 76.2067 33.4254 76.316C33.4814 76.4227 33.5561 76.5067 33.6494 76.568C33.7454 76.6293 33.8548 76.66 33.9774 76.66ZM35.5927 77V74.9H36.0087V75.56L35.9687 75.4C35.998 75.2987 36.0474 75.2067 36.1167 75.124C36.1887 75.0413 36.27 74.976 36.3607 74.928C36.454 74.88 36.55 74.856 36.6487 74.856C36.694 74.856 36.7367 74.86 36.7767 74.868C36.8194 74.876 36.8527 74.8853 36.8767 74.896L36.7687 75.344C36.7367 75.3307 36.7007 75.32 36.6607 75.312C36.6234 75.3013 36.586 75.296 36.5487 75.296C36.4767 75.296 36.4074 75.3107 36.3407 75.34C36.2767 75.3667 36.2194 75.4053 36.1687 75.456C36.1207 75.504 36.082 75.5613 36.0527 75.628C36.0234 75.692 36.0087 75.7627 36.0087 75.84V77H35.5927ZM38.0961 77.04C37.8801 77.04 37.6881 76.9947 37.5201 76.904C37.3548 76.8107 37.2241 76.684 37.1281 76.524C37.0348 76.364 36.9881 76.18 36.9881 75.972C36.9881 75.8067 37.0148 75.656 37.0681 75.52C37.1215 75.384 37.1948 75.2667 37.2881 75.168C37.3841 75.0667 37.4975 74.9893 37.6281 74.936C37.7615 74.88 37.9055 74.852 38.0601 74.852C38.1961 74.852 38.3228 74.8787 38.4401 74.932C38.5575 74.9827 38.6588 75.0533 38.7441 75.144C38.8321 75.2347 38.8988 75.3427 38.9441 75.468C38.9921 75.5907 39.0148 75.7253 39.0121 75.872L39.0081 76.048H37.2921L37.2001 75.72H38.6521L38.5921 75.788V75.692C38.5841 75.604 38.5548 75.5253 38.5041 75.456C38.4535 75.3867 38.3895 75.332 38.3121 75.292C38.2348 75.252 38.1508 75.232 38.0601 75.232C37.9161 75.232 37.7948 75.26 37.6961 75.316C37.5975 75.3693 37.5228 75.4493 37.4721 75.556C37.4215 75.66 37.3961 75.7893 37.3961 75.944C37.3961 76.0907 37.4268 76.2187 37.4881 76.328C37.5495 76.4347 37.6361 76.5173 37.7481 76.576C37.8601 76.6347 37.9895 76.664 38.1361 76.664C38.2401 76.664 38.3361 76.6467 38.4241 76.612C38.5148 76.5773 38.6121 76.5147 38.7161 76.424L38.9241 76.716C38.8601 76.78 38.7815 76.836 38.6881 76.884C38.5975 76.932 38.5001 76.9707 38.3961 77C38.2948 77.0267 38.1948 77.04 38.0961 77.04Z" fill="white"/>
<path d="M22.256 63.04C22.104 63.04 21.9627 63.02 21.832 62.98C21.704 62.94 21.5867 62.88 21.48 62.8C21.376 62.7173 21.2827 62.616 21.2 62.496L21.496 62.156C21.6267 62.3427 21.752 62.472 21.872 62.544C21.992 62.616 22.1347 62.652 22.3 62.652C22.4013 62.652 22.4933 62.636 22.576 62.604C22.6587 62.572 22.724 62.528 22.772 62.472C22.82 62.416 22.844 62.352 22.844 62.28C22.844 62.232 22.836 62.1867 22.82 62.144C22.804 62.1013 22.7787 62.0627 22.744 62.028C22.712 61.9933 22.6693 61.9613 22.616 61.932C22.5653 61.9027 22.5053 61.8773 22.436 61.856C22.3667 61.832 22.2867 61.812 22.196 61.796C22.052 61.7667 21.9267 61.728 21.82 61.68C21.7133 61.632 21.624 61.572 21.552 61.5C21.48 61.428 21.4267 61.3467 21.392 61.256C21.3573 61.1627 21.34 61.0587 21.34 60.944C21.34 60.832 21.364 60.728 21.412 60.632C21.4627 60.536 21.5307 60.4533 21.616 60.384C21.704 60.312 21.8067 60.2573 21.924 60.22C22.0413 60.18 22.168 60.16 22.304 60.16C22.448 60.16 22.58 60.1787 22.7 60.216C22.82 60.2533 22.9267 60.3093 23.02 60.384C23.1133 60.456 23.1907 60.5453 23.252 60.652L22.948 60.952C22.8947 60.864 22.8347 60.7907 22.768 60.732C22.7013 60.6707 22.628 60.6253 22.548 60.596C22.468 60.564 22.3827 60.548 22.292 60.548C22.188 60.548 22.0973 60.564 22.02 60.596C21.9427 60.628 21.8813 60.6733 21.836 60.732C21.7933 60.788 21.772 60.8547 21.772 60.932C21.772 60.988 21.7827 61.04 21.804 61.088C21.8253 61.1333 21.8573 61.1747 21.9 61.212C21.9453 61.2467 22.0053 61.2787 22.08 61.308C22.1547 61.3347 22.244 61.3587 22.348 61.38C22.4947 61.412 22.6253 61.4533 22.74 61.504C22.8547 61.552 22.952 61.6093 23.032 61.676C23.112 61.7427 23.172 61.8173 23.212 61.9C23.2547 61.9827 23.276 62.072 23.276 62.168C23.276 62.3467 23.2347 62.5013 23.152 62.632C23.0693 62.7627 22.952 62.864 22.8 62.936C22.648 63.0053 22.4667 63.04 22.256 63.04ZM24.1361 63.92L24.5601 62.94L24.5641 63.268L23.5161 60.9H23.9961L24.6521 62.444C24.6654 62.4707 24.6814 62.512 24.7001 62.568C24.7188 62.6213 24.7348 62.6747 24.7481 62.728L24.6441 62.752C24.6654 62.696 24.6854 62.64 24.7041 62.584C24.7254 62.528 24.7454 62.472 24.7641 62.416L25.3121 60.9H25.8001L24.9361 63L24.5801 63.92H24.1361ZM26.7693 63.04C26.5933 63.04 26.4346 63.0093 26.2933 62.948C26.1519 62.8867 26.0346 62.796 25.9413 62.676L26.2213 62.436C26.3013 62.5293 26.3879 62.5973 26.4813 62.64C26.5773 62.68 26.6853 62.7 26.8053 62.7C26.8533 62.7 26.8973 62.6947 26.9373 62.684C26.9799 62.6707 27.0159 62.652 27.0453 62.628C27.0773 62.604 27.1013 62.576 27.1173 62.544C27.1333 62.5093 27.1413 62.472 27.1413 62.432C27.1413 62.3627 27.1159 62.3067 27.0653 62.264C27.0386 62.2453 26.9959 62.2253 26.9373 62.204C26.8813 62.18 26.8079 62.156 26.7173 62.132C26.5626 62.092 26.4359 62.0467 26.3373 61.996C26.2386 61.9453 26.1626 61.888 26.1093 61.824C26.0693 61.7733 26.0399 61.7187 26.0213 61.66C26.0026 61.5987 25.9933 61.532 25.9933 61.46C25.9933 61.372 26.0119 61.292 26.0493 61.22C26.0893 61.1453 26.1426 61.0813 26.2093 61.028C26.2786 60.972 26.3586 60.9293 26.4493 60.9C26.5426 60.8707 26.6413 60.856 26.7453 60.856C26.8439 60.856 26.9413 60.8693 27.0373 60.896C27.1359 60.9227 27.2266 60.9613 27.3093 61.012C27.3919 61.0627 27.4613 61.1227 27.5173 61.192L27.2813 61.452C27.2306 61.4013 27.1746 61.3573 27.1133 61.32C27.0546 61.28 26.9946 61.2493 26.9333 61.228C26.8719 61.2067 26.8159 61.196 26.7653 61.196C26.7093 61.196 26.6586 61.2013 26.6133 61.212C26.5679 61.2227 26.5293 61.2387 26.4973 61.26C26.4679 61.2813 26.4453 61.308 26.4293 61.34C26.4133 61.372 26.4053 61.408 26.4053 61.448C26.4079 61.4827 26.4159 61.516 26.4293 61.548C26.4453 61.5773 26.4666 61.6027 26.4933 61.624C26.5226 61.6453 26.5666 61.668 26.6253 61.692C26.6839 61.716 26.7586 61.7387 26.8493 61.76C26.9826 61.7947 27.0919 61.8333 27.1773 61.876C27.2653 61.916 27.3346 61.9627 27.3853 62.016C27.4386 62.0667 27.4759 62.1253 27.4973 62.192C27.5186 62.2587 27.5293 62.3333 27.5293 62.416C27.5293 62.536 27.4946 62.644 27.4253 62.74C27.3586 62.8333 27.2679 62.9067 27.1533 62.96C27.0386 63.0133 26.9106 63.04 26.7693 63.04ZM28.2433 63V60.364H28.6553V63H28.2433ZM27.8073 61.3V60.9H29.1433V61.3H27.8073ZM30.4789 63.04C30.2629 63.04 30.0709 62.9947 29.9029 62.904C29.7376 62.8107 29.6069 62.684 29.5109 62.524C29.4176 62.364 29.3709 62.18 29.3709 61.972C29.3709 61.8067 29.3976 61.656 29.4509 61.52C29.5043 61.384 29.5776 61.2667 29.6709 61.168C29.7669 61.0667 29.8803 60.9893 30.0109 60.936C30.1443 60.88 30.2883 60.852 30.4429 60.852C30.5789 60.852 30.7056 60.8787 30.8229 60.932C30.9403 60.9827 31.0416 61.0533 31.1269 61.144C31.2149 61.2347 31.2816 61.3427 31.3269 61.468C31.3749 61.5907 31.3976 61.7253 31.3949 61.872L31.3909 62.048H29.6749L29.5829 61.72H31.0349L30.9749 61.788V61.692C30.9669 61.604 30.9376 61.5253 30.8869 61.456C30.8363 61.3867 30.7723 61.332 30.6949 61.292C30.6176 61.252 30.5336 61.232 30.4429 61.232C30.2989 61.232 30.1776 61.26 30.0789 61.316C29.9803 61.3693 29.9056 61.4493 29.8549 61.556C29.8043 61.66 29.7789 61.7893 29.7789 61.944C29.7789 62.0907 29.8096 62.2187 29.8709 62.328C29.9323 62.4347 30.0189 62.5173 30.1309 62.576C30.2429 62.6347 30.3723 62.664 30.5189 62.664C30.6229 62.664 30.7189 62.6467 30.8069 62.612C30.8976 62.5773 30.9949 62.5147 31.0989 62.424L31.3069 62.716C31.2429 62.78 31.1643 62.836 31.0709 62.884C30.9803 62.932 30.8829 62.9707 30.7789 63C30.6776 63.0267 30.5776 63.04 30.4789 63.04ZM31.8347 63V60.9H32.2507V61.348L32.1747 61.396C32.196 61.3267 32.2294 61.26 32.2747 61.196C32.3227 61.132 32.38 61.076 32.4467 61.028C32.516 60.9773 32.5894 60.9373 32.6667 60.908C32.7467 60.8787 32.828 60.864 32.9107 60.864C33.0307 60.864 33.136 60.884 33.2267 60.924C33.3174 60.964 33.392 61.024 33.4507 61.104C33.5094 61.184 33.552 61.284 33.5787 61.404L33.5147 61.388L33.5427 61.32C33.572 61.2587 33.612 61.2013 33.6627 61.148C33.716 61.092 33.776 61.0427 33.8427 61C33.9094 60.9573 33.98 60.924 34.0547 60.9C34.1294 60.876 34.2027 60.864 34.2747 60.864C34.432 60.864 34.5614 60.896 34.6627 60.96C34.7667 61.024 34.844 61.1213 34.8947 61.252C34.948 61.3827 34.9747 61.5453 34.9747 61.74V63H34.5587V61.764C34.5587 61.644 34.5427 61.5467 34.5107 61.472C34.4814 61.3947 34.436 61.3373 34.3747 61.3C34.3134 61.2627 34.2347 61.244 34.1387 61.244C34.064 61.244 33.9934 61.2573 33.9267 61.284C33.8627 61.308 33.8067 61.3427 33.7587 61.388C33.7107 61.4333 33.6734 61.4867 33.6467 61.548C33.62 61.6067 33.6067 61.672 33.6067 61.744V63H33.1907V61.756C33.1907 61.6467 33.1747 61.5547 33.1427 61.48C33.1107 61.4027 33.064 61.344 33.0027 61.304C32.9414 61.264 32.8667 61.244 32.7787 61.244C32.704 61.244 32.6347 61.2573 32.5707 61.284C32.5067 61.308 32.4507 61.3427 32.4027 61.388C32.3547 61.4307 32.3174 61.4827 32.2907 61.544C32.264 61.6027 32.2507 61.6667 32.2507 61.736V63H31.8347ZM36.2263 63.04C36.0503 63.04 35.8916 63.0093 35.7503 62.948C35.6089 62.8867 35.4916 62.796 35.3983 62.676L35.6783 62.436C35.7583 62.5293 35.8449 62.5973 35.9383 62.64C36.0343 62.68 36.1423 62.7 36.2623 62.7C36.3103 62.7 36.3543 62.6947 36.3943 62.684C36.4369 62.6707 36.4729 62.652 36.5023 62.628C36.5343 62.604 36.5583 62.576 36.5743 62.544C36.5903 62.5093 36.5983 62.472 36.5983 62.432C36.5983 62.3627 36.5729 62.3067 36.5223 62.264C36.4956 62.2453 36.4529 62.2253 36.3943 62.204C36.3383 62.18 36.2649 62.156 36.1743 62.132C36.0196 62.092 35.8929 62.0467 35.7943 61.996C35.6956 61.9453 35.6196 61.888 35.5663 61.824C35.5263 61.7733 35.4969 61.7187 35.4783 61.66C35.4596 61.5987 35.4503 61.532 35.4503 61.46C35.4503 61.372 35.4689 61.292 35.5063 61.22C35.5463 61.1453 35.5996 61.0813 35.6663 61.028C35.7356 60.972 35.8156 60.9293 35.9063 60.9C35.9996 60.8707 36.0983 60.856 36.2023 60.856C36.3009 60.856 36.3983 60.8693 36.4943 60.896C36.5929 60.9227 36.6836 60.9613 36.7663 61.012C36.8489 61.0627 36.9183 61.1227 36.9743 61.192L36.7383 61.452C36.6876 61.4013 36.6316 61.3573 36.5703 61.32C36.5116 61.28 36.4516 61.2493 36.3903 61.228C36.3289 61.2067 36.2729 61.196 36.2223 61.196C36.1663 61.196 36.1156 61.2013 36.0703 61.212C36.0249 61.2227 35.9863 61.2387 35.9543 61.26C35.9249 61.2813 35.9023 61.308 35.8863 61.34C35.8703 61.372 35.8623 61.408 35.8623 61.448C35.8649 61.4827 35.8729 61.516 35.8863 61.548C35.9023 61.5773 35.9236 61.6027 35.9503 61.624C35.9796 61.6453 36.0236 61.668 36.0823 61.692C36.1409 61.716 36.2156 61.7387 36.3063 61.76C36.4396 61.7947 36.5489 61.8333 36.6343 61.876C36.7223 61.916 36.7916 61.9627 36.8423 62.016C36.8956 62.0667 36.9329 62.1253 36.9543 62.192C36.9756 62.2587 36.9863 62.3333 36.9863 62.416C36.9863 62.536 36.9516 62.644 36.8823 62.74C36.8156 62.8333 36.7249 62.9067 36.6103 62.96C36.4956 63.0133 36.3676 63.04 36.2263 63.04ZM38.5694 63V60.04H38.9814V63H38.5694ZM40.3343 63.04C40.1609 63.04 40.0023 62.992 39.8583 62.896C39.7169 62.8 39.6036 62.6693 39.5183 62.504C39.4329 62.3387 39.3903 62.152 39.3903 61.944C39.3903 61.7333 39.4329 61.5467 39.5183 61.384C39.6063 61.2187 39.7236 61.0893 39.8703 60.996C40.0196 60.9027 40.1863 60.856 40.3703 60.856C40.4796 60.856 40.5796 60.872 40.6703 60.904C40.7609 60.936 40.8396 60.9813 40.9063 61.04C40.9756 61.096 41.0316 61.1613 41.0743 61.236C41.1196 61.3107 41.1476 61.3907 41.1583 61.476L41.0663 61.444V60.9H41.4823V63H41.0663V62.5L41.1623 62.472C41.1463 62.544 41.1129 62.6147 41.0623 62.684C41.0143 62.7507 40.9516 62.8107 40.8743 62.864C40.7996 62.9173 40.7156 62.96 40.6223 62.992C40.5316 63.024 40.4356 63.04 40.3343 63.04ZM40.4423 62.66C40.5676 62.66 40.6783 62.6293 40.7743 62.568C40.8703 62.5067 40.9449 62.4227 40.9983 62.316C41.0543 62.2067 41.0823 62.0827 41.0823 61.944C41.0823 61.808 41.0543 61.6867 40.9983 61.58C40.9449 61.4733 40.8703 61.3893 40.7743 61.328C40.6783 61.2667 40.5676 61.236 40.4423 61.236C40.3196 61.236 40.2103 61.2667 40.1143 61.328C40.0209 61.3893 39.9463 61.4733 39.8903 61.58C39.8369 61.6867 39.8103 61.808 39.8103 61.944C39.8103 62.0827 39.8369 62.2067 39.8903 62.316C39.9463 62.4227 40.0209 62.5067 40.1143 62.568C40.2103 62.6293 40.3196 62.66 40.4423 62.66ZM42.0575 63V60.9H42.4695V61.332L42.3975 61.38C42.4242 61.2867 42.4762 61.2013 42.5535 61.124C42.6309 61.044 42.7229 60.98 42.8295 60.932C42.9362 60.8813 43.0455 60.856 43.1575 60.856C43.3175 60.856 43.4509 60.888 43.5575 60.952C43.6642 61.0133 43.7442 61.108 43.7975 61.236C43.8509 61.364 43.8775 61.5253 43.8775 61.72V63H43.4655V61.748C43.4655 61.628 43.4495 61.5293 43.4175 61.452C43.3855 61.372 43.3362 61.3147 43.2695 61.28C43.2029 61.2427 43.1202 61.2267 43.0215 61.232C42.9415 61.232 42.8682 61.2453 42.8015 61.272C42.7349 61.296 42.6762 61.3307 42.6255 61.376C42.5775 61.4213 42.5389 61.4747 42.5095 61.536C42.4829 61.5947 42.4695 61.6587 42.4695 61.728V63H42.2655C42.2309 63 42.1962 63 42.1615 63C42.1269 63 42.0922 63 42.0575 63ZM45.3764 63.92C45.2271 63.92 45.0778 63.896 44.9284 63.848C44.7818 63.8027 44.6631 63.7427 44.5724 63.668L44.7244 63.348C44.7778 63.388 44.8404 63.4227 44.9124 63.452C44.9844 63.484 45.0604 63.508 45.1404 63.524C45.2204 63.5427 45.2991 63.552 45.3764 63.552C45.5231 63.552 45.6458 63.528 45.7444 63.48C45.8431 63.432 45.9178 63.3613 45.9684 63.268C46.0191 63.1747 46.0444 63.0587 46.0444 62.92V62.516L46.0884 62.544C46.0751 62.6267 46.0311 62.7067 45.9564 62.784C45.8844 62.8587 45.7938 62.92 45.6844 62.968C45.5751 63.016 45.4631 63.04 45.3484 63.04C45.1484 63.04 44.9698 62.9933 44.8124 62.9C44.6578 62.804 44.5351 62.6747 44.4444 62.512C44.3538 62.3467 44.3084 62.1587 44.3084 61.948C44.3084 61.7373 44.3524 61.5507 44.4404 61.388C44.5311 61.2227 44.6538 61.0933 44.8084 61C44.9658 60.904 45.1418 60.856 45.3364 60.856C45.4164 60.856 45.4938 60.8667 45.5684 60.888C45.6431 60.9067 45.7124 60.9347 45.7764 60.972C45.8404 61.0067 45.8978 61.0453 45.9484 61.088C45.9991 61.1307 46.0404 61.176 46.0724 61.224C46.1044 61.272 46.1244 61.3173 46.1324 61.36L46.0444 61.392V60.9H46.4564V62.872C46.4564 63.04 46.4311 63.188 46.3804 63.316C46.3324 63.4467 46.2618 63.556 46.1684 63.644C46.0751 63.7347 45.9618 63.8027 45.8284 63.848C45.6951 63.896 45.5444 63.92 45.3764 63.92ZM45.3924 62.66C45.5231 62.66 45.6391 62.6293 45.7404 62.568C45.8418 62.5067 45.9204 62.4227 45.9764 62.316C46.0324 62.2093 46.0604 62.0867 46.0604 61.948C46.0604 61.8093 46.0311 61.6867 45.9724 61.58C45.9164 61.4707 45.8378 61.3853 45.7364 61.324C45.6378 61.2627 45.5231 61.232 45.3924 61.232C45.2644 61.232 45.1498 61.264 45.0484 61.328C44.9498 61.3893 44.8711 61.4747 44.8124 61.584C44.7564 61.6907 44.7284 61.812 44.7284 61.948C44.7284 62.084 44.7564 62.2067 44.8124 62.316C44.8711 62.4227 44.9498 62.5067 45.0484 62.568C45.1498 62.6293 45.2644 62.66 45.3924 62.66ZM47.7388 63.04C47.5895 63.04 47.4588 63.0053 47.3468 62.936C47.2375 62.8667 47.1522 62.7693 47.0908 62.644C47.0322 62.5187 47.0028 62.3693 47.0028 62.196V60.9H47.4148V62.084C47.4148 62.2067 47.4335 62.3133 47.4708 62.404C47.5108 62.492 47.5668 62.56 47.6388 62.608C47.7135 62.656 47.8028 62.68 47.9068 62.68C47.9842 62.68 48.0548 62.668 48.1188 62.644C48.1828 62.6173 48.2375 62.5813 48.2828 62.536C48.3308 62.4907 48.3682 62.436 48.3948 62.372C48.4215 62.308 48.4348 62.2387 48.4348 62.164V60.9H48.8468V63H48.4348V62.56L48.5068 62.512C48.4748 62.6107 48.4202 62.7 48.3428 62.78C48.2682 62.86 48.1788 62.924 48.0748 62.972C47.9708 63.0173 47.8588 63.04 47.7388 63.04ZM50.2327 63.04C50.0594 63.04 49.9007 62.992 49.7567 62.896C49.6154 62.8 49.5021 62.6693 49.4167 62.504C49.3314 62.3387 49.2887 62.152 49.2887 61.944C49.2887 61.7333 49.3314 61.5467 49.4167 61.384C49.5047 61.2187 49.6221 61.0893 49.7687 60.996C49.9181 60.9027 50.0847 60.856 50.2687 60.856C50.3781 60.856 50.4781 60.872 50.5687 60.904C50.6594 60.936 50.7381 60.9813 50.8047 61.04C50.8741 61.096 50.9301 61.1613 50.9727 61.236C51.0181 61.3107 51.0461 61.3907 51.0567 61.476L50.9647 61.444V60.9H51.3807V63H50.9647V62.5L51.0607 62.472C51.0447 62.544 51.0114 62.6147 50.9607 62.684C50.9127 62.7507 50.8501 62.8107 50.7727 62.864C50.6981 62.9173 50.6141 62.96 50.5207 62.992C50.4301 63.024 50.3341 63.04 50.2327 63.04ZM50.3407 62.66C50.4661 62.66 50.5767 62.6293 50.6727 62.568C50.7687 62.5067 50.8434 62.4227 50.8967 62.316C50.9527 62.2067 50.9807 62.0827 50.9807 61.944C50.9807 61.808 50.9527 61.6867 50.8967 61.58C50.8434 61.4733 50.7687 61.3893 50.6727 61.328C50.5767 61.2667 50.4661 61.236 50.3407 61.236C50.2181 61.236 50.1087 61.2667 50.0127 61.328C49.9194 61.3893 49.8447 61.4733 49.7887 61.58C49.7354 61.6867 49.7087 61.808 49.7087 61.944C49.7087 62.0827 49.7354 62.2067 49.7887 62.316C49.8447 62.4227 49.9194 62.5067 50.0127 62.568C50.1087 62.6293 50.2181 62.66 50.3407 62.66ZM52.896 63.92C52.7466 63.92 52.5973 63.896 52.448 63.848C52.3013 63.8027 52.1826 63.7427 52.092 63.668L52.244 63.348C52.2973 63.388 52.36 63.4227 52.432 63.452C52.504 63.484 52.58 63.508 52.66 63.524C52.74 63.5427 52.8186 63.552 52.896 63.552C53.0426 63.552 53.1653 63.528 53.264 63.48C53.3626 63.432 53.4373 63.3613 53.488 63.268C53.5386 63.1747 53.564 63.0587 53.564 62.92V62.516L53.608 62.544C53.5946 62.6267 53.5506 62.7067 53.476 62.784C53.404 62.8587 53.3133 62.92 53.204 62.968C53.0946 63.016 52.9826 63.04 52.868 63.04C52.668 63.04 52.4893 62.9933 52.332 62.9C52.1773 62.804 52.0546 62.6747 51.964 62.512C51.8733 62.3467 51.828 62.1587 51.828 61.948C51.828 61.7373 51.872 61.5507 51.96 61.388C52.0506 61.2227 52.1733 61.0933 52.328 61C52.4853 60.904 52.6613 60.856 52.856 60.856C52.936 60.856 53.0133 60.8667 53.088 60.888C53.1626 60.9067 53.232 60.9347 53.296 60.972C53.36 61.0067 53.4173 61.0453 53.468 61.088C53.5186 61.1307 53.56 61.176 53.592 61.224C53.624 61.272 53.644 61.3173 53.652 61.36L53.564 61.392V60.9H53.976V62.872C53.976 63.04 53.9506 63.188 53.9 63.316C53.852 63.4467 53.7813 63.556 53.688 63.644C53.5946 63.7347 53.4813 63.8027 53.348 63.848C53.2146 63.896 53.064 63.92 52.896 63.92ZM52.912 62.66C53.0426 62.66 53.1586 62.6293 53.26 62.568C53.3613 62.5067 53.44 62.4227 53.496 62.316C53.552 62.2093 53.58 62.0867 53.58 61.948C53.58 61.8093 53.5506 61.6867 53.492 61.58C53.436 61.4707 53.3573 61.3853 53.256 61.324C53.1573 61.2627 53.0426 61.232 52.912 61.232C52.784 61.232 52.6693 61.264 52.568 61.328C52.4693 61.3893 52.3906 61.4747 52.332 61.584C52.276 61.6907 52.248 61.812 52.248 61.948C52.248 62.084 52.276 62.2067 52.332 62.316C52.3906 62.4227 52.4693 62.5067 52.568 62.568C52.6693 62.6293 52.784 62.66 52.912 62.66ZM55.5336 63.04C55.3176 63.04 55.1256 62.9947 54.9576 62.904C54.7923 62.8107 54.6616 62.684 54.5656 62.524C54.4723 62.364 54.4256 62.18 54.4256 61.972C54.4256 61.8067 54.4523 61.656 54.5056 61.52C54.559 61.384 54.6323 61.2667 54.7256 61.168C54.8216 61.0667 54.935 60.9893 55.0656 60.936C55.199 60.88 55.343 60.852 55.4976 60.852C55.6336 60.852 55.7603 60.8787 55.8776 60.932C55.995 60.9827 56.0963 61.0533 56.1816 61.144C56.2696 61.2347 56.3363 61.3427 56.3816 61.468C56.4296 61.5907 56.4523 61.7253 56.4496 61.872L56.4456 62.048H54.7296L54.6376 61.72H56.0896L56.0296 61.788V61.692C56.0216 61.604 55.9923 61.5253 55.9416 61.456C55.891 61.3867 55.827 61.332 55.7496 61.292C55.6723 61.252 55.5883 61.232 55.4976 61.232C55.3536 61.232 55.2323 61.26 55.1336 61.316C55.035 61.3693 54.9603 61.4493 54.9096 61.556C54.859 61.66 54.8336 61.7893 54.8336 61.944C54.8336 62.0907 54.8643 62.2187 54.9256 62.328C54.987 62.4347 55.0736 62.5173 55.1856 62.576C55.2976 62.6347 55.427 62.664 55.5736 62.664C55.6776 62.664 55.7736 62.6467 55.8616 62.612C55.9523 62.5773 56.0496 62.5147 56.1536 62.424L56.3616 62.716C56.2976 62.78 56.219 62.836 56.1256 62.884C56.035 62.932 55.9376 62.9707 55.8336 63C55.7323 63.0267 55.6323 63.04 55.5336 63.04ZM57.5974 63.04C57.4214 63.04 57.2627 63.0093 57.1214 62.948C56.98 62.8867 56.8627 62.796 56.7694 62.676L57.0494 62.436C57.1294 62.5293 57.216 62.5973 57.3094 62.64C57.4054 62.68 57.5134 62.7 57.6334 62.7C57.6814 62.7 57.7254 62.6947 57.7654 62.684C57.808 62.6707 57.844 62.652 57.8734 62.628C57.9054 62.604 57.9294 62.576 57.9454 62.544C57.9614 62.5093 57.9694 62.472 57.9694 62.432C57.9694 62.3627 57.944 62.3067 57.8934 62.264C57.8667 62.2453 57.824 62.2253 57.7654 62.204C57.7094 62.18 57.636 62.156 57.5454 62.132C57.3907 62.092 57.264 62.0467 57.1654 61.996C57.0667 61.9453 56.9907 61.888 56.9374 61.824C56.8974 61.7733 56.868 61.7187 56.8494 61.66C56.8307 61.5987 56.8214 61.532 56.8214 61.46C56.8214 61.372 56.84 61.292 56.8774 61.22C56.9174 61.1453 56.9707 61.0813 57.0374 61.028C57.1067 60.972 57.1867 60.9293 57.2774 60.9C57.3707 60.8707 57.4694 60.856 57.5734 60.856C57.672 60.856 57.7694 60.8693 57.8654 60.896C57.964 60.9227 58.0547 60.9613 58.1374 61.012C58.22 61.0627 58.2894 61.1227 58.3454 61.192L58.1094 61.452C58.0587 61.4013 58.0027 61.3573 57.9414 61.32C57.8827 61.28 57.8227 61.2493 57.7614 61.228C57.7 61.2067 57.644 61.196 57.5934 61.196C57.5374 61.196 57.4867 61.2013 57.4414 61.212C57.396 61.2227 57.3574 61.2387 57.3254 61.26C57.296 61.2813 57.2734 61.308 57.2574 61.34C57.2414 61.372 57.2334 61.408 57.2334 61.448C57.236 61.4827 57.244 61.516 57.2574 61.548C57.2734 61.5773 57.2947 61.6027 57.3214 61.624C57.3507 61.6453 57.3947 61.668 57.4534 61.692C57.512 61.716 57.5867 61.7387 57.6774 61.76C57.8107 61.7947 57.92 61.8333 58.0054 61.876C58.0934 61.916 58.1627 61.9627 58.2134 62.016C58.2667 62.0667 58.304 62.1253 58.3254 62.192C58.3467 62.2587 58.3574 62.3333 58.3574 62.416C58.3574 62.536 58.3227 62.644 58.2534 62.74C58.1867 62.8333 58.096 62.9067 57.9814 62.96C57.8667 63.0133 57.7387 63.04 57.5974 63.04Z" fill="white"/>
<path d="M29.3 66C29.3 65.8343 29.1657 65.7 29 65.7C28.8343 65.7 28.7 65.8343 28.7 66H29.3ZM28.7879 72.2121C28.905 72.3293 29.095 72.3293 29.2121 72.2121L31.1213 70.3029C31.2385 70.1858 31.2385 69.9958 31.1213 69.8787C31.0042 69.7615 30.8142 69.7615 30.6971 69.8787L29 71.5757L27.3029 69.8787C27.1858 69.7615 26.9958 69.7615 26.8787 69.8787C26.7615 69.9958 26.7615 70.1858 26.8787 70.3029L28.7879 72.2121ZM29 66H28.7V72H29H29.3V66H29Z" fill="white"/>
<path d="M21.288 49V48.6H21.74V46.6H21.288V46.2H22.624V46.6H22.172V48.6H22.624V49H21.288ZM23.1982 49V46.9H23.6102V47.332L23.5382 47.38C23.5648 47.2867 23.6168 47.2013 23.6942 47.124C23.7715 47.044 23.8635 46.98 23.9702 46.932C24.0768 46.8813 24.1862 46.856 24.2982 46.856C24.4582 46.856 24.5915 46.888 24.6982 46.952C24.8048 47.0133 24.8848 47.108 24.9382 47.236C24.9915 47.364 25.0182 47.5253 25.0182 47.72V49H24.6062V47.748C24.6062 47.628 24.5902 47.5293 24.5582 47.452C24.5262 47.372 24.4768 47.3147 24.4102 47.28C24.3435 47.2427 24.2608 47.2267 24.1622 47.232C24.0822 47.232 24.0088 47.2453 23.9422 47.272C23.8755 47.296 23.8168 47.3307 23.7662 47.376C23.7182 47.4213 23.6795 47.4747 23.6502 47.536C23.6235 47.5947 23.6102 47.6587 23.6102 47.728V49H23.4062C23.3715 49 23.3368 49 23.3022 49C23.2675 49 23.2328 49 23.1982 49ZM25.8371 49V46.364H26.2491V49H25.8371ZM25.4011 47.3V46.9H26.7371V47.3H25.4011ZM28.0727 49.04C27.8567 49.04 27.6647 48.9947 27.4967 48.904C27.3314 48.8107 27.2007 48.684 27.1047 48.524C27.0114 48.364 26.9647 48.18 26.9647 47.972C26.9647 47.8067 26.9914 47.656 27.0447 47.52C27.098 47.384 27.1714 47.2667 27.2647 47.168C27.3607 47.0667 27.474 46.9893 27.6047 46.936C27.738 46.88 27.882 46.852 28.0367 46.852C28.1727 46.852 28.2994 46.8787 28.4167 46.932C28.534 46.9827 28.6354 47.0533 28.7207 47.144C28.8087 47.2347 28.8754 47.3427 28.9207 47.468C28.9687 47.5907 28.9914 47.7253 28.9887 47.872L28.9847 48.048H27.2687L27.1767 47.72H28.6287L28.5687 47.788V47.692C28.5607 47.604 28.5314 47.5253 28.4807 47.456C28.43 47.3867 28.366 47.332 28.2887 47.292C28.2114 47.252 28.1274 47.232 28.0367 47.232C27.8927 47.232 27.7714 47.26 27.6727 47.316C27.574 47.3693 27.4994 47.4493 27.4487 47.556C27.398 47.66 27.3727 47.7893 27.3727 47.944C27.3727 48.0907 27.4034 48.2187 27.4647 48.328C27.526 48.4347 27.6127 48.5173 27.7247 48.576C27.8367 48.6347 27.966 48.664 28.1127 48.664C28.2167 48.664 28.3127 48.6467 28.4007 48.612C28.4914 48.5773 28.5887 48.5147 28.6927 48.424L28.9007 48.716C28.8367 48.78 28.758 48.836 28.6647 48.884C28.574 48.932 28.4767 48.9707 28.3727 49C28.2714 49.0267 28.1714 49.04 28.0727 49.04ZM29.4364 49V46.9H29.8524V47.56L29.8124 47.4C29.8418 47.2987 29.8911 47.2067 29.9604 47.124C30.0324 47.0413 30.1138 46.976 30.2044 46.928C30.2978 46.88 30.3938 46.856 30.4924 46.856C30.5378 46.856 30.5804 46.86 30.6204 46.868C30.6631 46.876 30.6964 46.8853 30.7204 46.896L30.6124 47.344C30.5804 47.3307 30.5444 47.32 30.5044 47.312C30.4671 47.3013 30.4298 47.296 30.3924 47.296C30.3204 47.296 30.2511 47.3107 30.1844 47.34C30.1204 47.3667 30.0631 47.4053 30.0124 47.456C29.9644 47.504 29.9258 47.5613 29.8964 47.628C29.8671 47.692 29.8524 47.7627 29.8524 47.84V49H29.4364ZM31.0497 49.88V46.9H31.4657V47.38L31.4017 47.344C31.4177 47.264 31.4631 47.188 31.5377 47.116C31.6124 47.0413 31.7031 46.9813 31.8097 46.936C31.9191 46.888 32.0311 46.864 32.1457 46.864C32.3351 46.864 32.5031 46.9107 32.6497 47.004C32.7964 47.0973 32.9124 47.2253 32.9977 47.388C33.0831 47.5507 33.1257 47.7373 33.1257 47.948C33.1257 48.156 33.0831 48.3427 32.9977 48.508C32.9151 48.6707 32.8004 48.8 32.6537 48.896C32.5071 48.9893 32.3417 49.036 32.1577 49.036C32.0351 49.036 31.9164 49.012 31.8017 48.964C31.6871 48.9133 31.5897 48.8493 31.5097 48.772C31.4297 48.6947 31.3804 48.6147 31.3617 48.532L31.4657 48.476V49.88H31.0497ZM32.0897 48.656C32.2124 48.656 32.3217 48.6253 32.4177 48.564C32.5137 48.5027 32.5897 48.4187 32.6457 48.312C32.7017 48.2053 32.7297 48.084 32.7297 47.948C32.7297 47.812 32.7017 47.692 32.6457 47.588C32.5924 47.4813 32.5177 47.3973 32.4217 47.336C32.3257 47.2747 32.2151 47.244 32.0897 47.244C31.9644 47.244 31.8537 47.2747 31.7577 47.336C31.6617 47.3947 31.5857 47.4773 31.5297 47.584C31.4737 47.6907 31.4457 47.812 31.4457 47.948C31.4457 48.084 31.4737 48.2053 31.5297 48.312C31.5857 48.4187 31.6617 48.5027 31.7577 48.564C31.8537 48.6253 31.9644 48.656 32.0897 48.656ZM33.5732 49V46.9H33.9892V47.56L33.9492 47.4C33.9785 47.2987 34.0278 47.2067 34.0972 47.124C34.1692 47.0413 34.2505 46.976 34.3412 46.928C34.4345 46.88 34.5305 46.856 34.6292 46.856C34.6745 46.856 34.7172 46.86 34.7572 46.868C34.7998 46.876 34.8332 46.8853 34.8572 46.896L34.7492 47.344C34.7172 47.3307 34.6812 47.32 34.6412 47.312C34.6038 47.3013 34.5665 47.296 34.5292 47.296C34.4572 47.296 34.3878 47.3107 34.3212 47.34C34.2572 47.3667 34.1998 47.4053 34.1492 47.456C34.1012 47.504 34.0625 47.5613 34.0332 47.628C34.0038 47.692 33.9892 47.7627 33.9892 47.84V49H33.5732ZM36.0766 49.04C35.8606 49.04 35.6686 48.9947 35.5006 48.904C35.3353 48.8107 35.2046 48.684 35.1086 48.524C35.0153 48.364 34.9686 48.18 34.9686 47.972C34.9686 47.8067 34.9953 47.656 35.0486 47.52C35.1019 47.384 35.1753 47.2667 35.2686 47.168C35.3646 47.0667 35.4779 46.9893 35.6086 46.936C35.7419 46.88 35.8859 46.852 36.0406 46.852C36.1766 46.852 36.3033 46.8787 36.4206 46.932C36.5379 46.9827 36.6393 47.0533 36.7246 47.144C36.8126 47.2347 36.8793 47.3427 36.9246 47.468C36.9726 47.5907 36.9953 47.7253 36.9926 47.872L36.9886 48.048H35.2726L35.1806 47.72H36.6326L36.5726 47.788V47.692C36.5646 47.604 36.5353 47.5253 36.4846 47.456C36.4339 47.3867 36.3699 47.332 36.2926 47.292C36.2153 47.252 36.1313 47.232 36.0406 47.232C35.8966 47.232 35.7753 47.26 35.6766 47.316C35.5779 47.3693 35.5033 47.4493 35.4526 47.556C35.4019 47.66 35.3766 47.7893 35.3766 47.944C35.3766 48.0907 35.4073 48.2187 35.4686 48.328C35.5299 48.4347 35.6166 48.5173 35.7286 48.576C35.8406 48.6347 35.9699 48.664 36.1166 48.664C36.2206 48.664 36.3166 48.6467 36.4046 48.612C36.4953 48.5773 36.5926 48.5147 36.6966 48.424L36.9046 48.716C36.8406 48.78 36.7619 48.836 36.6686 48.884C36.5779 48.932 36.4806 48.9707 36.3766 49C36.2753 49.0267 36.1753 49.04 36.0766 49.04ZM37.7003 49V46.364H38.1123V49H37.7003ZM37.2643 47.3V46.9H38.6003V47.3H37.2643ZM39.936 49.04C39.72 49.04 39.528 48.9947 39.36 48.904C39.1946 48.8107 39.064 48.684 38.968 48.524C38.8746 48.364 38.828 48.18 38.828 47.972C38.828 47.8067 38.8546 47.656 38.908 47.52C38.9613 47.384 39.0346 47.2667 39.128 47.168C39.224 47.0667 39.3373 46.9893 39.468 46.936C39.6013 46.88 39.7453 46.852 39.9 46.852C40.036 46.852 40.1626 46.8787 40.28 46.932C40.3973 46.9827 40.4986 47.0533 40.584 47.144C40.672 47.2347 40.7386 47.3427 40.784 47.468C40.832 47.5907 40.8546 47.7253 40.852 47.872L40.848 48.048H39.132L39.04 47.72H40.492L40.432 47.788V47.692C40.424 47.604 40.3946 47.5253 40.344 47.456C40.2933 47.3867 40.2293 47.332 40.152 47.292C40.0746 47.252 39.9906 47.232 39.9 47.232C39.756 47.232 39.6346 47.26 39.536 47.316C39.4373 47.3693 39.3626 47.4493 39.312 47.556C39.2613 47.66 39.236 47.7893 39.236 47.944C39.236 48.0907 39.2666 48.2187 39.328 48.328C39.3893 48.4347 39.476 48.5173 39.588 48.576C39.7 48.6347 39.8293 48.664 39.976 48.664C40.08 48.664 40.176 48.6467 40.264 48.612C40.3546 48.5773 40.452 48.5147 40.556 48.424L40.764 48.716C40.7 48.78 40.6213 48.836 40.528 48.884C40.4373 48.932 40.34 48.9707 40.236 49C40.1346 49.0267 40.0346 49.04 39.936 49.04ZM41.2997 49V46.9H41.7157V47.56L41.6757 47.4C41.7051 47.2987 41.7544 47.2067 41.8237 47.124C41.8957 47.0413 41.9771 46.976 42.0677 46.928C42.1611 46.88 42.2571 46.856 42.3557 46.856C42.4011 46.856 42.4437 46.86 42.4837 46.868C42.5264 46.876 42.5597 46.8853 42.5837 46.896L42.4757 47.344C42.4437 47.3307 42.4077 47.32 42.3677 47.312C42.3304 47.3013 42.2931 47.296 42.2557 47.296C42.1837 47.296 42.1144 47.3107 42.0477 47.34C41.9837 47.3667 41.9264 47.4053 41.8757 47.456C41.8277 47.504 41.7891 47.5613 41.7597 47.628C41.7304 47.692 41.7157 47.7627 41.7157 47.84V49H41.2997ZM43.613 49.04C43.437 49.04 43.2783 49.0093 43.137 48.948C42.9957 48.8867 42.8783 48.796 42.785 48.676L43.065 48.436C43.145 48.5293 43.2317 48.5973 43.325 48.64C43.421 48.68 43.529 48.7 43.649 48.7C43.697 48.7 43.741 48.6947 43.781 48.684C43.8237 48.6707 43.8597 48.652 43.889 48.628C43.921 48.604 43.945 48.576 43.961 48.544C43.977 48.5093 43.985 48.472 43.985 48.432C43.985 48.3627 43.9597 48.3067 43.909 48.264C43.8823 48.2453 43.8397 48.2253 43.781 48.204C43.725 48.18 43.6517 48.156 43.561 48.132C43.4063 48.092 43.2797 48.0467 43.181 47.996C43.0823 47.9453 43.0063 47.888 42.953 47.824C42.913 47.7733 42.8837 47.7187 42.865 47.66C42.8463 47.5987 42.837 47.532 42.837 47.46C42.837 47.372 42.8557 47.292 42.893 47.22C42.933 47.1453 42.9863 47.0813 43.053 47.028C43.1223 46.972 43.2023 46.9293 43.293 46.9C43.3863 46.8707 43.485 46.856 43.589 46.856C43.6877 46.856 43.785 46.8693 43.881 46.896C43.9797 46.9227 44.0703 46.9613 44.153 47.012C44.2357 47.0627 44.305 47.1227 44.361 47.192L44.125 47.452C44.0743 47.4013 44.0183 47.3573 43.957 47.32C43.8983 47.28 43.8383 47.2493 43.777 47.228C43.7157 47.2067 43.6597 47.196 43.609 47.196C43.553 47.196 43.5023 47.2013 43.457 47.212C43.4117 47.2227 43.373 47.2387 43.341 47.26C43.3117 47.2813 43.289 47.308 43.273 47.34C43.257 47.372 43.249 47.408 43.249 47.448C43.2517 47.4827 43.2597 47.516 43.273 47.548C43.289 47.5773 43.3103 47.6027 43.337 47.624C43.3663 47.6453 43.4103 47.668 43.469 47.692C43.5277 47.716 43.6023 47.7387 43.693 47.76C43.8263 47.7947 43.9357 47.8333 44.021 47.876C44.109 47.916 44.1783 47.9627 44.229 48.016C44.2823 48.0667 44.3197 48.1253 44.341 48.192C44.3623 48.2587 44.373 48.3333 44.373 48.416C44.373 48.536 44.3383 48.644 44.269 48.74C44.2023 48.8333 44.1117 48.9067 43.997 48.96C43.8823 49.0133 43.7543 49.04 43.613 49.04Z" fill="white"/>
<path d="M29.3 52C29.3 51.8343 29.1657 51.7 29 51.7C28.8343 51.7 28.7 51.8343 28.7 52H29.3ZM28.7879 58.2121C28.905 58.3293 29.095 58.3293 29.2121 58.2121L31.1213 56.3029C31.2385 56.1858 31.2385 55.9958 31.1213 55.8787C31.0042 55.7615 30.8142 55.7615 30.6971 55.8787L29 57.5757L27.3029 55.8787C27.1858 55.7615 26.9958 55.7615 26.8787 55.8787C26.7615 55.9958 26.7615 56.1858 26.8787 56.3029L28.7879 58.2121ZM29 52H28.7V58H29H29.3V52H29Z" fill="white"/>
<path d="M52.7 72C52.7 72.1657 52.8343 72.3 53 72.3C53.1657 72.3 53.3 72.1657 53.3 72L52.7 72ZM44.0176 50.7005C43.8522 50.6908 43.7102 50.817 43.7005 50.9824L43.542 53.6777C43.5322 53.8431 43.6584 53.9851 43.8238 53.9948C43.9892 54.0046 44.1312 53.8784 44.1409 53.713L44.2819 51.3171L46.6777 51.458C46.8431 51.4678 46.9851 51.3416 46.9948 51.1762C47.0046 51.0108 46.8784 50.8688 46.713 50.8591L44.0176 50.7005ZM53 72L53.3 72C53.3 62.3893 48.2408 55.3193 44.2242 50.8007L44 51L43.7758 51.1993C47.7592 55.6807 52.7 62.6107 52.7 72L53 72Z" fill="url(#paint0_linear_41_60)"/>
<rect x="43" y="73" width="23" height="5" rx="1" stroke="white" stroke-opacity="0.5" stroke-width="0.5" stroke-dasharray="0.5 0.5"/>
<path d="M45.256 77.04C45.104 77.04 44.9627 77.02 44.832 76.98C44.704 76.94 44.5867 76.88 44.48 76.8C44.376 76.7173 44.2827 76.616 44.2 76.496L44.496 76.156C44.6267 76.3427 44.752 76.472 44.872 76.544C44.992 76.616 45.1347 76.652 45.3 76.652C45.4013 76.652 45.4933 76.636 45.576 76.604C45.6587 76.572 45.724 76.528 45.772 76.472C45.82 76.416 45.844 76.352 45.844 76.28C45.844 76.232 45.836 76.1867 45.82 76.144C45.804 76.1013 45.7787 76.0627 45.744 76.028C45.712 75.9933 45.6693 75.9613 45.616 75.932C45.5653 75.9027 45.5053 75.8773 45.436 75.856C45.3667 75.832 45.2867 75.812 45.196 75.796C45.052 75.7667 44.9267 75.728 44.82 75.68C44.7133 75.632 44.624 75.572 44.552 75.5C44.48 75.428 44.4267 75.3467 44.392 75.256C44.3573 75.1627 44.34 75.0587 44.34 74.944C44.34 74.832 44.364 74.728 44.412 74.632C44.4627 74.536 44.5307 74.4533 44.616 74.384C44.704 74.312 44.8067 74.2573 44.924 74.22C45.0413 74.18 45.168 74.16 45.304 74.16C45.448 74.16 45.58 74.1787 45.7 74.216C45.82 74.2533 45.9267 74.3093 46.02 74.384C46.1133 74.456 46.1907 74.5453 46.252 74.652L45.948 74.952C45.8947 74.864 45.8347 74.7907 45.768 74.732C45.7013 74.6707 45.628 74.6253 45.548 74.596C45.468 74.564 45.3827 74.548 45.292 74.548C45.188 74.548 45.0973 74.564 45.02 74.596C44.9427 74.628 44.8813 74.6733 44.836 74.732C44.7933 74.788 44.772 74.8547 44.772 74.932C44.772 74.988 44.7827 75.04 44.804 75.088C44.8253 75.1333 44.8573 75.1747 44.9 75.212C44.9453 75.2467 45.0053 75.2787 45.08 75.308C45.1547 75.3347 45.244 75.3587 45.348 75.38C45.4947 75.412 45.6253 75.4533 45.74 75.504C45.8547 75.552 45.952 75.6093 46.032 75.676C46.112 75.7427 46.172 75.8173 46.212 75.9C46.2547 75.9827 46.276 76.072 46.276 76.168C46.276 76.3467 46.2347 76.5013 46.152 76.632C46.0693 76.7627 45.952 76.864 45.8 76.936C45.648 77.0053 45.4667 77.04 45.256 77.04ZM46.8521 77V74.9H47.2641V77H46.8521ZM47.0521 74.436C46.9641 74.436 46.8961 74.4133 46.8481 74.368C46.8001 74.3227 46.7761 74.2587 46.7761 74.176C46.7761 74.0987 46.8001 74.036 46.8481 73.988C46.8988 73.94 46.9668 73.916 47.0521 73.916C47.1401 73.916 47.2081 73.9387 47.2561 73.984C47.3041 74.0293 47.3281 74.0933 47.3281 74.176C47.3281 74.2533 47.3028 74.316 47.2521 74.364C47.2041 74.412 47.1374 74.436 47.0521 74.436ZM47.8894 77V74.9H48.3054V75.348L48.2294 75.396C48.2507 75.3267 48.284 75.26 48.3294 75.196C48.3774 75.132 48.4347 75.076 48.5014 75.028C48.5707 74.9773 48.644 74.9373 48.7214 74.908C48.8014 74.8787 48.8827 74.864 48.9654 74.864C49.0854 74.864 49.1907 74.884 49.2814 74.924C49.372 74.964 49.4467 75.024 49.5054 75.104C49.564 75.184 49.6067 75.284 49.6334 75.404L49.5694 75.388L49.5974 75.32C49.6267 75.2587 49.6667 75.2013 49.7174 75.148C49.7707 75.092 49.8307 75.0427 49.8974 75C49.964 74.9573 50.0347 74.924 50.1094 74.9C50.184 74.876 50.2574 74.864 50.3294 74.864C50.4867 74.864 50.616 74.896 50.7174 74.96C50.8214 75.024 50.8987 75.1213 50.9494 75.252C51.0027 75.3827 51.0294 75.5453 51.0294 75.74V77H50.6134V75.764C50.6134 75.644 50.5974 75.5467 50.5654 75.472C50.536 75.3947 50.4907 75.3373 50.4294 75.3C50.368 75.2627 50.2894 75.244 50.1934 75.244C50.1187 75.244 50.048 75.2573 49.9814 75.284C49.9174 75.308 49.8614 75.3427 49.8134 75.388C49.7654 75.4333 49.728 75.4867 49.7014 75.548C49.6747 75.6067 49.6614 75.672 49.6614 75.744V77H49.2454V75.756C49.2454 75.6467 49.2294 75.5547 49.1974 75.48C49.1654 75.4027 49.1187 75.344 49.0574 75.304C48.996 75.264 48.9214 75.244 48.8334 75.244C48.7587 75.244 48.6894 75.2573 48.6254 75.284C48.5614 75.308 48.5054 75.3427 48.4574 75.388C48.4094 75.4307 48.372 75.4827 48.3454 75.544C48.3187 75.6027 48.3054 75.6667 48.3054 75.736V77H47.8894ZM52.317 77.04C52.1676 77.04 52.037 77.0053 51.925 76.936C51.8156 76.8667 51.7303 76.7693 51.669 76.644C51.6103 76.5187 51.581 76.3693 51.581 76.196V74.9H51.993V76.084C51.993 76.2067 52.0116 76.3133 52.049 76.404C52.089 76.492 52.145 76.56 52.217 76.608C52.2916 76.656 52.381 76.68 52.485 76.68C52.5623 76.68 52.633 76.668 52.697 76.644C52.761 76.6173 52.8156 76.5813 52.861 76.536C52.909 76.4907 52.9463 76.436 52.973 76.372C52.9996 76.308 53.013 76.2387 53.013 76.164V74.9H53.425V77H53.013V76.56L53.085 76.512C53.053 76.6107 52.9983 76.7 52.921 76.78C52.8463 76.86 52.757 76.924 52.653 76.972C52.549 77.0173 52.437 77.04 52.317 77.04ZM54.0108 77V74.04H54.4228V77H54.0108ZM55.7757 77.04C55.6024 77.04 55.4437 76.992 55.2997 76.896C55.1584 76.8 55.045 76.6693 54.9597 76.504C54.8744 76.3387 54.8317 76.152 54.8317 75.944C54.8317 75.7333 54.8744 75.5467 54.9597 75.384C55.0477 75.2187 55.165 75.0893 55.3117 74.996C55.461 74.9027 55.6277 74.856 55.8117 74.856C55.921 74.856 56.021 74.872 56.1117 74.904C56.2024 74.936 56.281 74.9813 56.3477 75.04C56.417 75.096 56.473 75.1613 56.5157 75.236C56.561 75.3107 56.589 75.3907 56.5997 75.476L56.5077 75.444V74.9H56.9237V77H56.5077V76.5L56.6037 76.472C56.5877 76.544 56.5544 76.6147 56.5037 76.684C56.4557 76.7507 56.393 76.8107 56.3157 76.864C56.241 76.9173 56.157 76.96 56.0637 76.992C55.973 77.024 55.877 77.04 55.7757 77.04ZM55.8837 76.66C56.009 76.66 56.1197 76.6293 56.2157 76.568C56.3117 76.5067 56.3864 76.4227 56.4397 76.316C56.4957 76.2067 56.5237 76.0827 56.5237 75.944C56.5237 75.808 56.4957 75.6867 56.4397 75.58C56.3864 75.4733 56.3117 75.3893 56.2157 75.328C56.1197 75.2667 56.009 75.236 55.8837 75.236C55.761 75.236 55.6517 75.2667 55.5557 75.328C55.4624 75.3893 55.3877 75.4733 55.3317 75.58C55.2784 75.6867 55.2517 75.808 55.2517 75.944C55.2517 76.0827 55.2784 76.2067 55.3317 76.316C55.3877 76.4227 55.4624 76.5067 55.5557 76.568C55.6517 76.6293 55.761 76.66 55.8837 76.66ZM57.7589 77V74.364H58.1709V77H57.7589ZM57.3229 75.3V74.9H58.6589V75.3H57.3229ZM59.9586 77.04C59.7532 77.04 59.5692 76.9933 59.4066 76.9C59.2466 76.804 59.1199 76.6747 59.0266 76.512C58.9332 76.3467 58.8866 76.1587 58.8866 75.948C58.8866 75.7373 58.9332 75.5507 59.0266 75.388C59.1199 75.2227 59.2466 75.0933 59.4066 75C59.5692 74.904 59.7532 74.856 59.9586 74.856C60.1612 74.856 60.3426 74.904 60.5026 75C60.6652 75.0933 60.7932 75.2227 60.8866 75.388C60.9799 75.5507 61.0266 75.7373 61.0266 75.948C61.0266 76.1587 60.9799 76.3467 60.8866 76.512C60.7932 76.6747 60.6652 76.804 60.5026 76.9C60.3426 76.9933 60.1612 77.04 59.9586 77.04ZM59.9586 76.664C60.0839 76.664 60.1959 76.6333 60.2946 76.572C60.3932 76.508 60.4706 76.4227 60.5266 76.316C60.5826 76.2067 60.6092 76.084 60.6066 75.948C60.6092 75.8093 60.5826 75.6867 60.5266 75.58C60.4706 75.4707 60.3932 75.3853 60.2946 75.324C60.1959 75.2627 60.0839 75.232 59.9586 75.232C59.8332 75.232 59.7199 75.264 59.6186 75.328C59.5199 75.3893 59.4426 75.4747 59.3866 75.584C59.3306 75.6907 59.3039 75.812 59.3066 75.948C59.3039 76.084 59.3306 76.2067 59.3866 76.316C59.4426 76.4227 59.5199 76.508 59.6186 76.572C59.7199 76.6333 59.8332 76.664 59.9586 76.664ZM61.4755 77V74.9H61.8915V75.56L61.8515 75.4C61.8808 75.2987 61.9302 75.2067 61.9995 75.124C62.0715 75.0413 62.1528 74.976 62.2435 74.928C62.3368 74.88 62.4328 74.856 62.5315 74.856C62.5768 74.856 62.6195 74.86 62.6595 74.868C62.7022 74.876 62.7355 74.8853 62.7595 74.896L62.6515 75.344C62.6195 75.3307 62.5835 75.32 62.5435 75.312C62.5062 75.3013 62.4688 75.296 62.4315 75.296C62.3595 75.296 62.2902 75.3107 62.2235 75.34C62.1595 75.3667 62.1022 75.4053 62.0515 75.456C62.0035 75.504 61.9648 75.5613 61.9355 75.628C61.9062 75.692 61.8915 75.7627 61.8915 75.84V77H61.4755ZM63.7888 77.04C63.6128 77.04 63.4541 77.0093 63.3128 76.948C63.1714 76.8867 63.0541 76.796 62.9608 76.676L63.2408 76.436C63.3208 76.5293 63.4074 76.5973 63.5008 76.64C63.5968 76.68 63.7048 76.7 63.8248 76.7C63.8728 76.7 63.9168 76.6947 63.9568 76.684C63.9994 76.6707 64.0354 76.652 64.0648 76.628C64.0968 76.604 64.1208 76.576 64.1368 76.544C64.1528 76.5093 64.1608 76.472 64.1608 76.432C64.1608 76.3627 64.1354 76.3067 64.0848 76.264C64.0581 76.2453 64.0154 76.2253 63.9568 76.204C63.9008 76.18 63.8274 76.156 63.7368 76.132C63.5821 76.092 63.4554 76.0467 63.3568 75.996C63.2581 75.9453 63.1821 75.888 63.1288 75.824C63.0888 75.7733 63.0594 75.7187 63.0408 75.66C63.0221 75.5987 63.0128 75.532 63.0128 75.46C63.0128 75.372 63.0314 75.292 63.0688 75.22C63.1088 75.1453 63.1621 75.0813 63.2288 75.028C63.2981 74.972 63.3781 74.9293 63.4688 74.9C63.5621 74.8707 63.6608 74.856 63.7648 74.856C63.8634 74.856 63.9608 74.8693 64.0568 74.896C64.1554 74.9227 64.2461 74.9613 64.3288 75.012C64.4114 75.0627 64.4808 75.1227 64.5368 75.192L64.3008 75.452C64.2501 75.4013 64.1941 75.3573 64.1328 75.32C64.0741 75.28 64.0141 75.2493 63.9528 75.228C63.8914 75.2067 63.8354 75.196 63.7848 75.196C63.7288 75.196 63.6781 75.2013 63.6328 75.212C63.5874 75.2227 63.5488 75.2387 63.5168 75.26C63.4874 75.2813 63.4648 75.308 63.4488 75.34C63.4328 75.372 63.4248 75.408 63.4248 75.448C63.4274 75.4827 63.4354 75.516 63.4488 75.548C63.4648 75.5773 63.4861 75.6027 63.5128 75.624C63.5421 75.6453 63.5861 75.668 63.6448 75.692C63.7034 75.716 63.7781 75.7387 63.8688 75.76C64.0021 75.7947 64.1114 75.8333 64.1968 75.876C64.2848 75.916 64.3541 75.9627 64.4048 76.016C64.4581 76.0667 64.4954 76.1253 64.5168 76.192C64.5381 76.2587 64.5488 76.3333 64.5488 76.416C64.5488 76.536 64.5141 76.644 64.4448 76.74C64.3781 76.8333 64.2874 76.9067 64.1728 76.96C64.0581 77.0133 63.9301 77.04 63.7888 77.04Z" fill="white"/>
<defs>
<linearGradient id="paint0_linear_41_60" x1="45.4672" y1="50.822" x2="53.4672" y2="71.822" gradientUnits="userSpaceOnUse">
<stop offset="0.361798" stop-color="white"/>
<stop offset="0.479365" stop-color="white" stop-opacity="0.25"/>
<stop offset="0.632879" stop-color="white" stop-opacity="0.25"/>
<stop offset="0.734222" stop-color="white"/>
</linearGradient>
</defs>
</svg>
