<svg width="60" height="84" viewBox="0 0 60 84" fill="none" xmlns="http://www.w3.org/2000/svg">
<g clip-path="url(#clip0_41_4)">
<path d="M3.98 0.959999C4.01333 0.953333 4.08 0.95 4.18 0.95C4.33333 0.956666 4.47333 0.993333 4.6 1.06C4.86 1.19333 4.99 1.40667 4.99 1.7C4.99 1.82 4.96333 1.93333 4.91 2.04C4.88333 2.10667 4.84333 2.16333 4.79 2.21C4.72333 2.27667 4.66667 2.32 4.62 2.34C4.43333 2.42667 4.25667 2.43 4.09 2.35C3.92333 2.26333 3.86333 2.11 3.91 1.89C3.91667 1.86333 3.92333 1.83667 3.93 1.81C3.97667 1.65667 4.06 1.54333 4.18 1.47C4.21333 1.45 4.19 1.43333 4.11 1.42C4.06333 1.42 4.03 1.42667 4.01 1.44C3.95667 1.48 3.92 1.52667 3.9 1.58C3.87333 1.63333 3.80333 1.94 3.69 2.5C3.53667 3.23333 3.46 3.62667 3.46 3.68C3.46 3.68667 3.64 3.69 4 3.69H4.54L4.58 3.72C4.60667 3.75333 4.60333 3.84333 4.57 3.99C4.53667 4.13667 4.50667 4.21667 4.48 4.23C4.46 4.24333 4.26667 4.25 3.9 4.25C3.53333 4.25 3.35 4.25667 3.35 4.27L3.09 5.59L2.79 7.14C2.61 8.00667 2.43667 8.62667 2.27 9C2.05667 9.49333 1.78333 9.81667 1.45 9.97C1.35667 10.0167 1.25667 10.0433 1.15 10.05C0.856667 10.0633 0.623333 9.97333 0.45 9.78C0.436667 9.77333 0.426667 9.76333 0.42 9.75C0.326667 9.61667 0.28 9.47 0.28 9.31C0.28 9.18333 0.306667 9.06667 0.36 8.96C0.386667 8.89333 0.426667 8.83667 0.48 8.79C0.546667 8.72333 0.603333 8.68 0.65 8.66C0.836667 8.57333 1.01333 8.57 1.18 8.65C1.34667 8.73667 1.40667 8.89 1.36 9.11C1.35333 9.13667 1.34667 9.16333 1.34 9.19C1.29333 9.34333 1.21 9.45667 1.09 9.53C1.05 9.55667 1.07333 9.57 1.16 9.57C1.21333 9.57 1.25333 9.56 1.28 9.54C1.36667 9.47333 1.43333 9.3 1.48 9.02C1.54667 8.6 1.64667 8.12667 1.78 7.6L1.98 6.7C2.29333 5.02667 2.45 4.21333 2.45 4.26C2.45 4.25333 2.29667 4.25 1.99 4.25C1.66333 4.25 1.48667 4.22667 1.46 4.18C1.44667 4.16 1.45667 4.08333 1.49 3.95C1.52333 3.81667 1.55 3.74 1.57 3.72L1.6 3.69H2.08H2.56V3.67L2.66 3.18C2.79333 2.48667 2.92333 2.00333 3.05 1.73C3.25667 1.31 3.56667 1.05333 3.98 0.959999ZM8.27641 0.539999L8.33641 0.499999H8.50641H8.67641L8.70641 0.53C8.72641 0.55 8.73641 0.573333 8.73641 0.6C8.73641 0.62 8.70307 0.66 8.63641 0.72C8.45641 0.893333 8.29974 1.05 8.16641 1.19C7.27307 2.18333 6.59974 3.50333 6.14641 5.15C5.91974 5.95667 5.77307 6.71333 5.70641 7.42C5.67307 7.81333 5.66974 8.15333 5.69641 8.44C5.74307 9.15333 5.91974 9.77 6.22641 10.29C6.27307 10.37 6.28974 10.4233 6.27641 10.45C6.24974 10.4833 6.16974 10.5 6.03641 10.5H5.87641L5.82641 10.46C5.71974 10.3467 5.58974 10.1533 5.43641 9.88C5.20974 9.46 5.06307 8.98333 4.99641 8.45C4.87641 7.57667 4.96307 6.56333 5.25641 5.41C5.68307 3.79667 6.35641 2.48 7.27641 1.46C7.58307 1.11333 7.90307 0.816666 8.23641 0.57C8.24974 0.556666 8.26307 0.546666 8.27641 0.539999ZM9.8582 3.59C10.0849 3.55667 10.3149 3.59 10.5482 3.69C10.7282 3.77 10.8649 3.88333 10.9582 4.03L10.9982 4.08L11.0382 4.02C11.2049 3.82 11.4082 3.68333 11.6482 3.61C11.9415 3.53 12.2082 3.58333 12.4482 3.77C12.4949 3.80333 12.5349 3.84 12.5682 3.88C12.6482 3.97333 12.7015 4.08333 12.7282 4.21C12.7949 4.43 12.7782 4.64667 12.6782 4.86C12.5715 5.08667 12.3915 5.21333 12.1382 5.24C11.9249 5.26 11.7782 5.18333 11.6982 5.01C11.6782 4.97667 11.6649 4.92333 11.6582 4.85C11.6582 4.73667 11.6815 4.63333 11.7282 4.54C11.7815 4.42 11.8782 4.32333 12.0182 4.25C12.0782 4.22333 12.1082 4.20333 12.1082 4.19C12.0815 4.15 12.0349 4.11333 11.9682 4.08C11.9349 4.06667 11.8849 4.06 11.8182 4.06C11.7515 4.06 11.7015 4.06667 11.6682 4.08C11.5015 4.17333 11.3715 4.35 11.2782 4.61L10.6982 6.92C10.6515 7.12667 10.6415 7.28 10.6682 7.38C10.7215 7.56 10.8649 7.64667 11.0982 7.64C11.1782 7.63333 11.2549 7.61667 11.3282 7.59C11.5949 7.49 11.8149 7.26 11.9882 6.9C12.0349 6.80667 12.0715 6.71333 12.0982 6.62C12.1249 6.53333 12.1549 6.48667 12.1882 6.48C12.2082 6.47333 12.2782 6.47 12.3982 6.47C12.5449 6.47 12.6249 6.47667 12.6382 6.49C12.6715 6.51667 12.6749 6.57333 12.6482 6.66C12.5949 6.88 12.5015 7.08333 12.3682 7.27C12.0215 7.77667 11.5982 8.05667 11.0982 8.11C11.0849 8.11 11.0715 8.11 11.0582 8.11C10.6715 8.13 10.3615 8.00333 10.1282 7.73C10.1149 7.72333 10.1049 7.71333 10.0982 7.7C10.0582 7.65333 10.0349 7.62667 10.0282 7.62L9.9682 7.69C9.87487 7.79667 9.78154 7.87667 9.6882 7.93C9.4882 8.05667 9.29154 8.11667 9.0982 8.11C8.97154 8.10333 8.84487 8.07 8.7182 8.01C8.50487 7.91 8.36487 7.73 8.2982 7.47C8.22487 7.13667 8.28487 6.86 8.4782 6.64C8.66487 6.46 8.8682 6.40333 9.0882 6.47C9.1682 6.49667 9.23154 6.53667 9.2782 6.59C9.40487 6.73 9.41154 6.91667 9.2982 7.15C9.2382 7.27667 9.14487 7.37333 9.0182 7.44C8.9582 7.47333 8.92487 7.49 8.9182 7.49C8.9182 7.51667 8.9682 7.55667 9.0682 7.61C9.09487 7.62333 9.14154 7.63 9.2082 7.63C9.27487 7.63 9.32487 7.62333 9.3582 7.61C9.52487 7.52333 9.65154 7.35 9.7382 7.09L10.3382 4.73C10.3515 4.66333 10.3582 4.57 10.3582 4.45C10.3582 4.35667 10.3515 4.29333 10.3382 4.26C10.2582 4.08667 10.0882 4.02333 9.8282 4.07C9.58154 4.11667 9.36154 4.28333 9.1682 4.57C9.05487 4.75 8.97154 4.93667 8.9182 5.13C8.8982 5.17 8.88487 5.19333 8.8782 5.2C8.86487 5.21333 8.78487 5.22 8.6382 5.22H8.4182L8.3882 5.19C8.3682 5.17 8.3582 5.14333 8.3582 5.11C8.38487 4.93667 8.4782 4.72667 8.6382 4.48C8.64487 4.46667 8.65154 4.45333 8.6582 4.44C8.95154 3.98 9.3282 3.7 9.7882 3.6C9.81487 3.6 9.8382 3.59667 9.8582 3.59ZM14.9669 0.51C14.9802 0.503333 15.0435 0.499999 15.1569 0.499999H15.3269L15.3769 0.539999C15.4835 0.653333 15.6135 0.846666 15.7669 1.12C15.9869 1.53333 16.1335 2.00667 16.2069 2.54C16.3269 3.42667 16.2402 4.44 15.9469 5.58C15.5202 7.2 14.8469 8.52 13.9269 9.54C13.6202 9.88667 13.3002 10.1833 12.9669 10.43C12.9535 10.4433 12.9402 10.4533 12.9269 10.46L12.8669 10.5H12.6969H12.5269L12.4969 10.47C12.4769 10.45 12.4669 10.4267 12.4669 10.4C12.4669 10.38 12.5002 10.34 12.5669 10.28C12.7669 10.0933 12.9235 9.93333 13.0369 9.8C13.9302 8.81333 14.6035 7.49333 15.0569 5.84C15.2769 5.04667 15.4235 4.29333 15.4969 3.58C15.5302 3.19333 15.5335 2.85 15.5069 2.55C15.4602 1.84333 15.2835 1.23 14.9769 0.71C14.9369 0.643333 14.9169 0.606666 14.9169 0.6C14.9169 0.56 14.9335 0.53 14.9669 0.51Z" fill="white"/>
<path d="M8.26517 14.7348C8.11872 14.5884 7.88128 14.5884 7.73484 14.7348L5.34835 17.1213C5.2019 17.2678 5.2019 17.5052 5.34835 17.6517C5.4948 17.7981 5.73223 17.7981 5.87868 17.6517L8 15.5303L10.1213 17.6517C10.2678 17.7981 10.5052 17.7981 10.6517 17.6517C10.7981 17.5052 10.7981 17.2678 10.6517 17.1213L8.26517 14.7348ZM7.73483 65.2652C7.88128 65.4116 8.11872 65.4116 8.26516 65.2652L10.6517 62.8787C10.7981 62.7322 10.7981 62.4948 10.6517 62.3483C10.5052 62.2019 10.2678 62.2019 10.1213 62.3483L8 64.4697L5.87868 62.3483C5.73223 62.2019 5.4948 62.2019 5.34835 62.3483C5.2019 62.4948 5.2019 62.7322 5.34835 62.8787L7.73483 65.2652ZM8 15L7.625 15L7.625 65L8 65L8.375 65L8.375 15L8 15Z" fill="white" fill-opacity="0.5"/>
<circle cx="8.5" cy="76.5" r="6.2" stroke="white" stroke-width="0.6"/>
<path d="M6 75.25L10.5 72.5V69M6 77.75L10.5 80.5V84M6 74V76.5M6 79V76.5M6 76.5H0" stroke="white" stroke-width="0.6"/>
<path d="M7.94404 79.8445L8.90775 78.3837L9.88664 80.0778L7.94404 79.8445Z" fill="white"/>
<path d="M22.22 77V74.2H22.652V77H22.22ZM20.392 77V74.2H20.824V77H20.392ZM20.58 75.812V75.396H22.412V75.812H20.58ZM24.139 77.04C23.9656 77.04 23.807 76.992 23.663 76.896C23.5216 76.8 23.4083 76.6693 23.323 76.504C23.2376 76.3387 23.195 76.152 23.195 75.944C23.195 75.7333 23.2376 75.5467 23.323 75.384C23.411 75.2187 23.5283 75.0893 23.675 74.996C23.8243 74.9027 23.991 74.856 24.175 74.856C24.2843 74.856 24.3843 74.872 24.475 74.904C24.5656 74.936 24.6443 74.9813 24.711 75.04C24.7803 75.096 24.8363 75.1613 24.879 75.236C24.9243 75.3107 24.9523 75.3907 24.963 75.476L24.871 75.444V74.9H25.287V77H24.871V76.5L24.967 76.472C24.951 76.544 24.9176 76.6147 24.867 76.684C24.819 76.7507 24.7563 76.8107 24.679 76.864C24.6043 76.9173 24.5203 76.96 24.427 76.992C24.3363 77.024 24.2403 77.04 24.139 77.04ZM24.247 76.66C24.3723 76.66 24.483 76.6293 24.579 76.568C24.675 76.5067 24.7496 76.4227 24.803 76.316C24.859 76.2067 24.887 76.0827 24.887 75.944C24.887 75.808 24.859 75.6867 24.803 75.58C24.7496 75.4733 24.675 75.3893 24.579 75.328C24.483 75.2667 24.3723 75.236 24.247 75.236C24.1243 75.236 24.015 75.2667 23.919 75.328C23.8256 75.3893 23.751 75.4733 23.695 75.58C23.6416 75.6867 23.615 75.808 23.615 75.944C23.615 76.0827 23.6416 76.2067 23.695 76.316C23.751 76.4227 23.8256 76.5067 23.919 76.568C24.015 76.6293 24.1243 76.66 24.247 76.66ZM25.8622 77V74.9H26.2782V75.56L26.2382 75.4C26.2676 75.2987 26.3169 75.2067 26.3862 75.124C26.4582 75.0413 26.5396 74.976 26.6302 74.928C26.7236 74.88 26.8196 74.856 26.9182 74.856C26.9636 74.856 27.0062 74.86 27.0462 74.868C27.0889 74.876 27.1222 74.8853 27.1462 74.896L27.0382 75.344C27.0062 75.3307 26.9702 75.32 26.9302 75.312C26.8929 75.3013 26.8556 75.296 26.8182 75.296C26.7462 75.296 26.6769 75.3107 26.6102 75.34C26.5462 75.3667 26.4889 75.4053 26.4382 75.456C26.3902 75.504 26.3516 75.5613 26.3222 75.628C26.2929 75.692 26.2782 75.7627 26.2782 75.84V77H25.8622ZM28.2617 77.04C28.0697 77.04 27.8977 76.9933 27.7457 76.9C27.5963 76.804 27.4777 76.6747 27.3897 76.512C27.3017 76.3467 27.2577 76.1587 27.2577 75.948C27.2577 75.7373 27.3003 75.5507 27.3857 75.388C27.4737 75.2227 27.5923 75.0933 27.7417 75C27.891 74.904 28.0603 74.856 28.2497 74.856C28.3537 74.856 28.4537 74.8733 28.5497 74.908C28.6483 74.94 28.7363 74.9853 28.8137 75.044C28.891 75.1 28.951 75.1627 28.9937 75.232C29.039 75.2987 29.0617 75.3667 29.0617 75.436L28.9417 75.444V74.04H29.3537V77H28.9417V76.5H29.0217C29.0217 76.564 29.0003 76.628 28.9577 76.692C28.915 76.7533 28.8577 76.8107 28.7857 76.864C28.7163 76.9173 28.635 76.96 28.5417 76.992C28.451 77.024 28.3577 77.04 28.2617 77.04ZM28.3177 76.684C28.443 76.684 28.5537 76.652 28.6497 76.588C28.7457 76.524 28.8203 76.4373 28.8737 76.328C28.9297 76.216 28.9577 76.0893 28.9577 75.948C28.9577 75.8067 28.9297 75.6813 28.8737 75.572C28.8203 75.46 28.7457 75.372 28.6497 75.308C28.5537 75.244 28.443 75.212 28.3177 75.212C28.1923 75.212 28.0817 75.244 27.9857 75.308C27.8897 75.372 27.8137 75.46 27.7577 75.572C27.7043 75.6813 27.6777 75.8067 27.6777 75.948C27.6777 76.0893 27.7043 76.216 27.7577 76.328C27.8137 76.4373 27.8897 76.524 27.9857 76.588C28.0817 76.652 28.1923 76.684 28.3177 76.684ZM30.4368 77L29.7208 74.9L30.1368 74.896L30.6488 76.468L30.5568 76.46L31.1128 75.232H31.3608L31.9208 76.464L31.8128 76.472L32.3288 74.9H32.7448L32.0368 77H31.7528L31.1688 75.664L31.2608 75.676L30.7168 77H30.4368ZM33.8694 77.04C33.6961 77.04 33.5374 76.992 33.3934 76.896C33.2521 76.8 33.1388 76.6693 33.0534 76.504C32.9681 76.3387 32.9254 76.152 32.9254 75.944C32.9254 75.7333 32.9681 75.5467 33.0534 75.384C33.1414 75.2187 33.2588 75.0893 33.4054 74.996C33.5548 74.9027 33.7214 74.856 33.9054 74.856C34.0148 74.856 34.1148 74.872 34.2054 74.904C34.2961 74.936 34.3748 74.9813 34.4414 75.04C34.5108 75.096 34.5668 75.1613 34.6094 75.236C34.6548 75.3107 34.6828 75.3907 34.6934 75.476L34.6014 75.444V74.9H35.0174V77H34.6014V76.5L34.6974 76.472C34.6814 76.544 34.6481 76.6147 34.5974 76.684C34.5494 76.7507 34.4868 76.8107 34.4094 76.864C34.3348 76.9173 34.2508 76.96 34.1574 76.992C34.0668 77.024 33.9708 77.04 33.8694 77.04ZM33.9774 76.66C34.1028 76.66 34.2134 76.6293 34.3094 76.568C34.4054 76.5067 34.4801 76.4227 34.5334 76.316C34.5894 76.2067 34.6174 76.0827 34.6174 75.944C34.6174 75.808 34.5894 75.6867 34.5334 75.58C34.4801 75.4733 34.4054 75.3893 34.3094 75.328C34.2134 75.2667 34.1028 75.236 33.9774 75.236C33.8548 75.236 33.7454 75.2667 33.6494 75.328C33.5561 75.3893 33.4814 75.4733 33.4254 75.58C33.3721 75.6867 33.3454 75.808 33.3454 75.944C33.3454 76.0827 33.3721 76.2067 33.4254 76.316C33.4814 76.4227 33.5561 76.5067 33.6494 76.568C33.7454 76.6293 33.8548 76.66 33.9774 76.66ZM35.5927 77V74.9H36.0087V75.56L35.9687 75.4C35.998 75.2987 36.0474 75.2067 36.1167 75.124C36.1887 75.0413 36.27 74.976 36.3607 74.928C36.454 74.88 36.55 74.856 36.6487 74.856C36.694 74.856 36.7367 74.86 36.7767 74.868C36.8194 74.876 36.8527 74.8853 36.8767 74.896L36.7687 75.344C36.7367 75.3307 36.7007 75.32 36.6607 75.312C36.6234 75.3013 36.586 75.296 36.5487 75.296C36.4767 75.296 36.4074 75.3107 36.3407 75.34C36.2767 75.3667 36.2194 75.4053 36.1687 75.456C36.1207 75.504 36.082 75.5613 36.0527 75.628C36.0234 75.692 36.0087 75.7627 36.0087 75.84V77H35.5927ZM38.0961 77.04C37.8801 77.04 37.6881 76.9947 37.5201 76.904C37.3548 76.8107 37.2241 76.684 37.1281 76.524C37.0348 76.364 36.9881 76.18 36.9881 75.972C36.9881 75.8067 37.0148 75.656 37.0681 75.52C37.1215 75.384 37.1948 75.2667 37.2881 75.168C37.3841 75.0667 37.4975 74.9893 37.6281 74.936C37.7615 74.88 37.9055 74.852 38.0601 74.852C38.1961 74.852 38.3228 74.8787 38.4401 74.932C38.5575 74.9827 38.6588 75.0533 38.7441 75.144C38.8321 75.2347 38.8988 75.3427 38.9441 75.468C38.9921 75.5907 39.0148 75.7253 39.0121 75.872L39.0081 76.048H37.2921L37.2001 75.72H38.6521L38.5921 75.788V75.692C38.5841 75.604 38.5548 75.5253 38.5041 75.456C38.4535 75.3867 38.3895 75.332 38.3121 75.292C38.2348 75.252 38.1508 75.232 38.0601 75.232C37.9161 75.232 37.7948 75.26 37.6961 75.316C37.5975 75.3693 37.5228 75.4493 37.4721 75.556C37.4215 75.66 37.3961 75.7893 37.3961 75.944C37.3961 76.0907 37.4268 76.2187 37.4881 76.328C37.5495 76.4347 37.6361 76.5173 37.7481 76.576C37.8601 76.6347 37.9895 76.664 38.1361 76.664C38.2401 76.664 38.3361 76.6467 38.4241 76.612C38.5148 76.5773 38.6121 76.5147 38.7161 76.424L38.9241 76.716C38.8601 76.78 38.7815 76.836 38.6881 76.884C38.5975 76.932 38.5001 76.9707 38.3961 77C38.2948 77.0267 38.1948 77.04 38.0961 77.04Z" fill="white"/>
<path d="M22.256 63.04C22.104 63.04 21.9627 63.02 21.832 62.98C21.704 62.94 21.5867 62.88 21.48 62.8C21.376 62.7173 21.2827 62.616 21.2 62.496L21.496 62.156C21.6267 62.3427 21.752 62.472 21.872 62.544C21.992 62.616 22.1347 62.652 22.3 62.652C22.4013 62.652 22.4933 62.636 22.576 62.604C22.6587 62.572 22.724 62.528 22.772 62.472C22.82 62.416 22.844 62.352 22.844 62.28C22.844 62.232 22.836 62.1867 22.82 62.144C22.804 62.1013 22.7787 62.0627 22.744 62.028C22.712 61.9933 22.6693 61.9613 22.616 61.932C22.5653 61.9027 22.5053 61.8773 22.436 61.856C22.3667 61.832 22.2867 61.812 22.196 61.796C22.052 61.7667 21.9267 61.728 21.82 61.68C21.7133 61.632 21.624 61.572 21.552 61.5C21.48 61.428 21.4267 61.3467 21.392 61.256C21.3573 61.1627 21.34 61.0587 21.34 60.944C21.34 60.832 21.364 60.728 21.412 60.632C21.4627 60.536 21.5307 60.4533 21.616 60.384C21.704 60.312 21.8067 60.2573 21.924 60.22C22.0413 60.18 22.168 60.16 22.304 60.16C22.448 60.16 22.58 60.1787 22.7 60.216C22.82 60.2533 22.9267 60.3093 23.02 60.384C23.1133 60.456 23.1907 60.5453 23.252 60.652L22.948 60.952C22.8947 60.864 22.8347 60.7907 22.768 60.732C22.7013 60.6707 22.628 60.6253 22.548 60.596C22.468 60.564 22.3827 60.548 22.292 60.548C22.188 60.548 22.0973 60.564 22.02 60.596C21.9427 60.628 21.8813 60.6733 21.836 60.732C21.7933 60.788 21.772 60.8547 21.772 60.932C21.772 60.988 21.7827 61.04 21.804 61.088C21.8253 61.1333 21.8573 61.1747 21.9 61.212C21.9453 61.2467 22.0053 61.2787 22.08 61.308C22.1547 61.3347 22.244 61.3587 22.348 61.38C22.4947 61.412 22.6253 61.4533 22.74 61.504C22.8547 61.552 22.952 61.6093 23.032 61.676C23.112 61.7427 23.172 61.8173 23.212 61.9C23.2547 61.9827 23.276 62.072 23.276 62.168C23.276 62.3467 23.2347 62.5013 23.152 62.632C23.0693 62.7627 22.952 62.864 22.8 62.936C22.648 63.0053 22.4667 63.04 22.256 63.04ZM24.1361 63.92L24.5601 62.94L24.5641 63.268L23.5161 60.9H23.9961L24.6521 62.444C24.6654 62.4707 24.6814 62.512 24.7001 62.568C24.7188 62.6213 24.7348 62.6747 24.7481 62.728L24.6441 62.752C24.6654 62.696 24.6854 62.64 24.7041 62.584C24.7254 62.528 24.7454 62.472 24.7641 62.416L25.3121 60.9H25.8001L24.9361 63L24.5801 63.92H24.1361ZM26.7693 63.04C26.5933 63.04 26.4346 63.0093 26.2933 62.948C26.1519 62.8867 26.0346 62.796 25.9413 62.676L26.2213 62.436C26.3013 62.5293 26.3879 62.5973 26.4813 62.64C26.5773 62.68 26.6853 62.7 26.8053 62.7C26.8533 62.7 26.8973 62.6947 26.9373 62.684C26.9799 62.6707 27.0159 62.652 27.0453 62.628C27.0773 62.604 27.1013 62.576 27.1173 62.544C27.1333 62.5093 27.1413 62.472 27.1413 62.432C27.1413 62.3627 27.1159 62.3067 27.0653 62.264C27.0386 62.2453 26.9959 62.2253 26.9373 62.204C26.8813 62.18 26.8079 62.156 26.7173 62.132C26.5626 62.092 26.4359 62.0467 26.3373 61.996C26.2386 61.9453 26.1626 61.888 26.1093 61.824C26.0693 61.7733 26.0399 61.7187 26.0213 61.66C26.0026 61.5987 25.9933 61.532 25.9933 61.46C25.9933 61.372 26.0119 61.292 26.0493 61.22C26.0893 61.1453 26.1426 61.0813 26.2093 61.028C26.2786 60.972 26.3586 60.9293 26.4493 60.9C26.5426 60.8707 26.6413 60.856 26.7453 60.856C26.8439 60.856 26.9413 60.8693 27.0373 60.896C27.1359 60.9227 27.2266 60.9613 27.3093 61.012C27.3919 61.0627 27.4613 61.1227 27.5173 61.192L27.2813 61.452C27.2306 61.4013 27.1746 61.3573 27.1133 61.32C27.0546 61.28 26.9946 61.2493 26.9333 61.228C26.8719 61.2067 26.8159 61.196 26.7653 61.196C26.7093 61.196 26.6586 61.2013 26.6133 61.212C26.5679 61.2227 26.5293 61.2387 26.4973 61.26C26.4679 61.2813 26.4453 61.308 26.4293 61.34C26.4133 61.372 26.4053 61.408 26.4053 61.448C26.4079 61.4827 26.4159 61.516 26.4293 61.548C26.4453 61.5773 26.4666 61.6027 26.4933 61.624C26.5226 61.6453 26.5666 61.668 26.6253 61.692C26.6839 61.716 26.7586 61.7387 26.8493 61.76C26.9826 61.7947 27.0919 61.8333 27.1773 61.876C27.2653 61.916 27.3346 61.9627 27.3853 62.016C27.4386 62.0667 27.4759 62.1253 27.4973 62.192C27.5186 62.2587 27.5293 62.3333 27.5293 62.416C27.5293 62.536 27.4946 62.644 27.4253 62.74C27.3586 62.8333 27.2679 62.9067 27.1533 62.96C27.0386 63.0133 26.9106 63.04 26.7693 63.04ZM28.2433 63V60.364H28.6553V63H28.2433ZM27.8073 61.3V60.9H29.1433V61.3H27.8073ZM30.4789 63.04C30.2629 63.04 30.0709 62.9947 29.9029 62.904C29.7376 62.8107 29.6069 62.684 29.5109 62.524C29.4176 62.364 29.3709 62.18 29.3709 61.972C29.3709 61.8067 29.3976 61.656 29.4509 61.52C29.5043 61.384 29.5776 61.2667 29.6709 61.168C29.7669 61.0667 29.8803 60.9893 30.0109 60.936C30.1443 60.88 30.2883 60.852 30.4429 60.852C30.5789 60.852 30.7056 60.8787 30.8229 60.932C30.9403 60.9827 31.0416 61.0533 31.1269 61.144C31.2149 61.2347 31.2816 61.3427 31.3269 61.468C31.3749 61.5907 31.3976 61.7253 31.3949 61.872L31.3909 62.048H29.6749L29.5829 61.72H31.0349L30.9749 61.788V61.692C30.9669 61.604 30.9376 61.5253 30.8869 61.456C30.8363 61.3867 30.7723 61.332 30.6949 61.292C30.6176 61.252 30.5336 61.232 30.4429 61.232C30.2989 61.232 30.1776 61.26 30.0789 61.316C29.9803 61.3693 29.9056 61.4493 29.8549 61.556C29.8043 61.66 29.7789 61.7893 29.7789 61.944C29.7789 62.0907 29.8096 62.2187 29.8709 62.328C29.9323 62.4347 30.0189 62.5173 30.1309 62.576C30.2429 62.6347 30.3723 62.664 30.5189 62.664C30.6229 62.664 30.7189 62.6467 30.8069 62.612C30.8976 62.5773 30.9949 62.5147 31.0989 62.424L31.3069 62.716C31.2429 62.78 31.1643 62.836 31.0709 62.884C30.9803 62.932 30.8829 62.9707 30.7789 63C30.6776 63.0267 30.5776 63.04 30.4789 63.04ZM31.8347 63V60.9H32.2507V61.348L32.1747 61.396C32.196 61.3267 32.2294 61.26 32.2747 61.196C32.3227 61.132 32.38 61.076 32.4467 61.028C32.516 60.9773 32.5894 60.9373 32.6667 60.908C32.7467 60.8787 32.828 60.864 32.9107 60.864C33.0307 60.864 33.136 60.884 33.2267 60.924C33.3174 60.964 33.392 61.024 33.4507 61.104C33.5094 61.184 33.552 61.284 33.5787 61.404L33.5147 61.388L33.5427 61.32C33.572 61.2587 33.612 61.2013 33.6627 61.148C33.716 61.092 33.776 61.0427 33.8427 61C33.9094 60.9573 33.98 60.924 34.0547 60.9C34.1294 60.876 34.2027 60.864 34.2747 60.864C34.432 60.864 34.5614 60.896 34.6627 60.96C34.7667 61.024 34.844 61.1213 34.8947 61.252C34.948 61.3827 34.9747 61.5453 34.9747 61.74V63H34.5587V61.764C34.5587 61.644 34.5427 61.5467 34.5107 61.472C34.4814 61.3947 34.436 61.3373 34.3747 61.3C34.3134 61.2627 34.2347 61.244 34.1387 61.244C34.064 61.244 33.9934 61.2573 33.9267 61.284C33.8627 61.308 33.8067 61.3427 33.7587 61.388C33.7107 61.4333 33.6734 61.4867 33.6467 61.548C33.62 61.6067 33.6067 61.672 33.6067 61.744V63H33.1907V61.756C33.1907 61.6467 33.1747 61.5547 33.1427 61.48C33.1107 61.4027 33.064 61.344 33.0027 61.304C32.9414 61.264 32.8667 61.244 32.7787 61.244C32.704 61.244 32.6347 61.2573 32.5707 61.284C32.5067 61.308 32.4507 61.3427 32.4027 61.388C32.3547 61.4307 32.3174 61.4827 32.2907 61.544C32.264 61.6027 32.2507 61.6667 32.2507 61.736V63H31.8347ZM36.2263 63.04C36.0503 63.04 35.8916 63.0093 35.7503 62.948C35.6089 62.8867 35.4916 62.796 35.3983 62.676L35.6783 62.436C35.7583 62.5293 35.8449 62.5973 35.9383 62.64C36.0343 62.68 36.1423 62.7 36.2623 62.7C36.3103 62.7 36.3543 62.6947 36.3943 62.684C36.4369 62.6707 36.4729 62.652 36.5023 62.628C36.5343 62.604 36.5583 62.576 36.5743 62.544C36.5903 62.5093 36.5983 62.472 36.5983 62.432C36.5983 62.3627 36.5729 62.3067 36.5223 62.264C36.4956 62.2453 36.4529 62.2253 36.3943 62.204C36.3383 62.18 36.2649 62.156 36.1743 62.132C36.0196 62.092 35.8929 62.0467 35.7943 61.996C35.6956 61.9453 35.6196 61.888 35.5663 61.824C35.5263 61.7733 35.4969 61.7187 35.4783 61.66C35.4596 61.5987 35.4503 61.532 35.4503 61.46C35.4503 61.372 35.4689 61.292 35.5063 61.22C35.5463 61.1453 35.5996 61.0813 35.6663 61.028C35.7356 60.972 35.8156 60.9293 35.9063 60.9C35.9996 60.8707 36.0983 60.856 36.2023 60.856C36.3009 60.856 36.3983 60.8693 36.4943 60.896C36.5929 60.9227 36.6836 60.9613 36.7663 61.012C36.8489 61.0627 36.9183 61.1227 36.9743 61.192L36.7383 61.452C36.6876 61.4013 36.6316 61.3573 36.5703 61.32C36.5116 61.28 36.4516 61.2493 36.3903 61.228C36.3289 61.2067 36.2729 61.196 36.2223 61.196C36.1663 61.196 36.1156 61.2013 36.0703 61.212C36.0249 61.2227 35.9863 61.2387 35.9543 61.26C35.9249 61.2813 35.9023 61.308 35.8863 61.34C35.8703 61.372 35.8623 61.408 35.8623 61.448C35.8649 61.4827 35.8729 61.516 35.8863 61.548C35.9023 61.5773 35.9236 61.6027 35.9503 61.624C35.9796 61.6453 36.0236 61.668 36.0823 61.692C36.1409 61.716 36.2156 61.7387 36.3063 61.76C36.4396 61.7947 36.5489 61.8333 36.6343 61.876C36.7223 61.916 36.7916 61.9627 36.8423 62.016C36.8956 62.0667 36.9329 62.1253 36.9543 62.192C36.9756 62.2587 36.9863 62.3333 36.9863 62.416C36.9863 62.536 36.9516 62.644 36.8823 62.74C36.8156 62.8333 36.7249 62.9067 36.6103 62.96C36.4956 63.0133 36.3676 63.04 36.2263 63.04ZM38.5694 63V60.04H38.9814V63H38.5694ZM40.3343 63.04C40.1609 63.04 40.0023 62.992 39.8583 62.896C39.7169 62.8 39.6036 62.6693 39.5183 62.504C39.4329 62.3387 39.3903 62.152 39.3903 61.944C39.3903 61.7333 39.4329 61.5467 39.5183 61.384C39.6063 61.2187 39.7236 61.0893 39.8703 60.996C40.0196 60.9027 40.1863 60.856 40.3703 60.856C40.4796 60.856 40.5796 60.872 40.6703 60.904C40.7609 60.936 40.8396 60.9813 40.9063 61.04C40.9756 61.096 41.0316 61.1613 41.0743 61.236C41.1196 61.3107 41.1476 61.3907 41.1583 61.476L41.0663 61.444V60.9H41.4823V63H41.0663V62.5L41.1623 62.472C41.1463 62.544 41.1129 62.6147 41.0623 62.684C41.0143 62.7507 40.9516 62.8107 40.8743 62.864C40.7996 62.9173 40.7156 62.96 40.6223 62.992C40.5316 63.024 40.4356 63.04 40.3343 63.04ZM40.4423 62.66C40.5676 62.66 40.6783 62.6293 40.7743 62.568C40.8703 62.5067 40.9449 62.4227 40.9983 62.316C41.0543 62.2067 41.0823 62.0827 41.0823 61.944C41.0823 61.808 41.0543 61.6867 40.9983 61.58C40.9449 61.4733 40.8703 61.3893 40.7743 61.328C40.6783 61.2667 40.5676 61.236 40.4423 61.236C40.3196 61.236 40.2103 61.2667 40.1143 61.328C40.0209 61.3893 39.9463 61.4733 39.8903 61.58C39.8369 61.6867 39.8103 61.808 39.8103 61.944C39.8103 62.0827 39.8369 62.2067 39.8903 62.316C39.9463 62.4227 40.0209 62.5067 40.1143 62.568C40.2103 62.6293 40.3196 62.66 40.4423 62.66ZM42.0575 63V60.9H42.4695V61.332L42.3975 61.38C42.4242 61.2867 42.4762 61.2013 42.5535 61.124C42.6309 61.044 42.7229 60.98 42.8295 60.932C42.9362 60.8813 43.0455 60.856 43.1575 60.856C43.3175 60.856 43.4509 60.888 43.5575 60.952C43.6642 61.0133 43.7442 61.108 43.7975 61.236C43.8509 61.364 43.8775 61.5253 43.8775 61.72V63H43.4655V61.748C43.4655 61.628 43.4495 61.5293 43.4175 61.452C43.3855 61.372 43.3362 61.3147 43.2695 61.28C43.2029 61.2427 43.1202 61.2267 43.0215 61.232C42.9415 61.232 42.8682 61.2453 42.8015 61.272C42.7349 61.296 42.6762 61.3307 42.6255 61.376C42.5775 61.4213 42.5389 61.4747 42.5095 61.536C42.4829 61.5947 42.4695 61.6587 42.4695 61.728V63H42.2655C42.2309 63 42.1962 63 42.1615 63C42.1269 63 42.0922 63 42.0575 63ZM45.3764 63.92C45.2271 63.92 45.0778 63.896 44.9284 63.848C44.7818 63.8027 44.6631 63.7427 44.5724 63.668L44.7244 63.348C44.7778 63.388 44.8404 63.4227 44.9124 63.452C44.9844 63.484 45.0604 63.508 45.1404 63.524C45.2204 63.5427 45.2991 63.552 45.3764 63.552C45.5231 63.552 45.6458 63.528 45.7444 63.48C45.8431 63.432 45.9178 63.3613 45.9684 63.268C46.0191 63.1747 46.0444 63.0587 46.0444 62.92V62.516L46.0884 62.544C46.0751 62.6267 46.0311 62.7067 45.9564 62.784C45.8844 62.8587 45.7938 62.92 45.6844 62.968C45.5751 63.016 45.4631 63.04 45.3484 63.04C45.1484 63.04 44.9698 62.9933 44.8124 62.9C44.6578 62.804 44.5351 62.6747 44.4444 62.512C44.3538 62.3467 44.3084 62.1587 44.3084 61.948C44.3084 61.7373 44.3524 61.5507 44.4404 61.388C44.5311 61.2227 44.6538 61.0933 44.8084 61C44.9658 60.904 45.1418 60.856 45.3364 60.856C45.4164 60.856 45.4938 60.8667 45.5684 60.888C45.6431 60.9067 45.7124 60.9347 45.7764 60.972C45.8404 61.0067 45.8978 61.0453 45.9484 61.088C45.9991 61.1307 46.0404 61.176 46.0724 61.224C46.1044 61.272 46.1244 61.3173 46.1324 61.36L46.0444 61.392V60.9H46.4564V62.872C46.4564 63.04 46.4311 63.188 46.3804 63.316C46.3324 63.4467 46.2618 63.556 46.1684 63.644C46.0751 63.7347 45.9618 63.8027 45.8284 63.848C45.6951 63.896 45.5444 63.92 45.3764 63.92ZM45.3924 62.66C45.5231 62.66 45.6391 62.6293 45.7404 62.568C45.8418 62.5067 45.9204 62.4227 45.9764 62.316C46.0324 62.2093 46.0604 62.0867 46.0604 61.948C46.0604 61.8093 46.0311 61.6867 45.9724 61.58C45.9164 61.4707 45.8378 61.3853 45.7364 61.324C45.6378 61.2627 45.5231 61.232 45.3924 61.232C45.2644 61.232 45.1498 61.264 45.0484 61.328C44.9498 61.3893 44.8711 61.4747 44.8124 61.584C44.7564 61.6907 44.7284 61.812 44.7284 61.948C44.7284 62.084 44.7564 62.2067 44.8124 62.316C44.8711 62.4227 44.9498 62.5067 45.0484 62.568C45.1498 62.6293 45.2644 62.66 45.3924 62.66ZM47.7388 63.04C47.5895 63.04 47.4588 63.0053 47.3468 62.936C47.2375 62.8667 47.1522 62.7693 47.0908 62.644C47.0322 62.5187 47.0028 62.3693 47.0028 62.196V60.9H47.4148V62.084C47.4148 62.2067 47.4335 62.3133 47.4708 62.404C47.5108 62.492 47.5668 62.56 47.6388 62.608C47.7135 62.656 47.8028 62.68 47.9068 62.68C47.9842 62.68 48.0548 62.668 48.1188 62.644C48.1828 62.6173 48.2375 62.5813 48.2828 62.536C48.3308 62.4907 48.3682 62.436 48.3948 62.372C48.4215 62.308 48.4348 62.2387 48.4348 62.164V60.9H48.8468V63H48.4348V62.56L48.5068 62.512C48.4748 62.6107 48.4202 62.7 48.3428 62.78C48.2682 62.86 48.1788 62.924 48.0748 62.972C47.9708 63.0173 47.8588 63.04 47.7388 63.04ZM50.2327 63.04C50.0594 63.04 49.9007 62.992 49.7567 62.896C49.6154 62.8 49.5021 62.6693 49.4167 62.504C49.3314 62.3387 49.2887 62.152 49.2887 61.944C49.2887 61.7333 49.3314 61.5467 49.4167 61.384C49.5047 61.2187 49.6221 61.0893 49.7687 60.996C49.9181 60.9027 50.0847 60.856 50.2687 60.856C50.3781 60.856 50.4781 60.872 50.5687 60.904C50.6594 60.936 50.7381 60.9813 50.8047 61.04C50.8741 61.096 50.9301 61.1613 50.9727 61.236C51.0181 61.3107 51.0461 61.3907 51.0567 61.476L50.9647 61.444V60.9H51.3807V63H50.9647V62.5L51.0607 62.472C51.0447 62.544 51.0114 62.6147 50.9607 62.684C50.9127 62.7507 50.8501 62.8107 50.7727 62.864C50.6981 62.9173 50.6141 62.96 50.5207 62.992C50.4301 63.024 50.3341 63.04 50.2327 63.04ZM50.3407 62.66C50.4661 62.66 50.5767 62.6293 50.6727 62.568C50.7687 62.5067 50.8434 62.4227 50.8967 62.316C50.9527 62.2067 50.9807 62.0827 50.9807 61.944C50.9807 61.808 50.9527 61.6867 50.8967 61.58C50.8434 61.4733 50.7687 61.3893 50.6727 61.328C50.5767 61.2667 50.4661 61.236 50.3407 61.236C50.2181 61.236 50.1087 61.2667 50.0127 61.328C49.9194 61.3893 49.8447 61.4733 49.7887 61.58C49.7354 61.6867 49.7087 61.808 49.7087 61.944C49.7087 62.0827 49.7354 62.2067 49.7887 62.316C49.8447 62.4227 49.9194 62.5067 50.0127 62.568C50.1087 62.6293 50.2181 62.66 50.3407 62.66ZM52.896 63.92C52.7466 63.92 52.5973 63.896 52.448 63.848C52.3013 63.8027 52.1826 63.7427 52.092 63.668L52.244 63.348C52.2973 63.388 52.36 63.4227 52.432 63.452C52.504 63.484 52.58 63.508 52.66 63.524C52.74 63.5427 52.8186 63.552 52.896 63.552C53.0426 63.552 53.1653 63.528 53.264 63.48C53.3626 63.432 53.4373 63.3613 53.488 63.268C53.5386 63.1747 53.564 63.0587 53.564 62.92V62.516L53.608 62.544C53.5946 62.6267 53.5506 62.7067 53.476 62.784C53.404 62.8587 53.3133 62.92 53.204 62.968C53.0946 63.016 52.9826 63.04 52.868 63.04C52.668 63.04 52.4893 62.9933 52.332 62.9C52.1773 62.804 52.0546 62.6747 51.964 62.512C51.8733 62.3467 51.828 62.1587 51.828 61.948C51.828 61.7373 51.872 61.5507 51.96 61.388C52.0506 61.2227 52.1733 61.0933 52.328 61C52.4853 60.904 52.6613 60.856 52.856 60.856C52.936 60.856 53.0133 60.8667 53.088 60.888C53.1626 60.9067 53.232 60.9347 53.296 60.972C53.36 61.0067 53.4173 61.0453 53.468 61.088C53.5186 61.1307 53.56 61.176 53.592 61.224C53.624 61.272 53.644 61.3173 53.652 61.36L53.564 61.392V60.9H53.976V62.872C53.976 63.04 53.9506 63.188 53.9 63.316C53.852 63.4467 53.7813 63.556 53.688 63.644C53.5946 63.7347 53.4813 63.8027 53.348 63.848C53.2146 63.896 53.064 63.92 52.896 63.92ZM52.912 62.66C53.0426 62.66 53.1586 62.6293 53.26 62.568C53.3613 62.5067 53.44 62.4227 53.496 62.316C53.552 62.2093 53.58 62.0867 53.58 61.948C53.58 61.8093 53.5506 61.6867 53.492 61.58C53.436 61.4707 53.3573 61.3853 53.256 61.324C53.1573 61.2627 53.0426 61.232 52.912 61.232C52.784 61.232 52.6693 61.264 52.568 61.328C52.4693 61.3893 52.3906 61.4747 52.332 61.584C52.276 61.6907 52.248 61.812 52.248 61.948C52.248 62.084 52.276 62.2067 52.332 62.316C52.3906 62.4227 52.4693 62.5067 52.568 62.568C52.6693 62.6293 52.784 62.66 52.912 62.66ZM55.5336 63.04C55.3176 63.04 55.1256 62.9947 54.9576 62.904C54.7923 62.8107 54.6616 62.684 54.5656 62.524C54.4723 62.364 54.4256 62.18 54.4256 61.972C54.4256 61.8067 54.4523 61.656 54.5056 61.52C54.559 61.384 54.6323 61.2667 54.7256 61.168C54.8216 61.0667 54.935 60.9893 55.0656 60.936C55.199 60.88 55.343 60.852 55.4976 60.852C55.6336 60.852 55.7603 60.8787 55.8776 60.932C55.995 60.9827 56.0963 61.0533 56.1816 61.144C56.2696 61.2347 56.3363 61.3427 56.3816 61.468C56.4296 61.5907 56.4523 61.7253 56.4496 61.872L56.4456 62.048H54.7296L54.6376 61.72H56.0896L56.0296 61.788V61.692C56.0216 61.604 55.9923 61.5253 55.9416 61.456C55.891 61.3867 55.827 61.332 55.7496 61.292C55.6723 61.252 55.5883 61.232 55.4976 61.232C55.3536 61.232 55.2323 61.26 55.1336 61.316C55.035 61.3693 54.9603 61.4493 54.9096 61.556C54.859 61.66 54.8336 61.7893 54.8336 61.944C54.8336 62.0907 54.8643 62.2187 54.9256 62.328C54.987 62.4347 55.0736 62.5173 55.1856 62.576C55.2976 62.6347 55.427 62.664 55.5736 62.664C55.6776 62.664 55.7736 62.6467 55.8616 62.612C55.9523 62.5773 56.0496 62.5147 56.1536 62.424L56.3616 62.716C56.2976 62.78 56.219 62.836 56.1256 62.884C56.035 62.932 55.9376 62.9707 55.8336 63C55.7323 63.0267 55.6323 63.04 55.5336 63.04ZM57.5974 63.04C57.4214 63.04 57.2627 63.0093 57.1214 62.948C56.98 62.8867 56.8627 62.796 56.7694 62.676L57.0494 62.436C57.1294 62.5293 57.216 62.5973 57.3094 62.64C57.4054 62.68 57.5134 62.7 57.6334 62.7C57.6814 62.7 57.7254 62.6947 57.7654 62.684C57.808 62.6707 57.844 62.652 57.8734 62.628C57.9054 62.604 57.9294 62.576 57.9454 62.544C57.9614 62.5093 57.9694 62.472 57.9694 62.432C57.9694 62.3627 57.944 62.3067 57.8934 62.264C57.8667 62.2453 57.824 62.2253 57.7654 62.204C57.7094 62.18 57.636 62.156 57.5454 62.132C57.3907 62.092 57.264 62.0467 57.1654 61.996C57.0667 61.9453 56.9907 61.888 56.9374 61.824C56.8974 61.7733 56.868 61.7187 56.8494 61.66C56.8307 61.5987 56.8214 61.532 56.8214 61.46C56.8214 61.372 56.84 61.292 56.8774 61.22C56.9174 61.1453 56.9707 61.0813 57.0374 61.028C57.1067 60.972 57.1867 60.9293 57.2774 60.9C57.3707 60.8707 57.4694 60.856 57.5734 60.856C57.672 60.856 57.7694 60.8693 57.8654 60.896C57.964 60.9227 58.0547 60.9613 58.1374 61.012C58.22 61.0627 58.2894 61.1227 58.3454 61.192L58.1094 61.452C58.0587 61.4013 58.0027 61.3573 57.9414 61.32C57.8827 61.28 57.8227 61.2493 57.7614 61.228C57.7 61.2067 57.644 61.196 57.5934 61.196C57.5374 61.196 57.4867 61.2013 57.4414 61.212C57.396 61.2227 57.3574 61.2387 57.3254 61.26C57.296 61.2813 57.2734 61.308 57.2574 61.34C57.2414 61.372 57.2334 61.408 57.2334 61.448C57.236 61.4827 57.244 61.516 57.2574 61.548C57.2734 61.5773 57.2947 61.6027 57.3214 61.624C57.3507 61.6453 57.3947 61.668 57.4534 61.692C57.512 61.716 57.5867 61.7387 57.6774 61.76C57.8107 61.7947 57.92 61.8333 58.0054 61.876C58.0934 61.916 58.1627 61.9627 58.2134 62.016C58.2667 62.0667 58.304 62.1253 58.3254 62.192C58.3467 62.2587 58.3574 62.3333 58.3574 62.416C58.3574 62.536 58.3227 62.644 58.2534 62.74C58.1867 62.8333 58.096 62.9067 57.9814 62.96C57.8667 63.0133 57.7387 63.04 57.5974 63.04Z" fill="white"/>
<path d="M29.3 66C29.3 65.8343 29.1657 65.7 29 65.7C28.8343 65.7 28.7 65.8343 28.7 66H29.3ZM28.7879 72.2121C28.905 72.3293 29.095 72.3293 29.2121 72.2121L31.1213 70.3029C31.2385 70.1858 31.2385 69.9958 31.1213 69.8787C31.0042 69.7615 30.8142 69.7615 30.6971 69.8787L29 71.5757L27.3029 69.8787C27.1858 69.7615 26.9958 69.7615 26.8787 69.8787C26.7615 69.9958 26.7615 70.1858 26.8787 70.3029L28.7879 72.2121ZM29 66H28.7V72H29H29.3V66H29Z" fill="white"/>
<path d="M21.924 49V46.616H21.14V46.2H23.164V46.616H22.356V49H21.924ZM23.3544 49V46.9H23.7704V47.56L23.7304 47.4C23.7597 47.2987 23.8091 47.2067 23.8784 47.124C23.9504 47.0413 24.0317 46.976 24.1224 46.928C24.2157 46.88 24.3117 46.856 24.4104 46.856C24.4557 46.856 24.4984 46.86 24.5384 46.868C24.5811 46.876 24.6144 46.8853 24.6384 46.896L24.5304 47.344C24.4984 47.3307 24.4624 47.32 24.4224 47.312C24.3851 47.3013 24.3477 47.296 24.3104 47.296C24.2384 47.296 24.1691 47.3107 24.1024 47.34C24.0384 47.3667 23.9811 47.4053 23.9304 47.456C23.8824 47.504 23.8437 47.5613 23.8144 47.628C23.7851 47.692 23.7704 47.7627 23.7704 47.84V49H23.3544ZM25.6858 49.04C25.5125 49.04 25.3538 48.992 25.2098 48.896C25.0685 48.8 24.9552 48.6693 24.8698 48.504C24.7845 48.3387 24.7418 48.152 24.7418 47.944C24.7418 47.7333 24.7845 47.5467 24.8698 47.384C24.9578 47.2187 25.0752 47.0893 25.2218 46.996C25.3712 46.9027 25.5378 46.856 25.7218 46.856C25.8312 46.856 25.9312 46.872 26.0218 46.904C26.1125 46.936 26.1912 46.9813 26.2578 47.04C26.3272 47.096 26.3832 47.1613 26.4258 47.236C26.4712 47.3107 26.4992 47.3907 26.5098 47.476L26.4178 47.444V46.9H26.8338V49H26.4178V48.5L26.5138 48.472C26.4978 48.544 26.4645 48.6147 26.4138 48.684C26.3658 48.7507 26.3032 48.8107 26.2258 48.864C26.1512 48.9173 26.0672 48.96 25.9738 48.992C25.8832 49.024 25.7872 49.04 25.6858 49.04ZM25.7938 48.66C25.9192 48.66 26.0298 48.6293 26.1258 48.568C26.2218 48.5067 26.2965 48.4227 26.3498 48.316C26.4058 48.2067 26.4338 48.0827 26.4338 47.944C26.4338 47.808 26.4058 47.6867 26.3498 47.58C26.2965 47.4733 26.2218 47.3893 26.1258 47.328C26.0298 47.2667 25.9192 47.236 25.7938 47.236C25.6712 47.236 25.5618 47.2667 25.4658 47.328C25.3725 47.3893 25.2978 47.4733 25.2418 47.58C25.1885 47.6867 25.1618 47.808 25.1618 47.944C25.1618 48.0827 25.1885 48.2067 25.2418 48.316C25.2978 48.4227 25.3725 48.5067 25.4658 48.568C25.5618 48.6293 25.6712 48.66 25.7938 48.66ZM27.4091 49V46.9H27.8211V47.332L27.7491 47.38C27.7758 47.2867 27.8278 47.2013 27.9051 47.124C27.9824 47.044 28.0744 46.98 28.1811 46.932C28.2878 46.8813 28.3971 46.856 28.5091 46.856C28.6691 46.856 28.8024 46.888 28.9091 46.952C29.0158 47.0133 29.0958 47.108 29.1491 47.236C29.2024 47.364 29.2291 47.5253 29.2291 47.72V49H28.8171V47.748C28.8171 47.628 28.8011 47.5293 28.7691 47.452C28.7371 47.372 28.6878 47.3147 28.6211 47.28C28.5544 47.2427 28.4718 47.2267 28.3731 47.232C28.2931 47.232 28.2198 47.2453 28.1531 47.272C28.0864 47.296 28.0278 47.3307 27.9771 47.376C27.9291 47.4213 27.8904 47.4747 27.8611 47.536C27.8344 47.5947 27.8211 47.6587 27.8211 47.728V49H27.6171C27.5824 49 27.5478 49 27.5131 49C27.4784 49 27.4438 49 27.4091 49ZM30.488 49.04C30.312 49.04 30.1533 49.0093 30.012 48.948C29.8707 48.8867 29.7533 48.796 29.66 48.676L29.94 48.436C30.02 48.5293 30.1067 48.5973 30.2 48.64C30.296 48.68 30.404 48.7 30.524 48.7C30.572 48.7 30.616 48.6947 30.656 48.684C30.6987 48.6707 30.7347 48.652 30.764 48.628C30.796 48.604 30.82 48.576 30.836 48.544C30.852 48.5093 30.86 48.472 30.86 48.432C30.86 48.3627 30.8347 48.3067 30.784 48.264C30.7573 48.2453 30.7147 48.2253 30.656 48.204C30.6 48.18 30.5267 48.156 30.436 48.132C30.2813 48.092 30.1547 48.0467 30.056 47.996C29.9573 47.9453 29.8813 47.888 29.828 47.824C29.788 47.7733 29.7587 47.7187 29.74 47.66C29.7213 47.5987 29.712 47.532 29.712 47.46C29.712 47.372 29.7307 47.292 29.768 47.22C29.808 47.1453 29.8613 47.0813 29.928 47.028C29.9973 46.972 30.0773 46.9293 30.168 46.9C30.2613 46.8707 30.36 46.856 30.464 46.856C30.5627 46.856 30.66 46.8693 30.756 46.896C30.8547 46.9227 30.9453 46.9613 31.028 47.012C31.1107 47.0627 31.18 47.1227 31.236 47.192L31 47.452C30.9493 47.4013 30.8933 47.3573 30.832 47.32C30.7733 47.28 30.7133 47.2493 30.652 47.228C30.5907 47.2067 30.5347 47.196 30.484 47.196C30.428 47.196 30.3773 47.2013 30.332 47.212C30.2867 47.2227 30.248 47.2387 30.216 47.26C30.1867 47.2813 30.164 47.308 30.148 47.34C30.132 47.372 30.124 47.408 30.124 47.448C30.1267 47.4827 30.1347 47.516 30.148 47.548C30.164 47.5773 30.1853 47.6027 30.212 47.624C30.2413 47.6453 30.2853 47.668 30.344 47.692C30.4027 47.716 30.4773 47.7387 30.568 47.76C30.7013 47.7947 30.8107 47.8333 30.896 47.876C30.984 47.916 31.0533 47.9627 31.104 48.016C31.1573 48.0667 31.1947 48.1253 31.216 48.192C31.2373 48.2587 31.248 48.3333 31.248 48.416C31.248 48.536 31.2133 48.644 31.144 48.74C31.0773 48.8333 30.9867 48.9067 30.872 48.96C30.7573 49.0133 30.6293 49.04 30.488 49.04ZM31.7021 49.88V46.9H32.1181V47.38L32.0541 47.344C32.0701 47.264 32.1154 47.188 32.1901 47.116C32.2647 47.0413 32.3554 46.9813 32.4621 46.936C32.5714 46.888 32.6834 46.864 32.7981 46.864C32.9874 46.864 33.1554 46.9107 33.3021 47.004C33.4487 47.0973 33.5647 47.2253 33.6501 47.388C33.7354 47.5507 33.7781 47.7373 33.7781 47.948C33.7781 48.156 33.7354 48.3427 33.6501 48.508C33.5674 48.6707 33.4527 48.8 33.3061 48.896C33.1594 48.9893 32.9941 49.036 32.8101 49.036C32.6874 49.036 32.5687 49.012 32.4541 48.964C32.3394 48.9133 32.2421 48.8493 32.1621 48.772C32.0821 48.6947 32.0327 48.6147 32.0141 48.532L32.1181 48.476V49.88H31.7021ZM32.7421 48.656C32.8647 48.656 32.9741 48.6253 33.0701 48.564C33.1661 48.5027 33.2421 48.4187 33.2981 48.312C33.3541 48.2053 33.3821 48.084 33.3821 47.948C33.3821 47.812 33.3541 47.692 33.2981 47.588C33.2447 47.4813 33.1701 47.3973 33.0741 47.336C32.9781 47.2747 32.8674 47.244 32.7421 47.244C32.6167 47.244 32.5061 47.2747 32.4101 47.336C32.3141 47.3947 32.2381 47.4773 32.1821 47.584C32.1261 47.6907 32.0981 47.812 32.0981 47.948C32.0981 48.084 32.1261 48.2053 32.1821 48.312C32.2381 48.4187 32.3141 48.5027 32.4101 48.564C32.5061 48.6253 32.6167 48.656 32.7421 48.656ZM35.1695 49.04C34.9642 49.04 34.7802 48.9933 34.6175 48.9C34.4575 48.804 34.3308 48.6747 34.2375 48.512C34.1442 48.3467 34.0975 48.1587 34.0975 47.948C34.0975 47.7373 34.1442 47.5507 34.2375 47.388C34.3308 47.2227 34.4575 47.0933 34.6175 47C34.7802 46.904 34.9642 46.856 35.1695 46.856C35.3722 46.856 35.5535 46.904 35.7135 47C35.8762 47.0933 36.0042 47.2227 36.0975 47.388C36.1908 47.5507 36.2375 47.7373 36.2375 47.948C36.2375 48.1587 36.1908 48.3467 36.0975 48.512C36.0042 48.6747 35.8762 48.804 35.7135 48.9C35.5535 48.9933 35.3722 49.04 35.1695 49.04ZM35.1695 48.664C35.2948 48.664 35.4068 48.6333 35.5055 48.572C35.6042 48.508 35.6815 48.4227 35.7375 48.316C35.7935 48.2067 35.8202 48.084 35.8175 47.948C35.8202 47.8093 35.7935 47.6867 35.7375 47.58C35.6815 47.4707 35.6042 47.3853 35.5055 47.324C35.4068 47.2627 35.2948 47.232 35.1695 47.232C35.0442 47.232 34.9308 47.264 34.8295 47.328C34.7308 47.3893 34.6535 47.4747 34.5975 47.584C34.5415 47.6907 34.5148 47.812 34.5175 47.948C34.5148 48.084 34.5415 48.2067 34.5975 48.316C34.6535 48.4227 34.7308 48.508 34.8295 48.572C34.9308 48.6333 35.0442 48.664 35.1695 48.664ZM36.6864 49V46.9H37.1024V47.56L37.0624 47.4C37.0918 47.2987 37.1411 47.2067 37.2104 47.124C37.2824 47.0413 37.3638 46.976 37.4544 46.928C37.5478 46.88 37.6438 46.856 37.7424 46.856C37.7878 46.856 37.8304 46.86 37.8704 46.868C37.9131 46.876 37.9464 46.8853 37.9704 46.896L37.8624 47.344C37.8304 47.3307 37.7944 47.32 37.7544 47.312C37.7171 47.3013 37.6798 47.296 37.6424 47.296C37.5704 47.296 37.5011 47.3107 37.4344 47.34C37.3704 47.3667 37.3131 47.4053 37.2624 47.456C37.2144 47.504 37.1758 47.5613 37.1464 47.628C37.1171 47.692 37.1024 47.7627 37.1024 47.84V49H36.6864ZM38.6378 49V46.364H39.0498V49H38.6378ZM38.2018 47.3V46.9H39.5378V47.3H38.2018ZM40.6911 49.04C40.5151 49.04 40.3565 49.0093 40.2151 48.948C40.0738 48.8867 39.9565 48.796 39.8631 48.676L40.1431 48.436C40.2231 48.5293 40.3098 48.5973 40.4031 48.64C40.4991 48.68 40.6071 48.7 40.7271 48.7C40.7751 48.7 40.8191 48.6947 40.8591 48.684C40.9018 48.6707 40.9378 48.652 40.9671 48.628C40.9991 48.604 41.0231 48.576 41.0391 48.544C41.0551 48.5093 41.0631 48.472 41.0631 48.432C41.0631 48.3627 41.0378 48.3067 40.9871 48.264C40.9605 48.2453 40.9178 48.2253 40.8591 48.204C40.8031 48.18 40.7298 48.156 40.6391 48.132C40.4845 48.092 40.3578 48.0467 40.2591 47.996C40.1605 47.9453 40.0845 47.888 40.0311 47.824C39.9911 47.7733 39.9618 47.7187 39.9431 47.66C39.9245 47.5987 39.9151 47.532 39.9151 47.46C39.9151 47.372 39.9338 47.292 39.9711 47.22C40.0111 47.1453 40.0645 47.0813 40.1311 47.028C40.2005 46.972 40.2805 46.9293 40.3711 46.9C40.4645 46.8707 40.5631 46.856 40.6671 46.856C40.7658 46.856 40.8631 46.8693 40.9591 46.896C41.0578 46.9227 41.1485 46.9613 41.2311 47.012C41.3138 47.0627 41.3831 47.1227 41.4391 47.192L41.2031 47.452C41.1525 47.4013 41.0965 47.3573 41.0351 47.32C40.9765 47.28 40.9165 47.2493 40.8551 47.228C40.7938 47.2067 40.7378 47.196 40.6871 47.196C40.6311 47.196 40.5805 47.2013 40.5351 47.212C40.4898 47.2227 40.4511 47.2387 40.4191 47.26C40.3898 47.2813 40.3671 47.308 40.3511 47.34C40.3351 47.372 40.3271 47.408 40.3271 47.448C40.3298 47.4827 40.3378 47.516 40.3511 47.548C40.3671 47.5773 40.3885 47.6027 40.4151 47.624C40.4445 47.6453 40.4885 47.668 40.5471 47.692C40.6058 47.716 40.6805 47.7387 40.7711 47.76C40.9045 47.7947 41.0138 47.8333 41.0991 47.876C41.1871 47.916 41.2565 47.9627 41.3071 48.016C41.3605 48.0667 41.3978 48.1253 41.4191 48.192C41.4405 48.2587 41.4511 48.3333 41.4511 48.416C41.4511 48.536 41.4165 48.644 41.3471 48.74C41.2805 48.8333 41.1898 48.9067 41.0751 48.96C40.9605 49.0133 40.8325 49.04 40.6911 49.04ZM41.9692 49.716L41.8172 49.532C41.9105 49.4787 41.9865 49.4173 42.0452 49.348C42.1039 49.2787 42.1332 49.2187 42.1332 49.168C42.1332 49.1413 42.1265 49.1147 42.1132 49.088C42.0999 49.064 42.0719 49.0293 42.0292 48.984C41.9759 48.9333 41.9412 48.8907 41.9252 48.856C41.9092 48.8213 41.9012 48.784 41.9012 48.744C41.9012 48.68 41.9239 48.6293 41.9692 48.592C42.0145 48.552 42.0732 48.532 42.1452 48.532C42.2119 48.532 42.2719 48.552 42.3252 48.592C42.3812 48.6293 42.4239 48.6827 42.4532 48.752C42.4852 48.8187 42.5012 48.896 42.5012 48.984C42.5012 49.064 42.4879 49.1413 42.4612 49.216C42.4345 49.2907 42.3972 49.36 42.3492 49.424C42.3012 49.488 42.2452 49.5453 42.1812 49.596C42.1172 49.6467 42.0465 49.6867 41.9692 49.716ZM44.1007 49V46.04H44.5127V49H44.1007ZM45.1646 49V46.9H45.5766V49H45.1646ZM45.3646 46.436C45.2766 46.436 45.2086 46.4133 45.1606 46.368C45.1126 46.3227 45.0886 46.2587 45.0886 46.176C45.0886 46.0987 45.1126 46.036 45.1606 45.988C45.2113 45.94 45.2793 45.916 45.3646 45.916C45.4526 45.916 45.5206 45.9387 45.5686 45.984C45.6166 46.0293 45.6406 46.0933 45.6406 46.176C45.6406 46.2533 45.6153 46.316 45.5646 46.364C45.5166 46.412 45.4499 46.436 45.3646 46.436ZM47.3139 49.04C47.2232 49.04 47.1325 49.0253 47.0419 48.996C46.9539 48.9667 46.8725 48.928 46.7979 48.88C46.7259 48.8293 46.6645 48.7747 46.6139 48.716C46.5659 48.6547 46.5339 48.5933 46.5179 48.532L46.6219 48.476V48.988H46.2099V46.04H46.6219V47.38L46.5579 47.344C46.5712 47.2827 46.6005 47.224 46.6459 47.168C46.6912 47.1093 46.7485 47.0573 46.8179 47.012C46.8899 46.964 46.9672 46.9267 47.0499 46.9C47.1325 46.8707 47.2165 46.856 47.3019 46.856C47.4912 46.856 47.6592 46.9027 47.8059 46.996C47.9525 47.0893 48.0685 47.2187 48.1539 47.384C48.2392 47.5467 48.2819 47.7333 48.2819 47.944C48.2819 48.1547 48.2392 48.3427 48.1539 48.508C48.0712 48.6733 47.9565 48.804 47.8099 48.9C47.6632 48.9933 47.4979 49.04 47.3139 49.04ZM47.2459 48.664C47.3685 48.664 47.4779 48.6333 47.5739 48.572C47.6699 48.508 47.7459 48.4227 47.8019 48.316C47.8579 48.2067 47.8859 48.0827 47.8859 47.944C47.8859 47.808 47.8579 47.6867 47.8019 47.58C47.7485 47.4707 47.6739 47.3853 47.5779 47.324C47.4819 47.2627 47.3712 47.232 47.2459 47.232C47.1205 47.232 47.0099 47.2627 46.9139 47.324C46.8179 47.3853 46.7419 47.4707 46.6859 47.58C46.6299 47.6867 46.6019 47.808 46.6019 47.944C46.6019 48.0827 46.6299 48.2067 46.6859 48.316C46.7419 48.4227 46.8179 48.508 46.9139 48.572C47.0099 48.6333 47.1205 48.664 47.2459 48.664ZM48.7294 49V46.9H49.1454V47.56L49.1054 47.4C49.1347 47.2987 49.1841 47.2067 49.2534 47.124C49.3254 47.0413 49.4067 46.976 49.4974 46.928C49.5907 46.88 49.6867 46.856 49.7854 46.856C49.8307 46.856 49.8734 46.86 49.9134 46.868C49.9561 46.876 49.9894 46.8853 50.0134 46.896L49.9054 47.344C49.8734 47.3307 49.8374 47.32 49.7974 47.312C49.7601 47.3013 49.7227 47.296 49.6854 47.296C49.6134 47.296 49.5441 47.3107 49.4774 47.34C49.4134 47.3667 49.3561 47.4053 49.3054 47.456C49.2574 47.504 49.2187 47.5613 49.1894 47.628C49.1601 47.692 49.1454 47.7627 49.1454 47.84V49H48.7294ZM51.0608 49.04C50.8875 49.04 50.7288 48.992 50.5848 48.896C50.4435 48.8 50.3302 48.6693 50.2448 48.504C50.1595 48.3387 50.1168 48.152 50.1168 47.944C50.1168 47.7333 50.1595 47.5467 50.2448 47.384C50.3328 47.2187 50.4502 47.0893 50.5968 46.996C50.7462 46.9027 50.9128 46.856 51.0968 46.856C51.2062 46.856 51.3062 46.872 51.3968 46.904C51.4875 46.936 51.5662 46.9813 51.6328 47.04C51.7022 47.096 51.7582 47.1613 51.8008 47.236C51.8462 47.3107 51.8742 47.3907 51.8848 47.476L51.7928 47.444V46.9H52.2088V49H51.7928V48.5L51.8888 48.472C51.8728 48.544 51.8395 48.6147 51.7888 48.684C51.7408 48.7507 51.6782 48.8107 51.6008 48.864C51.5262 48.9173 51.4422 48.96 51.3488 48.992C51.2582 49.024 51.1622 49.04 51.0608 49.04ZM51.1688 48.66C51.2942 48.66 51.4048 48.6293 51.5008 48.568C51.5968 48.5067 51.6715 48.4227 51.7248 48.316C51.7808 48.2067 51.8088 48.0827 51.8088 47.944C51.8088 47.808 51.7808 47.6867 51.7248 47.58C51.6715 47.4733 51.5968 47.3893 51.5008 47.328C51.4048 47.2667 51.2942 47.236 51.1688 47.236C51.0462 47.236 50.9368 47.2667 50.8408 47.328C50.7475 47.3893 50.6728 47.4733 50.6168 47.58C50.5635 47.6867 50.5368 47.808 50.5368 47.944C50.5368 48.0827 50.5635 48.2067 50.6168 48.316C50.6728 48.4227 50.7475 48.5067 50.8408 48.568C50.9368 48.6293 51.0462 48.66 51.1688 48.66ZM52.7841 49V46.9H53.2001V47.56L53.1601 47.4C53.1894 47.2987 53.2388 47.2067 53.3081 47.124C53.3801 47.0413 53.4614 46.976 53.5521 46.928C53.6454 46.88 53.7414 46.856 53.8401 46.856C53.8854 46.856 53.9281 46.86 53.9681 46.868C54.0108 46.876 54.0441 46.8853 54.0681 46.896L53.9601 47.344C53.9281 47.3307 53.8921 47.32 53.8521 47.312C53.8148 47.3013 53.7774 47.296 53.7401 47.296C53.6681 47.296 53.5988 47.3107 53.5321 47.34C53.4681 47.3667 53.4108 47.4053 53.3601 47.456C53.3121 47.504 53.2734 47.5613 53.2441 47.628C53.2148 47.692 53.2001 47.7627 53.2001 47.84V49H52.7841ZM54.4654 49V46.9H54.8774V49H54.4654ZM54.6654 46.436C54.5774 46.436 54.5094 46.4133 54.4614 46.368C54.4134 46.3227 54.3894 46.2587 54.3894 46.176C54.3894 46.0987 54.4134 46.036 54.4614 45.988C54.512 45.94 54.58 45.916 54.6654 45.916C54.7534 45.916 54.8214 45.9387 54.8694 45.984C54.9174 46.0293 54.9414 46.0933 54.9414 46.176C54.9414 46.2533 54.916 46.316 54.8654 46.364C54.8174 46.412 54.7507 46.436 54.6654 46.436ZM56.4907 49.04C56.2747 49.04 56.0827 48.9947 55.9147 48.904C55.7493 48.8107 55.6187 48.684 55.5227 48.524C55.4293 48.364 55.3827 48.18 55.3827 47.972C55.3827 47.8067 55.4093 47.656 55.4627 47.52C55.516 47.384 55.5893 47.2667 55.6827 47.168C55.7787 47.0667 55.892 46.9893 56.0227 46.936C56.156 46.88 56.3 46.852 56.4547 46.852C56.5907 46.852 56.7173 46.8787 56.8347 46.932C56.952 46.9827 57.0533 47.0533 57.1387 47.144C57.2267 47.2347 57.2933 47.3427 57.3387 47.468C57.3867 47.5907 57.4093 47.7253 57.4067 47.872L57.4027 48.048H55.6867L55.5947 47.72H57.0467L56.9867 47.788V47.692C56.9787 47.604 56.9493 47.5253 56.8987 47.456C56.848 47.3867 56.784 47.332 56.7067 47.292C56.6293 47.252 56.5453 47.232 56.4547 47.232C56.3107 47.232 56.1893 47.26 56.0907 47.316C55.992 47.3693 55.9173 47.4493 55.8667 47.556C55.816 47.66 55.7907 47.7893 55.7907 47.944C55.7907 48.0907 55.8213 48.2187 55.8827 48.328C55.944 48.4347 56.0307 48.5173 56.1427 48.576C56.2547 48.6347 56.384 48.664 56.5307 48.664C56.6347 48.664 56.7307 48.6467 56.8187 48.612C56.9093 48.5773 57.0067 48.5147 57.1107 48.424L57.3187 48.716C57.2547 48.78 57.176 48.836 57.0827 48.884C56.992 48.932 56.8947 48.9707 56.7907 49C56.6893 49.0267 56.5893 49.04 56.4907 49.04ZM58.5544 49.04C58.3784 49.04 58.2197 49.0093 58.0784 48.948C57.9371 48.8867 57.8197 48.796 57.7264 48.676L58.0064 48.436C58.0864 48.5293 58.1731 48.5973 58.2664 48.64C58.3624 48.68 58.4704 48.7 58.5904 48.7C58.6384 48.7 58.6824 48.6947 58.7224 48.684C58.7651 48.6707 58.8011 48.652 58.8304 48.628C58.8624 48.604 58.8864 48.576 58.9024 48.544C58.9184 48.5093 58.9264 48.472 58.9264 48.432C58.9264 48.3627 58.9011 48.3067 58.8504 48.264C58.8237 48.2453 58.7811 48.2253 58.7224 48.204C58.6664 48.18 58.5931 48.156 58.5024 48.132C58.3477 48.092 58.2211 48.0467 58.1224 47.996C58.0237 47.9453 57.9477 47.888 57.8944 47.824C57.8544 47.7733 57.8251 47.7187 57.8064 47.66C57.7877 47.5987 57.7784 47.532 57.7784 47.46C57.7784 47.372 57.7971 47.292 57.8344 47.22C57.8744 47.1453 57.9277 47.0813 57.9944 47.028C58.0637 46.972 58.1437 46.9293 58.2344 46.9C58.3277 46.8707 58.4264 46.856 58.5304 46.856C58.6291 46.856 58.7264 46.8693 58.8224 46.896C58.9211 46.9227 59.0117 46.9613 59.0944 47.012C59.1771 47.0627 59.2464 47.1227 59.3024 47.192L59.0664 47.452C59.0157 47.4013 58.9597 47.3573 58.8984 47.32C58.8397 47.28 58.7797 47.2493 58.7184 47.228C58.6571 47.2067 58.6011 47.196 58.5504 47.196C58.4944 47.196 58.4437 47.2013 58.3984 47.212C58.3531 47.2227 58.3144 47.2387 58.2824 47.26C58.2531 47.2813 58.2304 47.308 58.2144 47.34C58.1984 47.372 58.1904 47.408 58.1904 47.448C58.1931 47.4827 58.2011 47.516 58.2144 47.548C58.2304 47.5773 58.2517 47.6027 58.2784 47.624C58.3077 47.6453 58.3517 47.668 58.4104 47.692C58.4691 47.716 58.5437 47.7387 58.6344 47.76C58.7677 47.7947 58.8771 47.8333 58.9624 47.876C59.0504 47.916 59.1197 47.9627 59.1704 48.016C59.2237 48.0667 59.2611 48.1253 59.2824 48.192C59.3037 48.2587 59.3144 48.3333 59.3144 48.416C59.3144 48.536 59.2797 48.644 59.2104 48.74C59.1437 48.8333 59.0531 48.9067 58.9384 48.96C58.8237 49.0133 58.6957 49.04 58.5544 49.04Z" fill="white"/>
<path d="M29.3 52C29.3 51.8343 29.1657 51.7 29 51.7C28.8343 51.7 28.7 51.8343 28.7 52H29.3ZM28.7879 58.2121C28.905 58.3293 29.095 58.3293 29.2121 58.2121L31.1213 56.3029C31.2385 56.1858 31.2385 55.9958 31.1213 55.8787C31.0042 55.7615 30.8142 55.7615 30.6971 55.8787L29 57.5757L27.3029 55.8787C27.1858 55.7615 26.9958 55.7615 26.8787 55.8787C26.7615 55.9958 26.7615 56.1858 26.8787 56.3029L28.7879 58.2121ZM29 52H28.7V58H29H29.3V52H29Z" fill="white"/>
<path d="M21.1 35L22.184 32.2H22.624L23.7 35H23.24L22.6 33.312C22.592 33.2933 22.576 33.248 22.552 33.176C22.5307 33.104 22.5053 33.024 22.476 32.936C22.4467 32.848 22.42 32.768 22.396 32.696C22.372 32.6213 22.356 32.5733 22.348 32.552L22.44 32.548C22.424 32.5933 22.404 32.6507 22.38 32.72C22.3587 32.7893 22.3347 32.8627 22.308 32.94C22.284 33.0173 22.26 33.0907 22.236 33.16C22.212 33.2267 22.192 33.2827 22.176 33.328L21.54 35H21.1ZM21.58 34.304L21.74 33.888H23.012L23.196 34.304H21.58ZM24.0888 35.88V32.9H24.5048V33.38L24.4408 33.344C24.4568 33.264 24.5021 33.188 24.5768 33.116C24.6514 33.0413 24.7421 32.9813 24.8488 32.936C24.9581 32.888 25.0701 32.864 25.1848 32.864C25.3741 32.864 25.5421 32.9107 25.6888 33.004C25.8354 33.0973 25.9514 33.2253 26.0368 33.388C26.1221 33.5507 26.1648 33.7373 26.1648 33.948C26.1648 34.156 26.1221 34.3427 26.0368 34.508C25.9541 34.6707 25.8394 34.8 25.6928 34.896C25.5461 34.9893 25.3808 35.036 25.1968 35.036C25.0741 35.036 24.9554 35.012 24.8408 34.964C24.7261 34.9133 24.6288 34.8493 24.5488 34.772C24.4688 34.6947 24.4194 34.6147 24.4008 34.532L24.5048 34.476V35.88H24.0888ZM25.1288 34.656C25.2514 34.656 25.3608 34.6253 25.4568 34.564C25.5528 34.5027 25.6288 34.4187 25.6848 34.312C25.7408 34.2053 25.7688 34.084 25.7688 33.948C25.7688 33.812 25.7408 33.692 25.6848 33.588C25.6314 33.4813 25.5568 33.3973 25.4608 33.336C25.3648 33.2747 25.2541 33.244 25.1288 33.244C25.0034 33.244 24.8928 33.2747 24.7968 33.336C24.7008 33.3947 24.6248 33.4773 24.5688 33.584C24.5128 33.6907 24.4848 33.812 24.4848 33.948C24.4848 34.084 24.5128 34.2053 24.5688 34.312C24.6248 34.4187 24.7008 34.5027 24.7968 34.564C24.8928 34.6253 25.0034 34.656 25.1288 34.656ZM26.6122 35.88V32.9H27.0282V33.38L26.9642 33.344C26.9802 33.264 27.0256 33.188 27.1002 33.116C27.1749 33.0413 27.2656 32.9813 27.3722 32.936C27.4816 32.888 27.5936 32.864 27.7082 32.864C27.8976 32.864 28.0656 32.9107 28.2122 33.004C28.3589 33.0973 28.4749 33.2253 28.5602 33.388C28.6456 33.5507 28.6882 33.7373 28.6882 33.948C28.6882 34.156 28.6456 34.3427 28.5602 34.508C28.4776 34.6707 28.3629 34.8 28.2162 34.896C28.0696 34.9893 27.9042 35.036 27.7202 35.036C27.5976 35.036 27.4789 35.012 27.3642 34.964C27.2496 34.9133 27.1522 34.8493 27.0722 34.772C26.9922 34.6947 26.9429 34.6147 26.9242 34.532L27.0282 34.476V35.88H26.6122ZM27.6522 34.656C27.7749 34.656 27.8842 34.6253 27.9802 34.564C28.0762 34.5027 28.1522 34.4187 28.2082 34.312C28.2642 34.2053 28.2922 34.084 28.2922 33.948C28.2922 33.812 28.2642 33.692 28.2082 33.588C28.1549 33.4813 28.0802 33.3973 27.9842 33.336C27.8882 33.2747 27.7776 33.244 27.6522 33.244C27.5269 33.244 27.4162 33.2747 27.3202 33.336C27.2242 33.3947 27.1482 33.4773 27.0922 33.584C27.0362 33.6907 27.0082 33.812 27.0082 33.948C27.0082 34.084 27.0362 34.2053 27.0922 34.312C27.1482 34.4187 27.2242 34.5027 27.3202 34.564C27.4162 34.6253 27.5269 34.656 27.6522 34.656ZM29.1437 35V32.04H29.5557V35H29.1437ZM30.2076 35V32.9H30.6196V35H30.2076ZM30.4076 32.436C30.3196 32.436 30.2516 32.4133 30.2036 32.368C30.1556 32.3227 30.1316 32.2587 30.1316 32.176C30.1316 32.0987 30.1556 32.036 30.2036 31.988C30.2542 31.94 30.3222 31.916 30.4076 31.916C30.4956 31.916 30.5636 31.9387 30.6116 31.984C30.6596 32.0293 30.6836 32.0933 30.6836 32.176C30.6836 32.2533 30.6582 32.316 30.6076 32.364C30.5596 32.412 30.4929 32.436 30.4076 32.436ZM32.1448 35.04C31.9502 35.04 31.7755 34.992 31.6208 34.896C31.4688 34.8 31.3475 34.6693 31.2568 34.504C31.1688 34.3387 31.1248 34.1533 31.1248 33.948C31.1248 33.7427 31.1688 33.5573 31.2568 33.392C31.3475 33.2267 31.4688 33.096 31.6208 33C31.7755 32.904 31.9502 32.856 32.1448 32.856C32.3315 32.856 32.5008 32.8947 32.6528 32.972C32.8075 33.0467 32.9248 33.1493 33.0048 33.28L32.7768 33.56C32.7342 33.4987 32.6795 33.4427 32.6128 33.392C32.5462 33.3413 32.4755 33.3013 32.4008 33.272C32.3262 33.2427 32.2542 33.228 32.1848 33.228C32.0568 33.228 31.9422 33.26 31.8408 33.324C31.7422 33.3853 31.6635 33.4707 31.6048 33.58C31.5462 33.6893 31.5168 33.812 31.5168 33.948C31.5168 34.084 31.5475 34.2067 31.6088 34.316C31.6702 34.4227 31.7515 34.508 31.8528 34.572C31.9542 34.636 32.0662 34.668 32.1888 34.668C32.2608 34.668 32.3302 34.656 32.3968 34.632C32.4662 34.608 32.5328 34.572 32.5968 34.524C32.6608 34.476 32.7208 34.4173 32.7768 34.348L33.0048 34.628C32.9195 34.748 32.7968 34.8467 32.6368 34.924C32.4795 35.0013 32.3155 35.04 32.1448 35.04ZM34.2015 35.04C34.0281 35.04 33.8695 34.992 33.7255 34.896C33.5841 34.8 33.4708 34.6693 33.3855 34.504C33.3001 34.3387 33.2575 34.152 33.2575 33.944C33.2575 33.7333 33.3001 33.5467 33.3855 33.384C33.4735 33.2187 33.5908 33.0893 33.7375 32.996C33.8868 32.9027 34.0535 32.856 34.2375 32.856C34.3468 32.856 34.4468 32.872 34.5375 32.904C34.6281 32.936 34.7068 32.9813 34.7735 33.04C34.8428 33.096 34.8988 33.1613 34.9415 33.236C34.9868 33.3107 35.0148 33.3907 35.0255 33.476L34.9335 33.444V32.9H35.3495V35H34.9335V34.5L35.0295 34.472C35.0135 34.544 34.9801 34.6147 34.9295 34.684C34.8815 34.7507 34.8188 34.8107 34.7415 34.864C34.6668 34.9173 34.5828 34.96 34.4895 34.992C34.3988 35.024 34.3028 35.04 34.2015 35.04ZM34.3095 34.66C34.4348 34.66 34.5455 34.6293 34.6415 34.568C34.7375 34.5067 34.8121 34.4227 34.8655 34.316C34.9215 34.2067 34.9495 34.0827 34.9495 33.944C34.9495 33.808 34.9215 33.6867 34.8655 33.58C34.8121 33.4733 34.7375 33.3893 34.6415 33.328C34.5455 33.2667 34.4348 33.236 34.3095 33.236C34.1868 33.236 34.0775 33.2667 33.9815 33.328C33.8881 33.3893 33.8135 33.4733 33.7575 33.58C33.7041 33.6867 33.6775 33.808 33.6775 33.944C33.6775 34.0827 33.7041 34.2067 33.7575 34.316C33.8135 34.4227 33.8881 34.5067 33.9815 34.568C34.0775 34.6293 34.1868 34.66 34.3095 34.66ZM36.1847 35V32.364H36.5967V35H36.1847ZM35.7487 33.3V32.9H37.0847V33.3H35.7487ZM37.5279 35V32.9H37.9399V35H37.5279ZM37.7279 32.436C37.6399 32.436 37.5719 32.4133 37.5239 32.368C37.4759 32.3227 37.4519 32.2587 37.4519 32.176C37.4519 32.0987 37.4759 32.036 37.5239 31.988C37.5745 31.94 37.6425 31.916 37.7279 31.916C37.8159 31.916 37.8839 31.9387 37.9319 31.984C37.9799 32.0293 38.0039 32.0933 38.0039 32.176C38.0039 32.2533 37.9785 32.316 37.9279 32.364C37.8799 32.412 37.8132 32.436 37.7279 32.436ZM39.5172 35.04C39.3118 35.04 39.1278 34.9933 38.9652 34.9C38.8052 34.804 38.6785 34.6747 38.5852 34.512C38.4918 34.3467 38.4452 34.1587 38.4452 33.948C38.4452 33.7373 38.4918 33.5507 38.5852 33.388C38.6785 33.2227 38.8052 33.0933 38.9652 33C39.1278 32.904 39.3118 32.856 39.5172 32.856C39.7198 32.856 39.9012 32.904 40.0612 33C40.2238 33.0933 40.3518 33.2227 40.4452 33.388C40.5385 33.5507 40.5852 33.7373 40.5852 33.948C40.5852 34.1587 40.5385 34.3467 40.4452 34.512C40.3518 34.6747 40.2238 34.804 40.0612 34.9C39.9012 34.9933 39.7198 35.04 39.5172 35.04ZM39.5172 34.664C39.6425 34.664 39.7545 34.6333 39.8532 34.572C39.9518 34.508 40.0292 34.4227 40.0852 34.316C40.1412 34.2067 40.1678 34.084 40.1652 33.948C40.1678 33.8093 40.1412 33.6867 40.0852 33.58C40.0292 33.4707 39.9518 33.3853 39.8532 33.324C39.7545 33.2627 39.6425 33.232 39.5172 33.232C39.3918 33.232 39.2785 33.264 39.1772 33.328C39.0785 33.3893 39.0012 33.4747 38.9452 33.584C38.8892 33.6907 38.8625 33.812 38.8652 33.948C38.8625 34.084 38.8892 34.2067 38.9452 34.316C39.0012 34.4227 39.0785 34.508 39.1772 34.572C39.2785 34.6333 39.3918 34.664 39.5172 34.664ZM41.0341 35V32.9H41.4461V33.332L41.3741 33.38C41.4008 33.2867 41.4528 33.2013 41.5301 33.124C41.6074 33.044 41.6994 32.98 41.8061 32.932C41.9128 32.8813 42.0221 32.856 42.1341 32.856C42.2941 32.856 42.4274 32.888 42.5341 32.952C42.6408 33.0133 42.7208 33.108 42.7741 33.236C42.8274 33.364 42.8541 33.5253 42.8541 33.72V35H42.4421V33.748C42.4421 33.628 42.4261 33.5293 42.3941 33.452C42.3621 33.372 42.3128 33.3147 42.2461 33.28C42.1794 33.2427 42.0968 33.2267 41.9981 33.232C41.9181 33.232 41.8448 33.2453 41.7781 33.272C41.7114 33.296 41.6528 33.3307 41.6021 33.376C41.5541 33.4213 41.5154 33.4747 41.4861 33.536C41.4594 33.5947 41.4461 33.6587 41.4461 33.728V35H41.2421C41.2074 35 41.1728 35 41.1381 35C41.1034 35 41.0688 35 41.0341 35ZM44.113 35.04C43.937 35.04 43.7783 35.0093 43.637 34.948C43.4957 34.8867 43.3783 34.796 43.285 34.676L43.565 34.436C43.645 34.5293 43.7317 34.5973 43.825 34.64C43.921 34.68 44.029 34.7 44.149 34.7C44.197 34.7 44.241 34.6947 44.281 34.684C44.3237 34.6707 44.3597 34.652 44.389 34.628C44.421 34.604 44.445 34.576 44.461 34.544C44.477 34.5093 44.485 34.472 44.485 34.432C44.485 34.3627 44.4597 34.3067 44.409 34.264C44.3823 34.2453 44.3397 34.2253 44.281 34.204C44.225 34.18 44.1517 34.156 44.061 34.132C43.9063 34.092 43.7797 34.0467 43.681 33.996C43.5823 33.9453 43.5063 33.888 43.453 33.824C43.413 33.7733 43.3837 33.7187 43.365 33.66C43.3463 33.5987 43.337 33.532 43.337 33.46C43.337 33.372 43.3557 33.292 43.393 33.22C43.433 33.1453 43.4863 33.0813 43.553 33.028C43.6223 32.972 43.7023 32.9293 43.793 32.9C43.8863 32.8707 43.985 32.856 44.089 32.856C44.1877 32.856 44.285 32.8693 44.381 32.896C44.4797 32.9227 44.5703 32.9613 44.653 33.012C44.7357 33.0627 44.805 33.1227 44.861 33.192L44.625 33.452C44.5743 33.4013 44.5183 33.3573 44.457 33.32C44.3983 33.28 44.3383 33.2493 44.277 33.228C44.2157 33.2067 44.1597 33.196 44.109 33.196C44.053 33.196 44.0023 33.2013 43.957 33.212C43.9117 33.2227 43.873 33.2387 43.841 33.26C43.8117 33.2813 43.789 33.308 43.773 33.34C43.757 33.372 43.749 33.408 43.749 33.448C43.7517 33.4827 43.7597 33.516 43.773 33.548C43.789 33.5773 43.8103 33.6027 43.837 33.624C43.8663 33.6453 43.9103 33.668 43.969 33.692C44.0277 33.716 44.1023 33.7387 44.193 33.76C44.3263 33.7947 44.4357 33.8333 44.521 33.876C44.609 33.916 44.6783 33.9627 44.729 34.016C44.7823 34.0667 44.8197 34.1253 44.841 34.192C44.8623 34.2587 44.873 34.3333 44.873 34.416C44.873 34.536 44.8383 34.644 44.769 34.74C44.7023 34.8333 44.6117 34.9067 44.497 34.96C44.3823 35.0133 44.2543 35.04 44.113 35.04Z" fill="white"/>
<path d="M29.3 38C29.3 37.8343 29.1657 37.7 29 37.7C28.8343 37.7 28.7 37.8343 28.7 38H29.3ZM28.7879 44.2121C28.905 44.3293 29.095 44.3293 29.2121 44.2121L31.1213 42.3029C31.2385 42.1858 31.2385 41.9958 31.1213 41.8787C31.0042 41.7615 30.8142 41.7615 30.6971 41.8787L29 43.5757L27.3029 41.8787C27.1858 41.7615 26.9958 41.7615 26.8787 41.8787C26.7615 41.9958 26.7615 42.1858 26.8787 42.3029L28.7879 44.2121ZM29 38H28.7V44H29H29.3V38H29Z" fill="white"/>
<path d="M29.3 23C29.3 22.8343 29.1657 22.7 29 22.7C28.8343 22.7 28.7 22.8343 28.7 23H29.3ZM28.7879 29.2121C28.905 29.3293 29.095 29.3293 29.2121 29.2121L31.1213 27.3029C31.2385 27.1858 31.2385 26.9958 31.1213 26.8787C31.0042 26.7615 30.8142 26.7615 30.6971 26.8787L29 28.5757L27.3029 26.8787C27.1858 26.7615 26.9958 26.7615 26.8787 26.8787C26.7615 26.9958 26.7615 27.1858 26.8787 27.3029L28.7879 29.2121ZM29 23H28.7V29H29H29.3V23H29Z" fill="url(#paint0_linear_41_4)"/>
</g>
<defs>
<linearGradient id="paint0_linear_41_4" x1="28.5" y1="23" x2="28.5" y2="29" gradientUnits="userSpaceOnUse">
<stop stop-color="white" stop-opacity="0"/>
<stop offset="1" stop-color="white"/>
</linearGradient>
<clipPath id="clip0_41_4">
<rect width="60" height="84" fill="white"/>
</clipPath>
</defs>
</svg>
