<svg width="53" height="84" viewBox="0 0 53 84" fill="none" xmlns="http://www.w3.org/2000/svg">
<path d="M3.98 0.959999C4.01333 0.953333 4.08 0.95 4.18 0.95C4.33333 0.956666 4.47333 0.993333 4.6 1.06C4.86 1.19333 4.99 1.40667 4.99 1.7C4.99 1.82 4.96333 1.93333 4.91 2.04C4.88333 2.10667 4.84333 2.16333 4.79 2.21C4.72333 2.27667 4.66667 2.32 4.62 2.34C4.43333 2.42667 4.25667 2.43 4.09 2.35C3.92333 2.26333 3.86333 2.11 3.91 1.89C3.91667 1.86333 3.92333 1.83667 3.93 1.81C3.97667 1.65667 4.06 1.54333 4.18 1.47C4.21333 1.45 4.19 1.43333 4.11 1.42C4.06333 1.42 4.03 1.42667 4.01 1.44C3.95667 1.48 3.92 1.52667 3.9 1.58C3.87333 1.63333 3.80333 1.94 3.69 2.5C3.53667 3.23333 3.46 3.62667 3.46 3.68C3.46 3.68667 3.64 3.69 4 3.69H4.54L4.58 3.72C4.60667 3.75333 4.60333 3.84333 4.57 3.99C4.53667 4.13667 4.50667 4.21667 4.48 4.23C4.46 4.24333 4.26667 4.25 3.9 4.25C3.53333 4.25 3.35 4.25667 3.35 4.27L3.09 5.59L2.79 7.14C2.61 8.00667 2.43667 8.62667 2.27 9C2.05667 9.49333 1.78333 9.81667 1.45 9.97C1.35667 10.0167 1.25667 10.0433 1.15 10.05C0.856667 10.0633 0.623333 9.97333 0.45 9.78C0.436667 9.77333 0.426667 9.76333 0.42 9.75C0.326667 9.61667 0.28 9.47 0.28 9.31C0.28 9.18333 0.306667 9.06667 0.36 8.96C0.386667 8.89333 0.426667 8.83667 0.48 8.79C0.546667 8.72333 0.603333 8.68 0.65 8.66C0.836667 8.57333 1.01333 8.57 1.18 8.65C1.34667 8.73667 1.40667 8.89 1.36 9.11C1.35333 9.13667 1.34667 9.16333 1.34 9.19C1.29333 9.34333 1.21 9.45667 1.09 9.53C1.05 9.55667 1.07333 9.57 1.16 9.57C1.21333 9.57 1.25333 9.56 1.28 9.54C1.36667 9.47333 1.43333 9.3 1.48 9.02C1.54667 8.6 1.64667 8.12667 1.78 7.6L1.98 6.7C2.29333 5.02667 2.45 4.21333 2.45 4.26C2.45 4.25333 2.29667 4.25 1.99 4.25C1.66333 4.25 1.48667 4.22667 1.46 4.18C1.44667 4.16 1.45667 4.08333 1.49 3.95C1.52333 3.81667 1.55 3.74 1.57 3.72L1.6 3.69H2.08H2.56V3.67L2.66 3.18C2.79333 2.48667 2.92333 2.00333 3.05 1.73C3.25667 1.31 3.56667 1.05333 3.98 0.959999ZM8.27641 0.539999L8.33641 0.499999H8.50641H8.67641L8.70641 0.53C8.72641 0.55 8.73641 0.573333 8.73641 0.6C8.73641 0.62 8.70307 0.66 8.63641 0.72C8.45641 0.893333 8.29974 1.05 8.16641 1.19C7.27307 2.18333 6.59974 3.50333 6.14641 5.15C5.91974 5.95667 5.77307 6.71333 5.70641 7.42C5.67307 7.81333 5.66974 8.15333 5.69641 8.44C5.74307 9.15333 5.91974 9.77 6.22641 10.29C6.27307 10.37 6.28974 10.4233 6.27641 10.45C6.24974 10.4833 6.16974 10.5 6.03641 10.5H5.87641L5.82641 10.46C5.71974 10.3467 5.58974 10.1533 5.43641 9.88C5.20974 9.46 5.06307 8.98333 4.99641 8.45C4.87641 7.57667 4.96307 6.56333 5.25641 5.41C5.68307 3.79667 6.35641 2.48 7.27641 1.46C7.58307 1.11333 7.90307 0.816666 8.23641 0.57C8.24974 0.556666 8.26307 0.546666 8.27641 0.539999ZM9.8582 3.59C10.0849 3.55667 10.3149 3.59 10.5482 3.69C10.7282 3.77 10.8649 3.88333 10.9582 4.03L10.9982 4.08L11.0382 4.02C11.2049 3.82 11.4082 3.68333 11.6482 3.61C11.9415 3.53 12.2082 3.58333 12.4482 3.77C12.4949 3.80333 12.5349 3.84 12.5682 3.88C12.6482 3.97333 12.7015 4.08333 12.7282 4.21C12.7949 4.43 12.7782 4.64667 12.6782 4.86C12.5715 5.08667 12.3915 5.21333 12.1382 5.24C11.9249 5.26 11.7782 5.18333 11.6982 5.01C11.6782 4.97667 11.6649 4.92333 11.6582 4.85C11.6582 4.73667 11.6815 4.63333 11.7282 4.54C11.7815 4.42 11.8782 4.32333 12.0182 4.25C12.0782 4.22333 12.1082 4.20333 12.1082 4.19C12.0815 4.15 12.0349 4.11333 11.9682 4.08C11.9349 4.06667 11.8849 4.06 11.8182 4.06C11.7515 4.06 11.7015 4.06667 11.6682 4.08C11.5015 4.17333 11.3715 4.35 11.2782 4.61L10.6982 6.92C10.6515 7.12667 10.6415 7.28 10.6682 7.38C10.7215 7.56 10.8649 7.64667 11.0982 7.64C11.1782 7.63333 11.2549 7.61667 11.3282 7.59C11.5949 7.49 11.8149 7.26 11.9882 6.9C12.0349 6.80667 12.0715 6.71333 12.0982 6.62C12.1249 6.53333 12.1549 6.48667 12.1882 6.48C12.2082 6.47333 12.2782 6.47 12.3982 6.47C12.5449 6.47 12.6249 6.47667 12.6382 6.49C12.6715 6.51667 12.6749 6.57333 12.6482 6.66C12.5949 6.88 12.5015 7.08333 12.3682 7.27C12.0215 7.77667 11.5982 8.05667 11.0982 8.11C11.0849 8.11 11.0715 8.11 11.0582 8.11C10.6715 8.13 10.3615 8.00333 10.1282 7.73C10.1149 7.72333 10.1049 7.71333 10.0982 7.7C10.0582 7.65333 10.0349 7.62667 10.0282 7.62L9.9682 7.69C9.87487 7.79667 9.78154 7.87667 9.6882 7.93C9.4882 8.05667 9.29154 8.11667 9.0982 8.11C8.97154 8.10333 8.84487 8.07 8.7182 8.01C8.50487 7.91 8.36487 7.73 8.2982 7.47C8.22487 7.13667 8.28487 6.86 8.4782 6.64C8.66487 6.46 8.8682 6.40333 9.0882 6.47C9.1682 6.49667 9.23154 6.53667 9.2782 6.59C9.40487 6.73 9.41154 6.91667 9.2982 7.15C9.2382 7.27667 9.14487 7.37333 9.0182 7.44C8.9582 7.47333 8.92487 7.49 8.9182 7.49C8.9182 7.51667 8.9682 7.55667 9.0682 7.61C9.09487 7.62333 9.14154 7.63 9.2082 7.63C9.27487 7.63 9.32487 7.62333 9.3582 7.61C9.52487 7.52333 9.65154 7.35 9.7382 7.09L10.3382 4.73C10.3515 4.66333 10.3582 4.57 10.3582 4.45C10.3582 4.35667 10.3515 4.29333 10.3382 4.26C10.2582 4.08667 10.0882 4.02333 9.8282 4.07C9.58154 4.11667 9.36154 4.28333 9.1682 4.57C9.05487 4.75 8.97154 4.93667 8.9182 5.13C8.8982 5.17 8.88487 5.19333 8.8782 5.2C8.86487 5.21333 8.78487 5.22 8.6382 5.22H8.4182L8.3882 5.19C8.3682 5.17 8.3582 5.14333 8.3582 5.11C8.38487 4.93667 8.4782 4.72667 8.6382 4.48C8.64487 4.46667 8.65154 4.45333 8.6582 4.44C8.95154 3.98 9.3282 3.7 9.7882 3.6C9.81487 3.6 9.8382 3.59667 9.8582 3.59ZM14.9669 0.51C14.9802 0.503333 15.0435 0.499999 15.1569 0.499999H15.3269L15.3769 0.539999C15.4835 0.653333 15.6135 0.846666 15.7669 1.12C15.9869 1.53333 16.1335 2.00667 16.2069 2.54C16.3269 3.42667 16.2402 4.44 15.9469 5.58C15.5202 7.2 14.8469 8.52 13.9269 9.54C13.6202 9.88667 13.3002 10.1833 12.9669 10.43C12.9535 10.4433 12.9402 10.4533 12.9269 10.46L12.8669 10.5H12.6969H12.5269L12.4969 10.47C12.4769 10.45 12.4669 10.4267 12.4669 10.4C12.4669 10.38 12.5002 10.34 12.5669 10.28C12.7669 10.0933 12.9235 9.93333 13.0369 9.8C13.9302 8.81333 14.6035 7.49333 15.0569 5.84C15.2769 5.04667 15.4235 4.29333 15.4969 3.58C15.5302 3.19333 15.5335 2.85 15.5069 2.55C15.4602 1.84333 15.2835 1.23 14.9769 0.71C14.9369 0.643333 14.9169 0.606666 14.9169 0.6C14.9169 0.56 14.9335 0.53 14.9669 0.51Z" fill="white"/>
<path d="M8.26517 14.7348C8.11872 14.5884 7.88128 14.5884 7.73484 14.7348L5.34835 17.1213C5.2019 17.2678 5.2019 17.5052 5.34835 17.6517C5.4948 17.7981 5.73223 17.7981 5.87868 17.6517L8 15.5303L10.1213 17.6517C10.2678 17.7981 10.5052 17.7981 10.6517 17.6517C10.7981 17.5052 10.7981 17.2678 10.6517 17.1213L8.26517 14.7348ZM7.73483 65.2652C7.88128 65.4116 8.11872 65.4116 8.26516 65.2652L10.6517 62.8787C10.7981 62.7322 10.7981 62.4948 10.6517 62.3484C10.5052 62.2019 10.2678 62.2019 10.1213 62.3484L8 64.4697L5.87868 62.3484C5.73223 62.2019 5.4948 62.2019 5.34835 62.3484C5.2019 62.4948 5.2019 62.7322 5.34835 62.8787L7.73483 65.2652ZM8 15L7.625 15L7.625 65L8 65L8.375 65L8.375 15L8 15Z" fill="white" fill-opacity="0.5"/>
<circle cx="8.5" cy="76.5" r="6.2" stroke="white" stroke-width="0.6"/>
<path d="M6 75.25L10.5 72.5V69M6 77.75L10.5 80.5V84M6 74V76.5M6 79V76.5M6 76.5H0" stroke="white" stroke-width="0.6"/>
<path d="M7.94404 79.8445L8.90775 78.3837L9.88664 80.0778L7.94404 79.8445Z" fill="white"/>
<path d="M20.695 4.625C20.6017 4.625 20.5167 4.60167 20.44 4.555C20.3667 4.505 20.3083 4.43833 20.265 4.355C20.2217 4.26833 20.2 4.17 20.2 4.06C20.2 3.97333 20.2183 3.88833 20.255 3.805C20.2917 3.72167 20.3417 3.64333 20.405 3.57C20.4717 3.49667 20.5483 3.43167 20.635 3.375C20.7217 3.31833 20.815 3.275 20.915 3.245L21.105 3.475C20.975 3.535 20.8683 3.60333 20.785 3.68C20.7017 3.75667 20.66 3.82333 20.66 3.88C20.66 3.92333 20.6783 3.96167 20.715 3.995C20.7517 4.02833 20.785 4.05833 20.815 4.085C20.8883 4.145 20.9367 4.195 20.96 4.235C20.9867 4.275 21 4.31667 21 4.36C21 4.44 20.9717 4.505 20.915 4.555C20.8583 4.60167 20.785 4.625 20.695 4.625ZM21.73 4.625C21.6367 4.625 21.5517 4.60167 21.475 4.555C21.4017 4.505 21.3433 4.43833 21.3 4.355C21.2567 4.26833 21.235 4.17 21.235 4.06C21.235 3.97333 21.2533 3.88833 21.29 3.805C21.3267 3.72167 21.3767 3.64333 21.44 3.57C21.5067 3.49667 21.5833 3.43167 21.67 3.375C21.7567 3.31833 21.85 3.275 21.95 3.245L22.14 3.475C22.01 3.535 21.9033 3.60333 21.82 3.68C21.7367 3.75667 21.695 3.82333 21.695 3.88C21.695 3.92333 21.7133 3.96167 21.75 3.995C21.7867 4.02833 21.82 4.05833 21.85 4.085C21.9233 4.145 21.9717 4.195 21.995 4.235C22.0217 4.275 22.035 4.31667 22.035 4.36C22.035 4.44 22.0067 4.505 21.95 4.555C21.8933 4.60167 21.82 4.625 21.73 4.625ZM25.0162 7V3.5H25.5562V7H25.0162ZM22.7312 7V3.5H23.2712V7H22.7312ZM22.9662 5.515V4.995H25.2562V5.515H22.9662ZM26.4899 7V4.375H27.0049V7H26.4899ZM26.7399 3.795C26.6299 3.795 26.5449 3.76667 26.4849 3.71C26.4249 3.65333 26.3949 3.57333 26.3949 3.47C26.3949 3.37333 26.4249 3.295 26.4849 3.235C26.5483 3.175 26.6333 3.145 26.7399 3.145C26.8499 3.145 26.9349 3.17333 26.9949 3.23C27.0549 3.28667 27.0849 3.36667 27.0849 3.47C27.0849 3.56667 27.0533 3.645 26.9899 3.705C26.9299 3.765 26.8466 3.795 26.7399 3.795ZM28.9715 8.15C28.7849 8.15 28.5982 8.12 28.4115 8.06C28.2282 8.00333 28.0799 7.92833 27.9665 7.835L28.1565 7.435C28.2232 7.485 28.3015 7.52833 28.3915 7.565C28.4815 7.605 28.5765 7.635 28.6765 7.655C28.7765 7.67833 28.8749 7.69 28.9715 7.69C29.1549 7.69 29.3082 7.66 29.4315 7.6C29.5549 7.54 29.6482 7.45167 29.7115 7.335C29.7749 7.21833 29.8065 7.07333 29.8065 6.9V6.395L29.8615 6.43C29.8449 6.53333 29.7899 6.63333 29.6965 6.73C29.6065 6.82333 29.4932 6.9 29.3565 6.96C29.2199 7.02 29.0799 7.05 28.9365 7.05C28.6865 7.05 28.4632 6.99167 28.2665 6.875C28.0732 6.755 27.9199 6.59333 27.8065 6.39C27.6932 6.18333 27.6365 5.94833 27.6365 5.685C27.6365 5.42167 27.6915 5.18833 27.8015 4.985C27.9149 4.77833 28.0682 4.61667 28.2615 4.5C28.4582 4.38 28.6782 4.32 28.9215 4.32C29.0215 4.32 29.1182 4.33333 29.2115 4.36C29.3049 4.38333 29.3915 4.41833 29.4715 4.465C29.5515 4.50833 29.6232 4.55667 29.6865 4.61C29.7499 4.66333 29.8015 4.72 29.8415 4.78C29.8815 4.84 29.9065 4.89667 29.9165 4.95L29.8065 4.99V4.375H30.3215V6.84C30.3215 7.05 30.2899 7.235 30.2265 7.395C30.1665 7.55833 30.0782 7.695 29.9615 7.805C29.8449 7.91833 29.7032 8.00333 29.5365 8.06C29.3699 8.12 29.1815 8.15 28.9715 8.15ZM28.9915 6.575C29.1549 6.575 29.2999 6.53667 29.4265 6.46C29.5532 6.38333 29.6515 6.27833 29.7215 6.145C29.7915 6.01167 29.8265 5.85833 29.8265 5.685C29.8265 5.51167 29.7899 5.35833 29.7165 5.225C29.6465 5.08833 29.5482 4.98167 29.4215 4.905C29.2982 4.82833 29.1549 4.79 28.9915 4.79C28.8315 4.79 28.6882 4.83 28.5615 4.91C28.4382 4.98667 28.3399 5.09333 28.2665 5.23C28.1965 5.36333 28.1615 5.515 28.1615 5.685C28.1615 5.855 28.1965 6.00833 28.2665 6.145C28.3399 6.27833 28.4382 6.38333 28.5615 6.46C28.6882 6.53667 28.8315 6.575 28.9915 6.575ZM31.0436 7V3.3H31.5586V4.915L31.4686 4.975C31.5019 4.85833 31.5669 4.75167 31.6636 4.655C31.7603 4.555 31.8753 4.475 32.0086 4.415C32.1419 4.35167 32.2786 4.32 32.4186 4.32C32.6186 4.32 32.7853 4.36 32.9186 4.44C33.0519 4.51667 33.1519 4.635 33.2186 4.795C33.2853 4.955 33.3186 5.15667 33.3186 5.4V7H32.8036V5.435C32.8036 5.285 32.7836 5.16167 32.7436 5.065C32.7036 4.965 32.6419 4.89333 32.5586 4.85C32.4753 4.80333 32.3719 4.78333 32.2486 4.79C32.1486 4.79 32.0569 4.80667 31.9736 4.84C31.8903 4.87 31.8169 4.91333 31.7536 4.97C31.6936 5.02667 31.6453 5.09333 31.6086 5.17C31.5753 5.24333 31.5586 5.32333 31.5586 5.41V7H31.3036C31.2603 7 31.2169 7 31.1736 7C31.1303 7 31.0869 7 31.0436 7ZM33.9222 5.825V5.315H35.3622V5.825H33.9222ZM35.995 7V3.3H36.51V7H35.995ZM38.4161 7.05C38.1461 7.05 37.9061 6.99333 37.6961 6.88C37.4894 6.76333 37.3261 6.605 37.2061 6.405C37.0894 6.205 37.0311 5.975 37.0311 5.715C37.0311 5.50833 37.0644 5.32 37.1311 5.15C37.1977 4.98 37.2894 4.83333 37.4061 4.71C37.5261 4.58333 37.6677 4.48667 37.8311 4.42C37.9977 4.35 38.1777 4.315 38.3711 4.315C38.5411 4.315 38.6994 4.34833 38.8461 4.415C38.9927 4.47833 39.1194 4.56667 39.2261 4.68C39.3361 4.79333 39.4194 4.92833 39.4761 5.085C39.5361 5.23833 39.5644 5.40667 39.5611 5.59L39.5561 5.81H37.4111L37.2961 5.4H39.1111L39.0361 5.485V5.365C39.0261 5.255 38.9894 5.15667 38.9261 5.07C38.8627 4.98333 38.7827 4.915 38.6861 4.865C38.5894 4.815 38.4844 4.79 38.3711 4.79C38.1911 4.79 38.0394 4.825 37.9161 4.895C37.7927 4.96167 37.6994 5.06167 37.6361 5.195C37.5727 5.325 37.5411 5.48667 37.5411 5.68C37.5411 5.86333 37.5794 6.02333 37.6561 6.16C37.7327 6.29333 37.8411 6.39667 37.9811 6.47C38.1211 6.54333 38.2827 6.58 38.4661 6.58C38.5961 6.58 38.7161 6.55833 38.8261 6.515C38.9394 6.47167 39.0611 6.39333 39.1911 6.28L39.4511 6.645C39.3711 6.725 39.2727 6.795 39.1561 6.855C39.0427 6.915 38.9211 6.96333 38.7911 7C38.6644 7.03333 38.5394 7.05 38.4161 7.05ZM40.9319 7L39.8219 4.375H40.3769L41.1769 6.34L41.0819 6.385L41.9369 4.375H42.4669L41.3019 7H40.9319ZM44.0899 7.05C43.8199 7.05 43.5799 6.99333 43.3699 6.88C43.1632 6.76333 42.9999 6.605 42.8799 6.405C42.7632 6.205 42.7049 5.975 42.7049 5.715C42.7049 5.50833 42.7382 5.32 42.8049 5.15C42.8715 4.98 42.9632 4.83333 43.0799 4.71C43.1999 4.58333 43.3415 4.48667 43.5049 4.42C43.6715 4.35 43.8515 4.315 44.0449 4.315C44.2149 4.315 44.3732 4.34833 44.5199 4.415C44.6665 4.47833 44.7932 4.56667 44.8999 4.68C45.0099 4.79333 45.0932 4.92833 45.1499 5.085C45.2099 5.23833 45.2382 5.40667 45.2349 5.59L45.2299 5.81H43.0849L42.9699 5.4H44.7849L44.7099 5.485V5.365C44.6999 5.255 44.6632 5.15667 44.5999 5.07C44.5365 4.98333 44.4565 4.915 44.3599 4.865C44.2632 4.815 44.1582 4.79 44.0449 4.79C43.8649 4.79 43.7132 4.825 43.5899 4.895C43.4665 4.96167 43.3732 5.06167 43.3099 5.195C43.2465 5.325 43.2149 5.48667 43.2149 5.68C43.2149 5.86333 43.2532 6.02333 43.3299 6.16C43.4065 6.29333 43.5149 6.39667 43.6549 6.47C43.7949 6.54333 43.9565 6.58 44.1399 6.58C44.2699 6.58 44.3899 6.55833 44.4999 6.515C44.6132 6.47167 44.7349 6.39333 44.8649 6.28L45.1249 6.645C45.0449 6.725 44.9465 6.795 44.8299 6.855C44.7165 6.915 44.5949 6.96333 44.4649 7C44.3382 7.03333 44.2132 7.05 44.0899 7.05ZM45.8046 7V3.3H46.3196V7H45.8046ZM46.9795 4.625L46.7895 4.395C46.9195 4.335 47.0261 4.26667 47.1095 4.19C47.1928 4.11333 47.2345 4.04667 47.2345 3.99C47.2345 3.94667 47.2161 3.90833 47.1795 3.875C47.1428 3.83833 47.1095 3.80833 47.0795 3.785C47.0061 3.725 46.9561 3.675 46.9295 3.635C46.9061 3.595 46.8945 3.55333 46.8945 3.51C46.8945 3.43 46.9228 3.36667 46.9795 3.32C47.0361 3.27 47.1095 3.245 47.1995 3.245C47.2928 3.245 47.3761 3.27 47.4495 3.32C47.5261 3.36667 47.5861 3.43167 47.6295 3.515C47.6728 3.59833 47.6945 3.69667 47.6945 3.81C47.6945 3.89667 47.6761 3.98167 47.6395 4.065C47.6028 4.14833 47.5511 4.22667 47.4845 4.3C47.4211 4.37333 47.3461 4.43833 47.2595 4.495C47.1728 4.55167 47.0795 4.595 46.9795 4.625ZM47.9995 4.625L47.8095 4.395C47.9395 4.335 48.0461 4.26667 48.1295 4.19C48.2128 4.11333 48.2545 4.04667 48.2545 3.99C48.2545 3.94667 48.2361 3.90833 48.1995 3.875C48.1628 3.83833 48.1295 3.80833 48.0995 3.785C48.0261 3.725 47.9761 3.675 47.9495 3.635C47.9261 3.595 47.9145 3.55333 47.9145 3.51C47.9145 3.43 47.9428 3.36667 47.9995 3.32C48.0561 3.27 48.1295 3.245 48.2195 3.245C48.3128 3.245 48.3961 3.27 48.4695 3.32C48.5461 3.36667 48.6061 3.43167 48.6495 3.515C48.6928 3.59833 48.7145 3.69667 48.7145 3.81C48.7145 3.89667 48.6961 3.98167 48.6595 4.065C48.6228 4.14833 48.5711 4.22667 48.5045 4.3C48.4411 4.37333 48.3661 4.43833 48.2795 4.495C48.1928 4.55167 48.0995 4.595 47.9995 4.625Z" fill="white"/>
<path d="M20.695 75.625C20.6017 75.625 20.5167 75.6017 20.44 75.555C20.3667 75.505 20.3083 75.4383 20.265 75.355C20.2217 75.2683 20.2 75.17 20.2 75.06C20.2 74.9733 20.2183 74.8883 20.255 74.805C20.2917 74.7217 20.3417 74.6433 20.405 74.57C20.4717 74.4967 20.5483 74.4317 20.635 74.375C20.7217 74.3183 20.815 74.275 20.915 74.245L21.105 74.475C20.975 74.535 20.8683 74.6033 20.785 74.68C20.7017 74.7567 20.66 74.8233 20.66 74.88C20.66 74.9233 20.6783 74.9617 20.715 74.995C20.7517 75.0283 20.785 75.0583 20.815 75.085C20.8883 75.145 20.9367 75.195 20.96 75.235C20.9867 75.275 21 75.3167 21 75.36C21 75.44 20.9717 75.505 20.915 75.555C20.8583 75.6017 20.785 75.625 20.695 75.625ZM21.73 75.625C21.6367 75.625 21.5517 75.6017 21.475 75.555C21.4017 75.505 21.3433 75.4383 21.3 75.355C21.2567 75.2683 21.235 75.17 21.235 75.06C21.235 74.9733 21.2533 74.8883 21.29 74.805C21.3267 74.7217 21.3767 74.6433 21.44 74.57C21.5067 74.4967 21.5833 74.4317 21.67 74.375C21.7567 74.3183 21.85 74.275 21.95 74.245L22.14 74.475C22.01 74.535 21.9033 74.6033 21.82 74.68C21.7367 74.7567 21.695 74.8233 21.695 74.88C21.695 74.9233 21.7133 74.9617 21.75 74.995C21.7867 75.0283 21.82 75.0583 21.85 75.085C21.9233 75.145 21.9717 75.195 21.995 75.235C22.0217 75.275 22.035 75.3167 22.035 75.36C22.035 75.44 22.0067 75.505 21.95 75.555C21.8933 75.6017 21.82 75.625 21.73 75.625ZM22.7312 78V74.5H23.2712V77.48H24.9112V78H22.7312ZM26.6767 78.05C26.4201 78.05 26.1901 77.9917 25.9867 77.875C25.7867 77.755 25.6284 77.5933 25.5117 77.39C25.3951 77.1833 25.3367 76.9483 25.3367 76.685C25.3367 76.4217 25.3951 76.1883 25.5117 75.985C25.6284 75.7783 25.7867 75.6167 25.9867 75.5C26.1901 75.38 26.4201 75.32 26.6767 75.32C26.9301 75.32 27.1567 75.38 27.3567 75.5C27.5601 75.6167 27.7201 75.7783 27.8367 75.985C27.9534 76.1883 28.0117 76.4217 28.0117 76.685C28.0117 76.9483 27.9534 77.1833 27.8367 77.39C27.7201 77.5933 27.5601 77.755 27.3567 77.875C27.1567 77.9917 26.9301 78.05 26.6767 78.05ZM26.6767 77.58C26.8334 77.58 26.9734 77.5417 27.0967 77.465C27.2201 77.385 27.3167 77.2783 27.3867 77.145C27.4567 77.0083 27.4901 76.855 27.4867 76.685C27.4901 76.5117 27.4567 76.3583 27.3867 76.225C27.3167 76.0883 27.2201 75.9817 27.0967 75.905C26.9734 75.8283 26.8334 75.79 26.6767 75.79C26.5201 75.79 26.3784 75.83 26.2517 75.91C26.1284 75.9867 26.0317 76.0933 25.9617 76.23C25.8917 76.3633 25.8584 76.515 25.8617 76.685C25.8584 76.855 25.8917 77.0083 25.9617 77.145C26.0317 77.2783 26.1284 77.385 26.2517 77.465C26.3784 77.5417 26.5201 77.58 26.6767 77.58ZM29.1202 78L28.2252 75.375L28.7452 75.37L29.3852 77.335L29.2702 77.325L29.9652 75.79H30.2752L30.9752 77.33L30.8402 77.34L31.4852 75.375H32.0052L31.1202 78H30.7652L30.0352 76.33L30.1502 76.345L29.4702 78H29.1202ZM32.3793 76.825V76.315H33.8193V76.825H32.3793ZM34.452 78V74.3H34.967V78H34.452ZM36.8731 78.05C36.6031 78.05 36.3631 77.9933 36.1531 77.88C35.9464 77.7633 35.7831 77.605 35.6631 77.405C35.5464 77.205 35.4881 76.975 35.4881 76.715C35.4881 76.5083 35.5214 76.32 35.5881 76.15C35.6548 75.98 35.7464 75.8333 35.8631 75.71C35.9831 75.5833 36.1248 75.4867 36.2881 75.42C36.4548 75.35 36.6348 75.315 36.8281 75.315C36.9981 75.315 37.1564 75.3483 37.3031 75.415C37.4498 75.4783 37.5764 75.5667 37.6831 75.68C37.7931 75.7933 37.8764 75.9283 37.9331 76.085C37.9931 76.2383 38.0214 76.4067 38.0181 76.59L38.0131 76.81H35.8681L35.7531 76.4H37.5681L37.4931 76.485V76.365C37.4831 76.255 37.4464 76.1567 37.3831 76.07C37.3198 75.9833 37.2398 75.915 37.1431 75.865C37.0464 75.815 36.9414 75.79 36.8281 75.79C36.6481 75.79 36.4964 75.825 36.3731 75.895C36.2498 75.9617 36.1564 76.0617 36.0931 76.195C36.0298 76.325 35.9981 76.4867 35.9981 76.68C35.9981 76.8633 36.0364 77.0233 36.1131 77.16C36.1898 77.2933 36.2981 77.3967 36.4381 77.47C36.5781 77.5433 36.7398 77.58 36.9231 77.58C37.0531 77.58 37.1731 77.5583 37.2831 77.515C37.3964 77.4717 37.5181 77.3933 37.6481 77.28L37.9081 77.645C37.8281 77.725 37.7298 77.795 37.6131 77.855C37.4998 77.915 37.3781 77.9633 37.2481 78C37.1214 78.0333 36.9964 78.05 36.8731 78.05ZM39.3889 78L38.2789 75.375H38.8339L39.6339 77.34L39.5389 77.385L40.3939 75.375H40.9239L39.7589 78H39.3889ZM42.5469 78.05C42.2769 78.05 42.0369 77.9933 41.8269 77.88C41.6202 77.7633 41.4569 77.605 41.3369 77.405C41.2202 77.205 41.1619 76.975 41.1619 76.715C41.1619 76.5083 41.1952 76.32 41.2619 76.15C41.3286 75.98 41.4202 75.8333 41.5369 75.71C41.6569 75.5833 41.7986 75.4867 41.9619 75.42C42.1286 75.35 42.3086 75.315 42.5019 75.315C42.6719 75.315 42.8302 75.3483 42.9769 75.415C43.1236 75.4783 43.2502 75.5667 43.3569 75.68C43.4669 75.7933 43.5502 75.9283 43.6069 76.085C43.6669 76.2383 43.6952 76.4067 43.6919 76.59L43.6869 76.81H41.5419L41.4269 76.4H43.2419L43.1669 76.485V76.365C43.1569 76.255 43.1202 76.1567 43.0569 76.07C42.9936 75.9833 42.9136 75.915 42.8169 75.865C42.7202 75.815 42.6152 75.79 42.5019 75.79C42.3219 75.79 42.1702 75.825 42.0469 75.895C41.9236 75.9617 41.8302 76.0617 41.7669 76.195C41.7036 76.325 41.6719 76.4867 41.6719 76.68C41.6719 76.8633 41.7102 77.0233 41.7869 77.16C41.8636 77.2933 41.9719 77.3967 42.1119 77.47C42.2519 77.5433 42.4136 77.58 42.5969 77.58C42.7269 77.58 42.8469 77.5583 42.9569 77.515C43.0702 77.4717 43.1919 77.3933 43.3219 77.28L43.5819 77.645C43.5019 77.725 43.4036 77.795 43.2869 77.855C43.1736 77.915 43.0519 77.9633 42.9219 78C42.7952 78.0333 42.6702 78.05 42.5469 78.05ZM44.2616 78V74.3H44.7766V78H44.2616ZM45.4365 75.625L45.2465 75.395C45.3765 75.335 45.4832 75.2667 45.5665 75.19C45.6498 75.1133 45.6915 75.0467 45.6915 74.99C45.6915 74.9467 45.6732 74.9083 45.6365 74.875C45.5998 74.8383 45.5665 74.8083 45.5365 74.785C45.4632 74.725 45.4132 74.675 45.3865 74.635C45.3632 74.595 45.3515 74.5533 45.3515 74.51C45.3515 74.43 45.3798 74.3667 45.4365 74.32C45.4932 74.27 45.5665 74.245 45.6565 74.245C45.7498 74.245 45.8332 74.27 45.9065 74.32C45.9832 74.3667 46.0432 74.4317 46.0865 74.515C46.1298 74.5983 46.1515 74.6967 46.1515 74.81C46.1515 74.8967 46.1332 74.9817 46.0965 75.065C46.0598 75.1483 46.0082 75.2267 45.9415 75.3C45.8782 75.3733 45.8032 75.4383 45.7165 75.495C45.6298 75.5517 45.5365 75.595 45.4365 75.625ZM46.4565 75.625L46.2665 75.395C46.3965 75.335 46.5032 75.2667 46.5865 75.19C46.6698 75.1133 46.7115 75.0467 46.7115 74.99C46.7115 74.9467 46.6932 74.9083 46.6565 74.875C46.6198 74.8383 46.5865 74.8083 46.5565 74.785C46.4832 74.725 46.4332 74.675 46.4065 74.635C46.3832 74.595 46.3715 74.5533 46.3715 74.51C46.3715 74.43 46.3998 74.3667 46.4565 74.32C46.5132 74.27 46.5865 74.245 46.6765 74.245C46.7698 74.245 46.8532 74.27 46.9265 74.32C47.0032 74.3667 47.0632 74.4317 47.1065 74.515C47.1498 74.5983 47.1715 74.6967 47.1715 74.81C47.1715 74.8967 47.1532 74.9817 47.1165 75.065C47.0798 75.1483 47.0282 75.2267 46.9615 75.3C46.8982 75.3733 46.8232 75.4383 46.7365 75.495C46.6498 75.5517 46.5565 75.595 46.4565 75.625Z" fill="white"/>
</svg>
